<?xml version="1.0" standalone="no"?>
<!DOCTYPE svg PUBLIC "-//W3C//DTD SVG 1.1//EN" "http://www.w3.org/Graphics/SVG/1.1/DTD/svg11.dtd" >
<svg xmlns="http://www.w3.org/2000/svg">
<metadata></metadata>
<defs>
<font id="adobe_caslon_proitalic" horiz-adv-x="1024" >
<font-face units-per-em="2048" ascent="1505" descent="-543" />
<missing-glyph horiz-adv-x="471" />
<glyph unicode="&#xfb01;" horiz-adv-x="1034" d="M-457 -479q0 32 24 56.5t58 27.5q32 -1 54.5 -25t25.5 -51q2 -25 19.5 -42t50.5 -17q29 0 57 18t51 45.5t47 74t42.5 90.5t41 107.5t38.5 113.5t38.5 120.5t38.5 116.5q125 363 201 565h-166q-15 0 -12 14l12 41q3 13 6.5 17t11.5 4h172q40 95 62 144t61 125t80.5 131 t89.5 97q61 55 131.5 82t167.5 27q59 0 104 -17t67.5 -41.5t33 -45.5t10.5 -35q0 -40 -22.5 -66.5t-53.5 -26.5q-48 0 -69 26.5t-21 59.5q0 3 0.5 12t0 13t-1.5 11t-3.5 12t-7.5 10q-26 26 -84 26q-83 0 -154 -63q-65 -57 -130.5 -191.5t-116.5 -289.5h366q38 0 79.5 11 t47.5 11q20 0 -2 -59l-223 -559q-15 -37 -18 -57.5t3 -27.5t21 -7q21 0 94.5 73.5t96.5 106.5q3 10 18 -2l27 -23q7 -7 2 -12q-15 -24 -73.5 -85t-146.5 -124t-147 -63q-63 0 -63 43q0 29 75 215l162 417q14 39 -3 52.5t-62 13.5h-277q-28 -67 -92.5 -251.5t-97.5 -274.5 q-13 -36 -36 -100t-38 -108t-40 -107t-45.5 -107.5t-49.5 -99t-57 -92t-64.5 -76t-74 -61.5t-83.5 -37.5t-96 -14.5q-71 0 -114.5 39.5t-43.5 89.5z" />
<glyph unicode="&#xfb02;" horiz-adv-x="1038" d="M-449 -498q0 37 24 64.5t58 27.5q32 0 52.5 -19.5t29.5 -45.5q22 -55 58 -55q26 0 59 17t53 40q37 43 71.5 109t67.5 154.5t55 155t54 173.5t45 147l144 453h-172q-19 0 -13 16l17 43q8 17 20 17h174q64 176 117.5 277t150.5 200q124 127 310 127q83 0 163 -13.5 t115 -27.5q25 -12 25 -29q0 -8 -12 -35t-39.5 -86t-51.5 -120l-346 -854q-20 -48 -20 -74q0 -23 22 -23q21 0 92 68t80 84q7 10 21 0l20 -17q10 -7 4 -22q-4 -9 -47 -51t-101.5 -92.5t-126.5 -90.5t-112 -40q-41 0 -41 34q0 43 47 146l230 563h-383l-154 -475 q-87 -273 -132 -381q-94 -228 -210 -346q-126 -129 -264 -129q-73 0 -113.5 37.5t-40.5 72.5zM485 799h394l141 348q20 48 20 92q0 32 -35.5 63t-121.5 31q-96 0 -162 -55q-52 -42 -99.5 -139.5t-136.5 -339.5z" />
<glyph unicode="&#xfb03;" horiz-adv-x="1538" d="M-424 -487q0 36 24.5 62t63.5 26q40 0 65 -30t31 -63q3 -15 13 -24.5t22 -9.5q76 0 157.5 137t162.5 414l207 696h-179q-17 0 -14 18l8 37q6 21 25 21h180q59 178 107.5 277t128.5 179q129 129 337 129q69 0 127 -29t76 -59q41 41 129 80q72 29 172 29q89 0 142 -39 t53 -82q0 -45 -24.5 -69.5t-57.5 -24.5q-46 0 -65.5 21.5t-24.5 60.5q-2 21 -26.5 40t-78.5 19q-39 0 -75 -18.5t-63.5 -46t-54.5 -73.5t-45.5 -87.5t-39 -101.5t-32.5 -102.5t-28 -102.5h369q38 0 79.5 11t47.5 11q20 0 -2 -59l-223 -559q-15 -37 -18 -57.5t3 -27.5t21 -7 q21 0 94 73t96 107q3 10 19 -2l26 -23q7 -7 2 -12q-9 -16 -48 -57t-92.5 -90.5t-117 -87t-108.5 -37.5q-29 0 -44.5 12t-15.5 31q0 26 76 215l162 417q14 39 -4 52.5t-66 13.5h-280q-14 -44 -61 -203.5t-95.5 -311t-93.5 -267.5q-50 -129 -98.5 -221.5t-111 -170 t-140.5 -116.5t-172 -39q-57 0 -98 8t-69 25.5t-40 28.5t-31 35l-3.5 3.5t-2.5 3.5q-22 -29 -91.5 -66.5t-146.5 -37.5q-60 0 -102.5 35.5t-42.5 85.5zM39 -401l4 -5q57 -10 84 -71q13 -29 44 -47.5t58 -18.5q90 0 156 60q87 77 151.5 227t137.5 416q29 108 88 302t78 259 h-383q-43 -156 -160 -522q-61 -195 -138 -373.5t-120 -226.5zM477 797h383q23 70 45.5 129t38 95t32.5 69t25 45.5t19.5 30t11.5 18.5q-51 6 -76 67q-25 58 -139 58q-79 0 -145 -64q-89 -81 -195 -448z" />
<glyph unicode="&#xfb04;" horiz-adv-x="1552" d="M-424 -487q0 36 24.5 62t63.5 26q40 0 65 -30t31 -63q3 -15 13 -24.5t22 -9.5q76 0 157.5 137t162.5 414l207 696h-183q-16 0 -10 20l8 35q6 21 25 21h180q59 178 107.5 277t128.5 179q129 129 327 129q77 0 133.5 -31t79.5 -71q66 61 142.5 92t183.5 31q76 0 154.5 -13 t117.5 -26q27 -9 27 -31q0 -5 -12 -31.5t-38.5 -87t-52.5 -124.5l-346 -854q-20 -48 -20 -74q0 -23 22 -23q21 0 92 68t80 84q7 11 21 0l20 -17q10 -7 4 -22q-6 -13 -72.5 -78t-159.5 -131t-146 -66q-21 0 -33 10.5t-12 24.5q0 43 47 146l229 563h-389q-3 -10 -33.5 -114 t-48 -163t-48.5 -159t-61 -186.5t-59 -161.5q-50 -130 -100 -222.5t-114 -169t-145.5 -115t-179.5 -38.5q-55 0 -95.5 9t-66.5 27t-39 32t-28 36q-22 -29 -91.5 -66.5t-146.5 -37.5q-60 0 -102.5 35.5t-42.5 85.5zM39 -401l4 -5q24 -3 48 -23t36 -48q13 -30 39.5 -48 t52.5 -18q87 0 156 60q90 80 161 231t142 404q16 56 47.5 172.5t58 209.5t56.5 187h-383q-92 -321 -156 -520q-65 -199 -142 -377t-120 -225zM477 797h383q93 300 176 383q-49 9 -80 73q-27 56 -139 56q-79 0 -145 -64q-89 -81 -195 -448zM997 797h400l141 352q21 50 21 92 q0 37 -36 65.5t-122 28.5q-63 0 -105 -14.5t-79 -48.5q-56 -48 -106.5 -152t-113.5 -323z" />
<glyph horiz-adv-x="2048" />
<glyph horiz-adv-x="2048" />
<glyph unicode="&#xd;" horiz-adv-x="2048" />
<glyph unicode=" "  horiz-adv-x="471" />
<glyph unicode="&#x09;" horiz-adv-x="471" />
<glyph unicode="&#xa0;" horiz-adv-x="471" />
<glyph unicode="!" horiz-adv-x="552" d="M70 86q0 45 30.5 78t75.5 33q43 0 70.5 -34.5t27.5 -68.5q0 -49 -30 -81.5t-80 -32.5q-30 0 -62 27t-32 79zM250.5 393.5q-1.5 9.5 3.5 24.5q14 40 60.5 250.5t89.5 414.5t45 211q12 54 39 81.5t63 27.5q42 0 66 -27.5t24 -62.5q0 -33 -31 -107q-1 -2 -81.5 -208.5 t-158 -402.5t-81.5 -204t-7.5 -11.5t-7 -4t-10.5 -0.5q-5 0 -8.5 4.5t-5 14z" />
<glyph unicode="&#x22;" horiz-adv-x="479" d="M270 958q6 21 38.5 187t43.5 198q20 60 92 60q25 0 43.5 -18.5t18.5 -45.5q0 -12 -41.5 -98t-88 -180.5t-54.5 -118.5zM516 958q6 21 38.5 187t43.5 198q20 60 92 60q25 0 43.5 -18.5t18.5 -45.5q0 -12 -41.5 -98t-88.5 -180.5t-55 -118.5z" />
<glyph unicode="#" d="M86 422l25 72q4 10 8 12t14 2h186l103 299h-195q-17 0 -22.5 3t-3.5 11l24 76q2 12 23 12h198l136 394q6 18 20 18h82q14 0 4 -29l-131 -383h199l131 385q10 27 24 27h78q15 0 6 -27l-131 -385h191q8 0 12.5 -3t3.5 -9l-24 -76q-3 -10 -8 -12t-21 -2h-182l-103 -299h209 q11 0 16.5 -3.5t2.5 -12.5l-25 -78q-2 -8 -27 -8h-204l-142 -414q-7 -23 -20 -23h-84q-11 0 -4 21l143 416h-201l-139 -406q-1 -2 -2 -5q-11 -25 -18 -26h-84q-16 0 -7 27l142 410h-193q-15 0 -10 16zM426 508h201l102 299h-201z" />
<glyph unicode="$" d="M119 139l129 365q6 17 16 14l23 -6q14 -5 8 -25q-21 -76 -12.5 -138t32 -104t60.5 -71l125 498q-73 73 -108.5 135.5t-35.5 142.5q0 45 18.5 93.5t53 93t91 75.5t124.5 37l41 160q3 16 16 14l37 -6q9 -6 4 -24l-36 -144q41 -2 92 -20l41 170q4 14 18 12l33 -6 q12 -3 6 -25l-43 -178q10 -5 26.5 -14.5t28.5 -16t19 -6.5q24 0 37 56q3 10 12 10h18q10 0 6 -19l-51 -317q-3 -12 -10 -12h-29q-10 0 -10 18q4 133 -65 221l-111 -458q141 -133 141 -277t-83.5 -228.5t-205.5 -99.5l-47 -194q-6 -25 -20 -19l-33 11q-12 3 -6 28l43 172 q-54 3 -98 15l-54 -213q-3 -14 -16 -11l-35 9q-12 3 -6 24l53 215q-31 14 -60 39.5t-46.5 42.5t-28.5 17q-16 0 -31 -16t-36 -58q-6 -11 -15 -8l-16 8q-9 5 -4 18zM430 137q41 -20 96 -20l105 426q-8 7 -28 26.5t-35.5 34.5t-18.5 17zM483 999q0 -99 60 -172l86 359 q-67 -13 -106.5 -67t-39.5 -120zM590 778q72 -65 82 -71l108 458q-40 22 -90 25zM592 127q68 17 110.5 71.5t42.5 125.5q0 93 -65 165z" />
<glyph unicode="%" horiz-adv-x="1433" d="M156 762q0 91 33 189.5t88 180.5t135 135.5t166 53.5q101 0 153.5 -61t52.5 -162q0 -134 -55 -269t-152 -225t-206 -90q-105 0 -160 66.5t-55 181.5zM268 721q0 -70 29.5 -111t64.5 -41q62 0 122 61t99.5 150t64 185.5t24.5 171.5q0 56 -30 89.5t-73 33.5 q-56 0 -113 -58.5t-97 -142.5t-65.5 -176.5t-25.5 -161.5zM336 12q0 12 8 25l836 1276q5 8 12 8q6 0 14 -4l45 -29q9 -3 9 -10q0 -4 -7 -14l-839 -1280q-9 -15 -17 -15t-16 6l-39 27q-6 3 -6 10zM817 233q0 91 33 189.5t88 181t135 136t166 53.5q101 0 154 -61.5t53 -162.5 q0 -134 -55 -268.5t-152.5 -224.5t-206.5 -90q-105 0 -160 66t-55 181zM930 193q0 -70 29.5 -111t64.5 -41q62 0 121.5 61t99.5 149.5t64 185t24 171.5q0 57 -29.5 90t-72.5 33q-56 0 -113 -58t-97 -142t-65.5 -176.5t-25.5 -161.5z" />
<glyph unicode="&#x26;" horiz-adv-x="1744" d="M205 483q0 87 24.5 163t63 126.5t76.5 82.5t73 48q-75 102 -75 244q0 120 85 207.5t222 87.5q86 0 142 -44t56 -118q0 -58 -35 -96.5t-61 -38.5q-12 0 -6 37q11 61 -27.5 100t-95.5 39q-84 0 -140 -66.5t-56 -169.5q0 -91 51 -161q30 10 71 10q33 0 69 -14t36 -35 q0 -37 -18 -67t-42 -30q-23 0 -62 14.5t-52 26.5q-21 18 -31 20t-31 -9q-53 -34 -85.5 -109t-32.5 -168q0 -195 162 -324.5t438 -129.5q108 0 203 27t161.5 71t114.5 101.5t71 118.5t23 120q0 126 -87 222.5t-218 96.5q-56 0 -97.5 -23t-60.5 -56.5t-27 -61t-8 -47.5 q0 -43 13 -79t28 -52.5t25 -16.5q8 0 13 9t5 22q0 25 23 53.5t65 28.5q44 0 70.5 -29t26.5 -75q0 -34 -31.5 -67.5t-93.5 -33.5q-32 0 -68 16t-70 45t-56.5 79.5t-22.5 111.5q0 53 19 103.5t56 93t99 68.5t139 26q44 0 125 -7t94 -7q164 0 246 46.5t82 133.5 q0 54 -37.5 98.5t-79.5 44.5q-32 0 -22 -45q4 -27 -17.5 -56.5t-66.5 -29.5q-46 0 -67 24t-21 50q0 61 46.5 94t108.5 33q101 0 168.5 -65t67.5 -150q0 -267 -334 -311q-35 -4 -41 -17t12 -39q74 -112 74 -266q0 -168 -92 -297t-240.5 -194.5t-326.5 -65.5q-138 0 -251 24 t-188.5 66.5t-130.5 94.5t-85.5 113.5t-44 117.5t-13.5 112z" />
<glyph unicode="'" horiz-adv-x="294" d="M281 958q6 22 38 187.5t43 197.5q20 60 93 60q25 0 43 -18.5t18 -45.5q0 -12 -41.5 -98t-88 -180.5t-54.5 -118.5z" />
<glyph unicode="(" horiz-adv-x="704" d="M176 141q0 388 186.5 736t511.5 591q12 9 20.5 6t18.5 -20q11 -15 9 -24.5t-19 -22.5q-270 -222 -438 -575t-168 -742q0 -141 9.5 -251.5t15 -138t18.5 -87.5q3 -12 -2.5 -17.5t-24.5 -11.5q-21 -7 -27.5 -5.5t-11.5 11.5q-34 74 -66 239t-32 312z" />
<glyph unicode=")" horiz-adv-x="704" d="M-101 -376.5q2 9.5 19 22.5q270 222 438 575t168 742q0 141 -9.5 251.5t-15 138t-18.5 87.5q-3 12 2.5 17t24.5 11q21 7 27.5 5.5t11.5 -11.5q34 -74 66 -239t32 -312q0 -388 -186.5 -736t-511.5 -591q-12 -9 -20 -5.5t-19 20.5q-11 15 -9 24.5z" />
<glyph unicode="*" horiz-adv-x="614" d="M172 948q0 44 51 70q17 8 126 38.5t118 30.5v5q-10 2 -102 26.5t-101 28.5q-1 0 -7 2.5t-8 3.5t-7.5 3.5t-8 4.5t-7 5t-6.5 6t-4.5 7t-3.5 9t-1 10q0 27 21.5 50.5t48.5 23.5q15 0 31 -8.5t37 -28.5t36 -36t44 -49.5t44 -49.5l2 4q0 1 -5 54t-9 109.5t-2 71.5 q3 25 22.5 44.5t50.5 19.5q54 0 54 -39q0 -30 -34.5 -114t-64.5 -146l2 -4q13 9 67 55.5t103 82.5t70 36q27 0 41 -19t14 -43q0 -42 -82 -67q-86 -24 -213 -51v-7q11 -2 114 -32t114 -35q35 -18 35 -37q0 -23 -26 -50.5t-56 -27.5q-8 0 -17 2.5t-18.5 9t-17.5 12.5t-20 18 t-19.5 20t-21.5 25t-21.5 26t-24 29.5t-23.5 29.5l-4 -4q2 -9 10 -112t5 -121q-4 -27 -21 -47.5t-53 -20.5q-51 0 -51 45q0 41 98 256l-4 4q-10 -9 -45.5 -41t-57 -50t-51.5 -42t-52 -35.5t-36 -11.5q-18 0 -35.5 12.5t-17.5 38.5z" />
<glyph unicode="+" d="M147 436v111h338v354h121v-354h336v-111h-336v-354h-121v354h-338z" />
<glyph unicode="," horiz-adv-x="512" d="M-2 -242q-1 14 4 20t18 9q51 14 107.5 63.5t56.5 112.5q0 34 -10.5 55t-38.5 50q-1 1 -9.5 8.5t-15 14.5t-15 18t-13 24t-4.5 27q0 39 24.5 66.5t65.5 27.5q64 0 105.5 -67.5t41.5 -131.5q0 -68 -27 -125t-64.5 -91t-81 -57.5t-74 -32.5t-45.5 -9h-4.5h-5.5t-4.5 0.5 t-4.5 2.5t-3.5 5.5t-2.5 9.5z" />
<glyph unicode="-" horiz-adv-x="856" d="M129 459v76q0 20 16 20h662q18 0 18 -16v-70q0 -25 -18 -25h-662q-16 0 -16 15z" />
<glyph unicode="." horiz-adv-x="512" d="M84 90q0 37 28 72t78 35q42 0 70.5 -22.5t37.5 -45t9 -39.5q0 -42 -32.5 -76t-81.5 -34q-47 0 -78 31.5t-31 78.5z" />
<glyph unicode="/" horiz-adv-x="675" d="M-109 6q-9 6 7 27l983 1353q13 19 28 13l60 -27q15 -6 0 -29l-985 -1355q-17 -26 -31 -17z" />
<glyph unicode="0" d="M109 383q0 149 55 315.5t144 304t214.5 228t255.5 90.5q146 0 225.5 -103.5t79.5 -273.5q0 -167 -54.5 -342.5t-143 -314.5t-210.5 -228.5t-247 -89.5q-152 0 -235.5 112t-83.5 302zM256 315q0 -128 47.5 -196t116.5 -68q106 0 206.5 103.5t167.5 254.5t107.5 315 t40.5 292q0 107 -47.5 164t-128.5 57q-96 0 -192.5 -100t-164.5 -244t-110.5 -302t-42.5 -276z" />
<glyph unicode="1" d="M88 8l12 47q2 15 25 15h108q31 0 50 3t40.5 13t38.5 31.5t33 56.5q33 83 99 293l116 379q10 31 21 65.5t17.5 54t12.5 38t8.5 29t2.5 16.5q0 38 -33 38q-7 0 -15 -1.5t-22 -7t-22.5 -9t-32 -13t-35.5 -14.5l-111 -47q-19 -9 -28 6l-17 33q-6 15 15 25l460 241 q49 21 62 21q8 0 15 -6t7 -15q0 -16 -16 -55q-70 -188 -162 -475l-112 -358q-47 -142 -76 -244q-21 -56 -3 -77t91 -21h111q16 0 12 -21l-8 -43q-2 -12 -19 -12q-7 0 -163.5 3t-168.5 3q-17 0 -157 -3t-146 -3q-14 0 -10 14z" />
<glyph unicode="2" d="M-14 14q0 19 28 41q36 29 111.5 87t131 101t133.5 108t135 118t118 119.5t100 124.5t64.5 122t26.5 121q0 27 -3.5 54t-16.5 62.5t-33.5 62t-59.5 45t-90 18.5q-27 0 -52 -5t-47.5 -17.5t-40.5 -23t-37 -30.5t-30.5 -31.5t-27.5 -35.5t-21.5 -32t-18.5 -31l-14 -23 q-10 -16 -14.5 -21t-10.5 -2l-32 17q-8 5 0 28q18 47 54 100t89 106.5t128 88.5t155 35q133 0 213 -85.5t80 -223.5q0 -53 -16 -108t-40.5 -104t-66.5 -104t-79.5 -97.5t-96 -95t-98.5 -86.5t-105 -83t-98.5 -73t-94 -66.5t-78.5 -55.5v-4h367q45 0 82 12t67 38t48.5 47.5 t44.5 58.5q11 19 20 14l31 -14q5 -9 -6 -25q-33 -48 -85 -157t-57 -127q-6 -13 -10.5 -17t-13.5 -4q-22 0 -39 25q-12 14 -96 14h-465q-11 0 -33.5 -1t-34.5 -1q-40 -4 -49 -4q-16 0 -16 20z" />
<glyph unicode="3" d="M16 197q0 27 19.5 54.5t50.5 27.5q49 0 66.5 -38.5t11.5 -78.5q-5 -44 45 -86.5t127 -42.5q156 0 266.5 118.5t110.5 288.5q0 85 -43.5 156t-112.5 96q-23 7 -30 14t-7 21q0 12 6.5 16t30.5 9q36 7 82.5 30t93.5 59.5t79 92.5t32 117q0 14 -3.5 31.5t-15 41t-29.5 42 t-50.5 31.5t-75.5 13q-46 0 -92 -21t-80 -52.5t-56 -58t-34 -46.5q-13 -22 -29 -12l-25 16q-9 11 6 37q18 30 38.5 57.5t58 64t78.5 63t99 45t120 18.5q59 0 107 -19.5t76 -50t43 -64t15 -65.5q0 -62 -21.5 -117t-62.5 -99.5t-83 -77.5t-99 -68q152 -90 152 -295 q0 -103 -51 -197t-131.5 -158.5t-178 -102.5t-190.5 -38q-144 0 -229 70.5t-85 157.5z" />
<glyph unicode="4" d="M27 412q0 18 47 59l934 823q31 27 57 27q38 0 12 -72l-289 -760h213q19 0 15 -22l-31 -61q-13 -25 -33 -25h-207l-131 -340q-9 -26 -18 -33.5t-31 -7.5h-92q-20 0 -2 49l131 332h-543q-13 0 -22.5 9.5t-9.5 21.5zM231 509.5q-3 -8.5 1.5 -14.5t15.5 -6h397l215 539 q15 39 -2 38q-8 0 -20 -11l-594 -529q-10 -8 -13 -16.5z" />
<glyph unicode="5" d="M59 63q0 25 14 42.5t38 17.5q46 0 104 -45q35 -27 113 -27q86 0 161 32.5t124.5 84t77.5 114.5t28 124q0 185 -164 272q-28 17 -86.5 30t-99.5 13q-53 0 -60 10q-14 11 -4 37l193 504q7 18 30 18h373q27 0 46.5 5t36.5 20t24 23t26 34q10 12 31 -4q24 -16 14 -31 l-116 -176q-11 -16 -64 -16h-362l-113 -289l6 -4q34 0 114 -15t138 -44q192 -97 192 -314q0 -62 -23.5 -130.5t-73 -136t-117 -122t-165 -88t-208.5 -33.5q-84 0 -156 24t-72 70z" />
<glyph unicode="6" d="M152 313q0 134 50 270.5t130.5 247.5t182.5 208.5t205 164t198 103.5q37 14 53 14q11 0 17.5 -7.5t6.5 -19.5q0 -16 -20 -26q-193 -97 -316.5 -226.5t-230.5 -322.5l4 -4q63 41 119 58.5t129 17.5q124 0 198 -81t74 -202q0 -138 -69 -263t-183 -200.5t-239 -75.5 q-151 0 -230 97t-79 247zM293 279q-1 -31 2.5 -60.5t15 -63.5t30.5 -58.5t52.5 -41t77.5 -16.5q60 0 113.5 33.5t89.5 85.5t62.5 115t39 122.5t12.5 108.5q0 85 -49 146t-137 61q-56 0 -116 -28t-93 -73q-91 -122 -100 -331z" />
<glyph unicode="7" d="M252 1014l164 325q9 18 14.5 21t20.5 -2q11 -4 13.5 -10t0.5 -19q-3 -24 15 -31.5t71 -7.5h534q19 0 19 -16q0 -10 -10 -25q-9 -13 -97.5 -161.5t-101.5 -174.5q-3 -7 -100 -189t-196.5 -370.5t-123.5 -240.5q-21 -45 -34.5 -69.5t-38 -49.5t-50.5 -25t-45.5 14.5 t-19.5 51.5q0 8 2.5 17.5t5.5 17t8.5 18.5t8.5 16t10 16.5t8 12.5q249 374 323 504q8 15 86.5 152.5t136 238t74.5 125.5h-395q-33 0 -59.5 -4t-48 -14t-36.5 -18.5t-31.5 -27.5t-25.5 -30t-27.5 -36.5t-27.5 -37.5q-12 -19 -37 0q-18 13 -10 29z" />
<glyph unicode="8" d="M123 244q0 41 11.5 79t28 67.5t46.5 60t53.5 50t62.5 44t61 36.5t61.5 32.5t52.5 27.5q-7 9 -36 45t-45.5 59.5t-38.5 59.5t-33 72t-11 71q0 62 30.5 127t85 120t140 90.5t184.5 35.5q132 0 212.5 -72t80.5 -170q0 -63 -28 -124.5t-68 -106.5t-93.5 -86.5t-94 -65 t-80.5 -43.5q3 -4 22 -27.5t24 -30t22 -28.5t23 -32.5t18.5 -31t17.5 -35t12 -34t9.5 -38.5t2.5 -38q0 -157 -120.5 -273t-301.5 -116q-74 0 -132.5 21.5t-91 52.5t-53 71t-27.5 71.5t-7 58.5zM262 233q0 -93 57 -150.5t121 -57.5q65 0 117.5 27.5t82 69t45 84.5t15.5 79 q0 42 -9 79.5t-31.5 75.5t-34 55.5t-45 57t-35.5 41.5q-7 -4 -41 -22.5t-48 -27t-45.5 -30t-47 -37.5t-38.5 -44t-34 -55.5t-20 -65t-9 -79.5zM485 1016q0 -77 42 -151t126 -163q65 34 111.5 66t88 74.5t62.5 95.5t21 117q0 28 -11 60t-33 64t-63 53t-94 21 q-100 0 -175 -63.5t-75 -173.5z" />
<glyph unicode="9" d="M152 -4q0 20 14 27q117 54 208.5 115.5t158.5 131.5t112.5 133t95.5 148l-4 4q-49 -41 -96.5 -57.5t-124.5 -16.5q-66 0 -117.5 24t-80.5 59t-48 79.5t-25.5 79t-6.5 63.5q0 92 35 186t96 172t154 127.5t198 49.5q153 0 230 -92.5t77 -255.5q0 -135 -48.5 -271.5 t-130.5 -250.5t-186.5 -210.5t-219 -163t-224.5 -97.5l-39 -11q-11 0 -19.5 8.5t-8.5 18.5zM395 768q0 -52 15 -97t55 -79.5t100 -34.5q55 0 115.5 30.5t97.5 80.5q56 76 82.5 175t26.5 187q0 38 -6.5 72t-24 70t-54.5 57.5t-91 21.5q-63 0 -117.5 -35t-90 -89.5 t-60.5 -120.5t-36.5 -127t-11.5 -111z" />
<glyph unicode=":" horiz-adv-x="512" d="M57 90q0 37 28.5 72t78.5 35q42 0 70.5 -22.5t37.5 -45t9 -39.5q0 -42 -33 -76t-82 -34q-47 0 -78 31.5t-31 78.5zM285 745q0 37 28 72t78 35q42 0 70.5 -22.5t37.5 -45t9 -39.5q0 -42 -33 -76t-82 -34q-47 0 -77.5 31.5t-30.5 78.5z" />
<glyph unicode=";" horiz-adv-x="512" d="M4 -242q-1 14 4.5 20t18.5 9q51 14 107 63.5t56 112.5q0 34 -10.5 55t-38.5 50q-1 1 -9.5 8.5t-15 14.5t-15 18t-13 24t-4.5 27q0 39 24.5 66.5t65.5 27.5q64 0 106 -67.5t42 -131.5q0 -68 -27 -125t-65 -91t-81.5 -57.5t-74 -32.5t-45.5 -9h-4.5h-5.5t-4.5 0.5t-4.5 2.5 t-3.5 5.5t-2.5 9.5zM250 745q0 37 28 72t78 35q42 0 70.5 -22.5t37.5 -45t9 -39.5q0 -42 -33 -76t-82 -34q-47 0 -77.5 31.5t-30.5 78.5z" />
<glyph unicode="&#x3c;" d="M172 461v65l637 375v-135l-453 -262v-10l453 -273v-139z" />
<glyph unicode="=" d="M147 289v110h795v-110h-795zM147 598v111h795v-111h-795z" />
<glyph unicode="&#x3e;" d="M256 82v135l453 262v10l-453 273v139l637 -379v-65z" />
<glyph unicode="?" horiz-adv-x="878" d="M254 510q0 41 18 80t42.5 67.5t65 60t69 49.5t72.5 43.5t59 35.5q125 78 166 114q96 86 96 203q0 58 -53.5 113t-151.5 55t-169 -54t-71 -132q0 -44 21 -68t41 -24q25 0 33 18q-3 11 -3 31q0 30 26.5 62t76.5 32q36 0 56 -23t20 -47q0 -62 -51 -102.5t-113 -40.5 q-41 0 -77 13.5t-63.5 50.5t-27.5 94q0 44 21 89.5t59 84.5t99 63.5t134 24.5t130 -21t88 -51.5t51 -69.5t26 -69t6 -57q0 -72 -26 -136t-55.5 -103.5t-92.5 -85t-93.5 -62.5t-102.5 -54q-2 -2 -3.5 -2.5t-3.5 -1.5l-4 -2q-58 -29 -84 -43t-63 -37.5t-52.5 -40t-27.5 -40.5 t-12 -50q0 -46 40.5 -74t102.5 -28q51 0 97.5 25.5t66.5 50.5q8 8 18 -5l15 -16q8 -8 4 -16q-36 -41 -95 -79t-124 -38q-82 0 -141.5 55t-59.5 158zM264 80q0 40 27 73t76 33q45 0 74.5 -31t29.5 -75q0 -32 -29 -66t-71 -34q-40 0 -73.5 27t-33.5 73z" />
<glyph unicode="@" horiz-adv-x="1433" d="M117 512q0 168 75.5 332.5t196.5 286.5t280.5 197t319.5 75q249 0 382.5 -138.5t133.5 -379.5q0 -77 -24 -154.5t-71.5 -147.5t-112.5 -124.5t-154 -86.5t-189 -32q-28 0 -49.5 19t-21.5 44q0 66 67 232l-8 4q-32 -45 -76.5 -93.5t-99 -96.5t-116 -78.5t-113.5 -30.5 q-40 0 -69.5 29.5t-29.5 83.5q0 125 90 275.5t221 254.5t240 104q84 0 119 -67l25 37q9 14 18 14h74q20 0 10 -20q-12 -21 -44 -95.5t-63.5 -151t-33.5 -81.5q-26 -60 -54 -144t-28 -124q0 -39 57 -39q33 0 73 18.5t83.5 58.5t79 95.5t58.5 138.5t23 178q0 210 -109.5 318 t-309.5 108q-143 0 -276 -70.5t-226.5 -183t-149 -254.5t-55.5 -282q0 -230 138.5 -364t351.5 -132q113 0 202.5 16t165.5 64l27 -49q-48 -42 -171 -74.5t-253 -32.5q-280 0 -442 150.5t-162 392.5zM573 489q0 -61 48 -61q54 0 140.5 75.5t149.5 155t82 117.5q51 102 51 152 q0 43 -21.5 73.5t-57.5 30.5q-58 0 -129 -61.5t-128 -147t-96 -179t-39 -155.5z" />
<glyph unicode="A" horiz-adv-x="1267" d="M-154 8l11 45q3 17 14 17h31q123 0 248 149l948 1133q8 11 18.5 15t38.5 5q64 4 96 14q65 17 68 17q21 0 21 -14q0 -3 -1 -7l-301 -1136q-20 -88 -20 -119q0 -24 22.5 -40.5t53.5 -16.5h55q19 0 16 -21l-6 -37q-3 -18 -24 -18q-7 0 -40.5 1.5t-89 3t-116.5 1.5 q-85 0 -161 -3t-79 -3q-23 0 -20 20l8 39q4 17 16 17h39q34 0 55 5t44 21t40.5 51t32.5 91l103 378h-365l-287 -360q-84 -107 -84 -137q0 -23 19 -36t53 -13h74q19 0 14 -21l-8 -39q-3 -16 -21 -16q-4 0 -39 1.5t-96.5 3t-132.5 1.5q-59 0 -111 -1.5t-82 -3t-36 -1.5 q-9 0 -14.5 3.5t-4.5 10.5zM655 688h334l158 541q1 5 1 9q0 13 -14 16q-4 1 -8 1q-14 0 -24 -12z" />
<glyph unicode="B" horiz-adv-x="1267" d="M25 10l8 43q3 17 18 17h80q56 0 85.5 31t45.5 94l260 972q13 50 13 74q0 55 -113 55h-53q-9 0 -14 5.5t-3 13.5l8 43q2 14 27 14q82 0 166 2q242 4 289 4q206 0 317 -67q58 -35 93.5 -89t35.5 -122q0 -92 -37.5 -165t-100.5 -118.5t-129.5 -72t-139.5 -39.5 q-9 -1 -9.5 -5.5t5.5 -7.5q127 -40 202.5 -124.5t75.5 -207.5q0 -15 -3 -35t-13.5 -56.5t-37 -78t-65.5 -77.5q-129 -119 -432 -119q-46 0 -138 3t-138 3q-47 0 -142.5 -3t-142.5 -3q-21 0 -18 16zM424 124q4 -22 33 -40q17 -9 60 -17t67 -8q98 0 175 28t122.5 75.5 t68.5 105.5t23 123q0 78 -37.5 135.5t-98 87.5t-123 44t-126.5 14h-29l-125 -471q-11 -42 -11 -65q0 -7 1 -12zM578 741q47 -8 122 -8q84 0 156 20t129 60t89.5 105.5t33.5 150.5q0 101 -88.5 172.5t-231.5 71.5q-27 0 -59 -4z" />
<glyph unicode="C" horiz-adv-x="1363" d="M209 457q0 177 79 367.5t218 342.5q101 110 231.5 173t261.5 63q76 0 138 -19.5t133 -68.5q5 -4 27 -21.5t39.5 -27t35.5 -9.5q37 0 53 64q6 18 19 12l26 -6q14 -2 14 -13q0 -3 -1 -7l-109 -424q-6 -18 -22 -13l-29 4q-15 3 -12 21q9 50 9 99v23q-2 61 -26.5 117.5 t-60.5 99.5t-93 69t-126 26q-121 0 -211.5 -60t-181.5 -190q-106 -155 -154.5 -327.5t-48.5 -315.5q0 -84 21.5 -152t54.5 -110t75.5 -70t83 -39.5t78.5 -11.5q360 0 510 363q6 13 10 16t11 0l34 -10q14 -5 11 -19l-146 -438q-4 -11 -13 -11q-2 0 -5 1l-37 10q-11 4 -6 17 q6 30 6 34q0 17 -9.5 28t-23.5 11q-25 0 -90 -28q-37 -19 -125.5 -38.5t-157.5 -19.5q-209 0 -350 134.5t-141 353.5z" />
<glyph unicode="D" horiz-adv-x="1591" d="M8 10l12 45q4 15 21 15h61q64 0 106.5 34t65.5 127l236 963q5 18 5 33q0 31 -20 46q-29 23 -89 23h-93q-15 0 -19 4t-1 13l12 45q3 9 8.5 11.5t24.5 2.5q50 0 170 6q35 1 116.5 3.5t104.5 2.5q110 0 200.5 -7.5t189.5 -27.5t183 -61t146 -102q89 -90 121.5 -178 t32.5 -193q0 -114 -28 -217t-68.5 -173.5t-95.5 -131.5t-99 -94.5t-88 -59.5q-73 -41 -157.5 -70.5t-149 -43.5t-145.5 -21.5t-119.5 -8.5t-98.5 -1q-27 0 -148.5 3t-150.5 3q-68 0 -121 -1.5t-79 -3t-29 -1.5q-11 0 -15 4q-3 3 -3 7q0 3 1 5zM430 131q0 -61 145 -61 q386 0 586 170q101 84 175.5 242.5t74.5 326.5q0 97 -36 188.5t-95 151.5q-89 92 -233 133q-103 27 -224 27q-94 0 -114 -6l-265 -1086q-14 -65 -14 -86z" />
<glyph unicode="E" horiz-adv-x="1370" d="M-6 10l6 43q3 10 6 13.5t10 3.5h76q61 0 95.5 28.5t52.5 85.5l311 973q10 31 10 56q0 36 -22 56q-37 34 -101 34h-65q-19 0 -13 22l11 39q5 14 24 14q2 0 27.5 -1t50.5 -1q86 -4 205 -4h131q188 0 356 4q50 0 102 1t56 1q23 0 30 -7t13 -32l66 -280q1 -7 -1.5 -10.5 t-11.5 -8.5l-22 -8q-12 -5 -21 6l-192 248q-11 17 -33 17h-373l-176 -539h197q36 0 56 1t46.5 6t43 16t35 29.5t33.5 48.5t29 71q3 13 15 10l30 -6q15 -4 13 -16l-110 -408q-2 -15 -15 -12l-33 4q-7 1 -8.5 4t0.5 12q2 20 2 38q0 36 -7 60q-10 36 -45.5 52.5t-70.5 20 t-108 3.5h-123l-199 -628h530q97 0 164 86l164 206q12 16 25 5l20 -13q12 -9 6 -28l-104 -297q-7 -22 -16 -28.5t-29 -6.5q-7 0 -36 0.5t-85.5 1.5t-106.5 2q-58 0 -199 1t-214 1h-238q-54 0 -116.5 -1t-75.5 -1q-16 -1 -30 -2t-21.5 -1.5t-10.5 -0.5q-17 0 -17 10q0 3 1 6z " />
<glyph unicode="F" horiz-adv-x="1269" d="M18 10l9 43q3 17 20 17h59q102 0 142 125l321 1030q5 18 5 32q0 46 -62 46h-70q-11 0 -14 4t0 14l12 41q3 16 25 16q5 0 82 -3t143 -3q277 0 547 6q59 2 116 11.5t62 9.5q21 0 21 -33q1 -34 18.5 -161t22.5 -158q1 -3 1 -5q0 -11 -12 -14l-30 -12q-14 -7 -17 10 q-5 21 -57 113t-70 116q-22 28 -28 31t-47 6q-26 3 -215 7t-232 4l-172 -549l305 4q25 0 45.5 3.5t37 12.5t28 16t23 25t18 29t15.5 37t13.5 40t14.5 48q4 14 24 10l33 -6q13 -3 8 -19l-121 -514q-6 -16 -20 -10l-35 4q-15 3 -12 19q13 75 13 123t-24.5 72t-80.5 26l-308 12 l-139 -465q-16 -62 -16 -96q0 -17 4 -27q13 -28 70 -28h57q21 0 18 -17l-14 -47q-2 -12 -25 -12q-7 0 -36 1.5t-85 3t-128 1.5q-76 0 -132 -1.5t-83.5 -3t-32.5 -1.5q-18 0 -15 16z" />
<glyph unicode="G" horiz-adv-x="1452" d="M209 543q0 177 69.5 338t184.5 274.5t268.5 180.5t315.5 67q115 0 200 -33t131 -70q32 -24 56 -24q21 0 32.5 15t20.5 50q3 14 20 9l25 -7q14 -4 12 -16l-117 -412q-3 -9 -7.5 -11t-16.5 -1l-27 4q-18 4 -12 21q9 46 9 92v18q-2 55 -27.5 108.5t-63.5 95t-99.5 66.5 t-135.5 25q-181 0 -328.5 -113.5t-229 -303t-81.5 -412.5q0 -94 21.5 -172t57.5 -130.5t85 -89t102.5 -53t111.5 -16.5q153 0 256 86q22 20 37 70l41 198q5 23 5 40q0 26 -12 39q-20 20 -75 20h-75q-21 0 -15 20l8 39q3 16 23 16q2 0 79.5 -3t158.5 -3q83 0 149.5 3t67.5 3 q21 0 18 -20l-6 -39q-3 -16 -19 -16h-32q-39 0 -61 -16.5t-31 -57.5l-72 -316q-6 -20 -13 -29t-24 -16q-42 -18 -94 -36t-141 -37t-162 -19q-176 0 -311 77t-206 207t-71 290z" />
<glyph unicode="H" horiz-adv-x="1605" d="M4 18l8 35q3 10 6.5 13.5t12.5 3.5h49q49 0 80.5 36t58.5 119l320 981q6 18 6 33q1 23 -13 38q-22 26 -65 26h-74q-8 0 -11.5 5.5t-0.5 14.5l10 39q5 16 21 16q3 0 41 -1.5t98.5 -3t118.5 -1.5q54 0 110.5 1.5t93 3t41.5 1.5q11 0 16.5 -4.5t2.5 -11.5l-14 -45 q-3 -14 -19 -14h-53q-62 0 -88 -22.5t-47 -86.5l-148 -457h744l151 477q5 17 5 31q1 21 -11 35q-20 23 -59 23h-49q-18 0 -15 20l10 43q3 12 21 12q5 0 40.5 -1.5t89 -3t101.5 -1.5q68 0 145 3l77 3q11 0 17 -4q4 -3 4 -7q0 -1 -1 -3l-12 -45q-6 -16 -19 -16h-59 q-42 0 -66.5 -23.5t-44.5 -85.5l-317 -981q-14 -39 -14 -70q0 -17 4 -31q12 -42 59 -42h74q22 0 16 -21l-10 -41q-3 -14 -25 -14q-4 0 -34 1.5t-87.5 3t-128.5 1.5q-66 0 -123 -1.5t-89.5 -3t-38.5 -1.5q-20 0 -17 24l4 31q3 21 19 21h57q64 0 99.5 37t68.5 141l135 416 h-747l-148 -459q-18 -47 -18 -76q0 -5 1 -10q4 -30 21.5 -39.5t57.5 -9.5h71q9 0 14 -5.5t3 -11.5l-9 -41q-3 -18 -22 -18q-6 0 -39 1.5t-92 3t-129 1.5q-62 0 -115.5 -1.5t-83 -3t-33.5 -1.5q-15 0 -15 14q0 4 1 10z" />
<glyph unicode="I" horiz-adv-x="735" d="M-16 10l8 39q3 13 6 17t12 4h88q45 0 72.5 7t45.5 28t27 44t23 72l256 946q10 39 10 65q0 24 -9 40q-18 30 -74 31h-95q-12 0 -16 3.5t-2 12.5l10 47q3 12 27 12q7 0 47 -1.5t103 -3t126 -1.5q74 0 138 1.5t101.5 3t45.5 1.5q14 0 20 -6q4 -4 3 -8q0 -3 -1 -6l-10 -39 q-3 -16 -22 -16h-39q-95 0 -130 -26.5t-61 -119.5l-256 -948q-9 -33 -9 -58q0 -31 14 -49q25 -32 104 -32h71q16 0 13 -21l-6 -39q-2 -10 -6.5 -13t-18.5 -3q-5 0 -43.5 1.5t-107 3t-146.5 1.5q-73 0 -143 -1.5t-112 -3t-48 -1.5q-19 0 -16 16z" />
<glyph unicode="J" horiz-adv-x="706" d="M-266 -272q0 45 26 76.5t66 31.5q41 0 65.5 -28t24.5 -58q0 -33 -12 -51q-9 -12 0 -25q14 -14 69 -14q136 0 240 360l334 1156q9 35 11 63t-19.5 46t-67.5 18h-68q-10 0 -14.5 3.5t-3.5 12.5l10 43q3 16 21 16q3 0 37.5 -1.5t95.5 -3t127 -1.5t124.5 1.5t91 3t36.5 1.5 q21 0 18 -20l-8 -41q-3 -14 -20 -14h-54q-54 0 -89 -34.5t-64 -133.5l-265 -926q-36 -124 -88 -250.5t-106 -196.5q-132 -172 -322 -172q-55 0 -96 15t-61 38t-29.5 44.5t-9.5 40.5z" />
<glyph unicode="K" horiz-adv-x="1400" d="M23 16l8 37q3 17 22 17h58q42 0 76.5 31t54.5 92l315 978q13 39 13 66q0 19 -7 33q-16 32 -74 33h-51q-25 0 -18 20l14 43q5 12 25 12q4 0 33.5 -1.5t82.5 -3t113 -1.5q72 0 128.5 1.5t85.5 3t36 1.5q15 0 12 -20l-6 -39q-1 -10 -6 -13t-18 -3h-50q-52 0 -83 -26t-50 -83 l-153 -483q68 0 99 10t71 47q13 12 108.5 96.5t128 114t99 90.5t103.5 99t60 67q23 28 14.5 49t-48.5 21h-25q-20 0 -16 20l8 37q5 16 22 16q6 0 38 -1.5t84 -3t104 -1.5q54 0 99 1.5t69.5 3t29.5 1.5q13 0 19 -5q5 -4 5 -9q0 -2 -1 -4l-8 -37q-2 -7 -4 -10.5t-6 -6.5 t-11 -3h-63q-76 0 -162 -68q-61 -48 -327.5 -285.5t-289.5 -263.5q11 -23 170.5 -252t194.5 -272q31 -36 73 -64t74 -28h60q10 0 15 -6.5t3 -14.5l-8 -35q-3 -12 -8.5 -16t-18.5 -4q-8 0 -34 1.5t-72 3t-103 1.5q-72 0 -165 -3l-93 -3q-21 0 -18 22l4 33q3 21 19 21h30 q35 0 55 18t7 39q-44 69 -173 265t-159 233q-13 17 -27 22.5t-45 5.5l-145 -448q-10 -34 -10 -60q0 -24 9 -41q19 -34 70 -34h52q17 0 14 -21l-8 -39q-3 -16 -27 -16q-6 0 -41 1.5t-92.5 3t-118.5 1.5q-68 0 -121.5 -1.5t-79.5 -3t-28 -1.5q-9 0 -13 6q-3 4 -4 11q0 2 1 5z " />
<glyph unicode="L" horiz-adv-x="1280" d="M2 14l8 39q3 17 19 17h51q70 0 104 28.5t64 122.5l295 955q13 37 13 63q0 21 -9 35q-19 30 -92 29h-76q-10 0 -14.5 4t-2.5 12l15 47q2 12 24 12q5 0 41 -1.5t101 -3t141 -1.5q77 0 144 1.5t104.5 3t42.5 1.5q19 0 16 -16l-10 -43q-5 -16 -25 -16h-92q-60 0 -90 -27.5 t-57 -114.5l-320 -1032q-10 -32 3.5 -45.5t48.5 -13.5h81q372 0 424 8q42 7 72 33q26 24 89.5 118.5t74.5 116.5q4 12 20 4l21 -8q13 -5 13 -13q0 -2 -1 -5q-9 -26 -45 -156.5t-41 -165.5q-7 -33 -24 -33q-4 0 -54 13q-46 12 -75 12q-6 0 -191 3t-289 3q-101 0 -221.5 -1.5 t-200.5 -3t-84 -1.5q-18 0 -16 20z" />
<glyph unicode="M" horiz-adv-x="1921" d="M-12 10l8 43q3 17 14 17h41q76 0 108 33.5t58 107.5l336 967q14 40 14 67q0 28 -29.5 43t-76.5 15h-74q-28 0 -25 20l9 35q3 11 7.5 15.5t14.5 4.5q1 0 41.5 -1.5t135 -3t225.5 -1.5q23 0 30.5 -9.5t10.5 -37.5l98 -989q5 -42 21 -42q12 0 30 25l723 1020q23 33 53 33 q100 0 173 1.5t107 3t40 1.5q21 0 18 -16l-8 -43q-2 -9 -6 -12.5t-14 -3.5h-62q-35 0 -58 -36t-46 -116l-265 -954q-8 -30 -8 -52q0 -26 10 -43q18 -32 60 -32h63q18 0 15 -17l-8 -43q-2 -10 -6.5 -13t-18.5 -3q-7 0 -37 1.5t-83.5 3t-117.5 1.5q-73 0 -134.5 -1.5t-94.5 -3 t-37 -1.5q-13 0 -16.5 4.5t-1.5 15.5l4 35q3 21 22 21h54q72 0 111 36.5t59 108.5l274 989q4 15 -1.5 22t-15 4t-16.5 -13l-839 -1186q-23 -35 -51 -32t-31 46l-117 1153q-2 19 -8 26.5t-13 2.5t-12 -19l-336 -993q-17 -50 -17 -83q0 -62 62 -62h72q17 0 14 -21l-6 -39 q-3 -16 -24 -16q-7 0 -34.5 1.5t-74.5 3t-102 1.5q-69 0 -134 -3l-65 -3q-12 0 -12 11v5z" />
<glyph unicode="N" horiz-adv-x="1527" d="M-31 16l6 37q3 17 19 17h55q73 0 114 46.5t79 164.5l282 901q8 25 8 45q0 25 -12 43q-22 32 -114 33h-78q-23 0 -17 24l8 31q3 12 7.5 16t15.5 4q5 0 44 -1.5t119.5 -3t188.5 -1.5q11 0 18.5 -6t10.5 -11.5t7.5 -18.5t6.5 -17l441 -983q10 -22 16 -22q10 0 35 69l268 801 q11 31 11 54q0 20 -8 34q-18 30 -68 31h-72q-14 0 -19 5t-4 17l6 37q3 16 21 16q7 0 36 -1.5t81 -3t116 -1.5q63 0 117.5 3t59.5 3q19 0 19 -17q0 -4 -1 -9l-6 -33q-2 -16 -19 -16h-51q-41 0 -64 -21.5t-48 -91.5l-398 -1137q-17 -50 -41.5 -51.5t-42.5 39.5l-487 1087 q-9 20 -20 20t-17 -22l-262 -866q-19 -59 -19 -101q-1 -23 5 -40q16 -49 84 -49h79q10 0 15.5 -6t3.5 -15l-6 -39q-3 -10 -7.5 -13t-17.5 -3q-5 0 -39 1.5t-93.5 3t-125.5 1.5q-62 0 -114.5 -1.5t-81 -3t-33.5 -1.5q-17 0 -17 17v5z" />
<glyph unicode="O" horiz-adv-x="1452" d="M209 590q0 154 59.5 303.5t156.5 261t229.5 180t271.5 68.5q234 0 386 -171t152 -444q0 -115 -30.5 -231t-92.5 -222t-147.5 -187.5t-204 -130t-252.5 -48.5q-222 0 -356 140q-172 175 -172 481zM365 457q0 -104 29 -185.5t77 -128.5t103.5 -70.5t115.5 -23.5 q162 0 306 131t226.5 332.5t82.5 409.5q0 172 -88 281.5t-252 109.5q-88 0 -158 -37.5t-143 -110.5q-132 -132 -215.5 -337.5t-83.5 -370.5z" />
<glyph unicode="P" horiz-adv-x="1208" d="M41 14l4 35q3 21 23 21h43q75 0 107.5 41t53.5 122l244 926q8 29 10.5 50t-1.5 42.5t-22.5 33t-51.5 11.5h-97q-14 0 -10 21l10 39q3 10 8.5 13t20.5 3q7 0 205.5 3t222.5 3q158 0 247 -19t159 -77q69 -58 95.5 -117t26.5 -161q0 -64 -21 -125t-67.5 -117.5t-114 -99 t-167 -68t-219.5 -25.5q-130 0 -207 25l-101 -375q-10 -40 -10 -69q0 -80 76 -80h78q20 0 16 -21l-6 -39q-2 -9 -7 -12.5t-18 -3.5q-7 0 -41.5 1.5t-96.5 3t-134 1.5q-83 0 -162 -3t-80 -3q-16 0 -16 15v5zM557 668q47 -33 174 -33q110 0 195.5 35.5t134.5 93t73.5 123 t24.5 133.5q0 70 -23.5 124t-58.5 85t-83.5 51t-92.5 26.5t-90 6.5q-66 0 -80 -4z" />
<glyph unicode="Q" horiz-adv-x="1515" d="M209 -248q0 28 50 65t122 69.5t143 58.5t123 39v8q-188 35 -304 187t-116 401q0 101 29.5 204t74.5 184t91 141.5t88 96.5q48 41 73.5 61.5t75 51.5t92.5 46t108.5 26.5t141.5 11.5q110 0 204.5 -36t167 -106t114 -181t41.5 -251q0 -150 -65 -318.5t-177 -301.5 q-76 -89 -178 -145t-190 -78q-140 -34 -284 -79.5t-200 -74.5l4 -10q135 12 189 12q83 0 151 -16t116 -46t79 -59.5t61 -68.5q32 -44 60 -65t61 -21q37 0 57.5 21t20.5 46q0 12 -12 39q-17 31 -17 68q0 32 24 56t60 24q39 0 57.5 -27.5t18.5 -52.5q0 -74 -45.5 -132 t-108 -85t-125.5 -27q-117 0 -204 94q-79 85 -172.5 127.5t-262.5 42.5q-84 0 -108 -24q-45 -45 -80 -45q-24 0 -36.5 19.5t-12.5 49.5zM395 477q0 -84 15 -152.5t38 -111.5t57 -75.5t64 -48.5t67 -25t59 -11t46 -2q92 0 184 50.5t168 139t135.5 201t92.5 245t33 261.5 q0 170 -91 275.5t-243 105.5q-95 0 -183 -44t-155 -116t-122.5 -162.5t-90.5 -186t-54.5 -184.5t-19.5 -159z" />
<glyph unicode="R" horiz-adv-x="1421" d="M31 10l8 43q3 17 20 17h39q95 0 127 102l326 1022q12 30 12 52q0 14 -5 24q-13 26 -66 26h-80q-20 0 -17 17l11 43q2 9 7 12.5t19 3.5q95 0 201.5 1.5t177.5 3t80 1.5q463 0 463 -293q0 -99 -65.5 -186.5t-170 -141.5t-225.5 -69v-4q8 -3 15.5 -7t14.5 -10.5t13 -12 t12.5 -15t10.5 -14.5t10.5 -16.5t9 -16t9 -16.5t7.5 -15q1 -2 19.5 -40t41 -83.5t48.5 -96.5t48 -93.5t32 -59.5q40 -65 78 -91.5t102 -26.5h51q16 0 16 -14q0 -3 -1 -7l-7 -39q-3 -16 -20 -16l-47 3q-46 3 -105 3q-53 0 -100.5 -3t-50.5 -3q-11 0 -22 13t-34 52 q-17 28 -122 257.5t-113 244.5q-9 17 -20 31t-21 24t-25 18t-25 13.5t-28.5 9t-27 5.5t-28.5 3t-26 1h-27h-24l-145 -449q-16 -53 -16 -85q0 -20 7 -32q17 -30 84 -30h84q18 0 15 -17l-6 -47q-2 -12 -25 -12q-5 0 -42 1.5t-103 3t-142 1.5q-72 0 -148 -3t-77 -3 q-13 0 -13 11q0 2 1 5zM578 731q7 0 52 -1h38h22q16 0 57 3t67.5 8.5t65 15.5t74.5 25q95 38 155 118.5t60 184.5q0 36 -16.5 72.5t-51.5 73t-101.5 59.5t-155.5 23q-59 0 -84 -2z" />
<glyph unicode="S" horiz-adv-x="1032" d="M117 68l151 446q4 11 23 8l20 -6q19 -8 15 -22q-17 -76 -17 -139q1 -31 5 -59q12 -84 54 -139t92.5 -81.5t100.5 -26.5q99 0 168.5 70t69.5 172q0 33 -9 65t-20 55t-34 53t-38 46.5t-45.5 48.5t-44.5 47q-34 37 -42 46t-37 42t-37 44.5t-30 42t-29 47t-20.5 45.5t-18 53 t-9 54t-4.5 62q0 57 22.5 118.5t64 116.5t110.5 90.5t151 35.5q110 0 242 -92q18 -11 28 -11q20 0 33 72q3 9 21 6l26 -2q18 -3 15 -14l-74 -389q-3 -12 -16 -12l-29 2q-10 2 -15 6t-4 12q5 21 2 54t-8 71t-23 76.5t-42 70t-64.5 51t-91.5 19.5q-91 0 -147 -67.5t-56 -155.5 q0 -37 8 -70.5t18 -56.5t32.5 -52t36 -43t45.5 -45.5t45 -44.5l17 -17q38 -37 58 -58.5t53 -64.5t50 -80t31 -91t14 -112q0 -97 -32.5 -175t-86 -125t-118.5 -71.5t-134 -24.5q-89 0 -157.5 40.5t-143.5 115.5q-12 12 -25 11t-22 -15q-20 -26 -43 -78q-6 -13 -20 -6l-27 10 q-9 4 -9 13q0 4 1 8z" />
<glyph unicode="T" horiz-adv-x="1359" d="M219 1051q17 32 84.5 180.5t71.5 159.5q3 8 4 11t4 6t8 3q3 0 33 -9.5t107 -19.5t194 -10h612q119 0 197 21q15 3 27.5 8t18.5 7.5t7 2.5q13 0 13 -14q0 -3 -1 -6q-5 -34 -13 -193q-6 -108 -6 -168q0 -28 1 -45q0 -9 -3 -11.5t-13 -4.5l-27 -2q-13 -1 -18.5 4t-8.5 22 q-8 56 -31.5 143t-43.5 128q-39 16 -147.5 29.5t-166.5 13.5h-43l-338 -1061q-21 -63 -21 -102q0 -21 6 -35q18 -39 103 -39h80q19 0 15 -21l-9 -39q-3 -16 -26 -16q-7 0 -44 1.5t-106.5 3t-156.5 1.5q-65 0 -129 -1.5t-104 -3t-46 -1.5q-11 0 -14.5 4.5t-1.5 15.5l6 39 q3 17 22 17h56q89 0 129.5 44t79.5 167l327 1026h-53q-235 0 -369 -41q-56 -48 -118 -121.5t-91 -120.5q-7 -12 -26 -6l-27 12q-7 4 -7 10q0 5 3 11z" />
<glyph unicode="U" horiz-adv-x="1497" d="M260 344q0 102 43 256l174 576q13 42 13 69q0 17 -5 29q-14 29 -65 29h-74q-17 0 -14 16l10 43q2 9 7 12.5t20 3.5q7 0 38 -1.5t85.5 -3t119.5 -1.5q73 0 132 1.5t89.5 3t34.5 1.5q22 0 19 -20l-8 -39q-3 -16 -21 -16h-65q-30 0 -49.5 -5.5t-43 -33t-38.5 -78.5 l-168 -547q-1 -5 -10.5 -37t-16.5 -59t-15 -63.5t-13 -70t-5 -59.5q0 -73 27.5 -128.5t65.5 -85t86.5 -47.5t82.5 -23t62 -5q67 0 141.5 29t124.5 74q72 64 125 160.5t104 263.5l181 590q10 32 10 56q0 69 -86 69h-78q-13 0 -16.5 4t-1.5 12l6 39q3 11 8 15.5t18 4.5 q7 0 39.5 -1.5t89 -3t121.5 -1.5q52 0 94 1.5t64.5 3t28.5 1.5q13 0 17 -4q2 -3 2 -9q0 -3 -1 -7l-6 -39q-3 -16 -23 -16h-43q-46 0 -72 -24t-46 -71l-201 -637q-92 -297 -240 -449.5t-381 -152.5q-140 0 -245.5 40t-168.5 126t-63 209z" />
<glyph unicode="V" horiz-adv-x="1253" d="M295 1317l12 41l4 12t5.5 5.5t13.5 2.5q8 0 43.5 -1.5t94.5 -3t124 -1.5q66 0 124.5 1.5t92.5 3t41 1.5q14 0 19 -4t3 -12l-8 -43q-2 -9 -6 -12.5t-16 -3.5h-66q-56 0 -84 -21t-35 -70l-135 -868q-4 -25 1.5 -34.5t18.5 -2t29 28.5l627 833q40 53 40 92q0 42 -44 42h-64 q-14 0 -18.5 5.5t-1.5 18.5l8 35q3 16 27 16q1 0 73.5 -3t147.5 -3q70 0 132.5 3t64.5 3q14 0 19 -6q4 -4 4 -9q0 -2 -1 -5l-8 -35q-6 -20 -18 -20h-62q-51 0 -101 -42t-112 -120l-889 -1147q-26 -35 -59 -35t-33 47q0 11 2 25l168 1159q3 16 3 30q0 83 -93 83h-64 q-13 0 -19 3.5t-5 10.5z" />
<glyph unicode="W" horiz-adv-x="1789" d="M307 49l182 1145q4 25 4 44q0 26 -7 40q-13 26 -62 25h-49q-13 0 -17.5 4t-3.5 16l8 39q3 16 25 16q6 0 36.5 -1.5t78 -3t94.5 -1.5q56 0 107 1.5t82.5 3t39.5 1.5q13 0 18 -4.5t3 -15.5l-8 -39q-3 -16 -21 -16h-45q-52 0 -74 -24t-34 -91l-162 -885q-4 -20 8 -18 q9 1 22 14q21 21 274.5 371.5t289.5 402.5q67 97 67 170q0 24 -17 42t-46 18h-35q-9 0 -13 3t-3 9l10 47q2 9 6.5 12.5t17.5 3.5q6 0 29.5 -1.5t63 -3t84.5 -1.5q69 0 130 3t62 3q24 0 18 -20l-10 -39q-5 -16 -22 -16h-45q-33 0 -49 -22.5t-23 -80.5l-109 -901 q-3 -19 3.5 -23.5t17.5 5.5q21 18 96 133.5t129 204.5t84 139q209 355 238 434q12 28 12 52q0 13 -4 25q-10 34 -49 34h-33q-15 0 -12 16l8 39q3 20 22 20q5 0 60 -3t112 -3q66 0 128 3t67 3q21 0 18 -20l-8 -39q-3 -16 -16 -16h-35q-72 0 -119 -60q-14 -19 -185.5 -302 t-193.5 -318q-53 -87 -209 -314.5t-215 -296.5q-2 -2 -11 -12.5t-13.5 -15t-12.5 -12t-15.5 -10.5t-14.5 -3q-34 0 -34 44q0 8 1 17l98 918q3 21 -5 24.5t-19 -10.5q-1 -1 -54 -73.5t-122 -166t-156.5 -212t-162.5 -219t-134.5 -178.5t-77.5 -97q-2 -2 -7.5 -8t-7.5 -8 l-7 -7l-7 -7t-7 -5.5t-8 -5t-8 -3.5t-9.5 -2.5t-9.5 -0.5q-21 0 -21 43q0 19 4 47z" />
<glyph unicode="X" horiz-adv-x="1415" d="M-66 10l9 39q2 7 3 9.5t3 6t5.5 4.5t8.5 1h45q34 0 67.5 13t51 25.5t52 41.5t46.5 38q26 20 262.5 243t282.5 269l-166 476q-24 67 -49.5 97t-79.5 30h-53q-19 0 -16 20l6 35q1 8 2.5 11.5t7 6t16.5 2.5q3 0 80 -3t135 -3q76 0 147 3t72 3q22 0 19 -20l-6 -39 q-3 -16 -19 -16h-39q-31 0 -45.5 -16.5t-14 -39.5t10.5 -51l131 -385q59 53 216.5 213.5t177.5 192.5q19 28 5 57t-55 29h-30q-11 0 -14.5 3t-2.5 13l6 39q2 12 7 16t18 4q4 0 75 -3t134 -3q65 0 127 3t63 3q13 0 18 -4q4 -3 4 -8q0 -2 -1 -4l-6 -43q-2 -9 -5.5 -12.5 t-13.5 -3.5h-35q-55 0 -161 -78q-11 -8 -122.5 -116.5t-233 -227t-146.5 -140.5l203 -565q17 -46 56.5 -76t84.5 -30h47q16 0 16 -21l-2 -35q-2 -13 -5.5 -16.5t-16.5 -3.5q-7 0 -34 1.5t-74.5 3t-104.5 1.5q-78 0 -156.5 -3t-81.5 -3q-17 0 -21 5t-1 19l6 35q4 17 18 17h37 q42 0 55 24.5t3 57.5q-4 13 -41.5 122t-79.5 231t-45 130q-3 -3 -201 -203t-252 -268q-21 -24 -21 -49q-1 -7 1 -13q8 -32 49 -32h39q14 0 10 -21l-4 -35q-3 -20 -25 -20q-8 0 -39 1.5t-82 3t-108 1.5q-59 0 -133.5 -3t-77.5 -3q-9 0 -14.5 4.5t-4.5 11.5z" />
<glyph unicode="Y" horiz-adv-x="1105" d="M94 1319l8 43q1 10 5.5 13t15.5 3l67 -3q67 -3 148 -3q69 0 125.5 1.5t87.5 3t39 1.5q21 0 18 -16l-4 -43q-3 -16 -18 -16h-54q-37 0 -55 -15t-17.5 -37t7.5 -47l190 -569q10 -35 31 -8q61 83 211.5 303.5t165.5 261.5q11 31 11 53q0 19 -8 31q-18 27 -79 27h-41 q-17 0 -14 20l4 39q1 10 6 13t19 3q4 0 79.5 -3t145.5 -3q67 0 132.5 3t68.5 3q13 0 17 -4q4 -3 4 -7q0 -3 -1 -5l-6 -39q-3 -20 -17 -20h-38q-50 0 -83.5 -23t-76.5 -78q-49 -63 -432 -604q-29 -40 -39.5 -57t-23.5 -49t-23 -76l-52 -232q-7 -31 -7 -52t5 -33t18 -18.5 t27 -8.5t37 -2h62q17 0 14 -17l-6 -43q-3 -16 -23 -16l-78 3q-78 3 -169 3q-75 0 -133 -1.5t-88 -3t-35 -1.5q-10 0 -14 3.5t-3 12.5l8 43q0 17 19 17h59q66 0 93.5 27t39.5 81l68 303q4 20 0 57t-10 54l-221 633q-27 78 -125 78h-47q-18 0 -15 16z" />
<glyph unicode="Z" horiz-adv-x="1386" d="M124 28q2 10 9 17l1079 1253q-494 0 -624 -14q-67 -7 -119 -52.5t-76 -98.5q-9 -14 -18 -11l-29 11q-11 4 -8 16l78 233q2 7 7.5 14t12.5 7q14 0 35 -12q10 -5 127 -12t168 -7h664q16 0 22 -8q4 -6 4 -13v-6q-2 -10 -10 -18l-1071 -1251q316 0 450 4.5t232 23.5 q79 14 126.5 55t98.5 126q8 13 21 6l28 -15q11 -4 6 -20l-96 -268q-5 -13 -18 -13q-17 0 -39 9q-24 7 -170 11.5t-217 4.5h-647q-16 0 -22 9q-4 6 -4 13q-1 3 0 6z" />
<glyph unicode="[" horiz-adv-x="663" d="M31 -375l499 1835q5 21 33 21h400q9 0 13.5 -4.5t2.5 -10.5l-14 -51q-3 -10 -29 -10h-262q-22 0 -29 -31l-461 -1681q-4 -21 13 -21h288q8 0 12 -3.5t3 -10.5l-13 -47q-1 -9 -7 -11.5t-23 -2.5h-416q-19 0 -10 28z" />
<glyph unicode="\" horiz-adv-x="655" d="M233 1356q-4 19 13 24l69 19q16 3 19 -10l274 -1369q5 -21 -10 -24l-70 -21q-8 -3 -11.5 2.5t-6.5 22.5z" />
<glyph unicode="]" horiz-adv-x="663" d="M-178 -389l14 51q2 10 21 10h270q22 0 29 31l460 1681q4 21 -12 21h-289q-17 0 -14 14l12 47q2 9 8 12t23 3h416q20 0 10 -29l-500 -1835q-5 -20 -32 -20h-400q-9 0 -13.5 4t-2.5 10z" />
<glyph unicode="^" d="M98 532l432 871h66l434 -871h-133l-336 672h-10l-326 -672h-127z" />
<glyph unicode="_" d="M0 -154h1024v-102h-1024v102z" />
<glyph unicode="`" horiz-adv-x="481" d="M257 1193q-2 30 16.5 51.5t45.5 21.5q17 0 30.5 -7.5t19.5 -14.5t22 -27l172 -228q8 -8 0 -16l-14 -17q-8 -11 -19 0l-245 187q-26 20 -28 50z" />
<glyph unicode="a" horiz-adv-x="931" d="M70 111q0 109 57 241.5t141.5 241.5t190.5 183.5t196 74.5q104 0 146 -70l39 56q10 14 20 14h72q6 0 8 -6v-4q0 -4 -2 -8q-26 -56 -85 -212t-69 -188q-98 -286 -98 -307q0 -25 23 -25q16 0 71 51.5t72 73.5q11 11 16 4l19 -20q9 -9 4 -16q-10 -17 -44 -51t-79.5 -71.5 t-99.5 -65t-95 -27.5q-43 0 -43 34q0 37 99 312l-11 4q-48 -72 -119 -149t-161.5 -139t-157.5 -62q-41 0 -75.5 34t-34.5 97zM219 160q0 -72 55 -72q47 0 139 87.5t166 182.5t95 138q49 100 49 170q0 50 -22 85t-74 35q-67 0 -142.5 -70.5t-132.5 -169.5t-95 -206t-38 -180z " />
<glyph unicode="b" horiz-adv-x="913" d="M72 115q0 49 30 118q259 601 424 994q15 37 15 55q0 14 -16 22.5t-42 8.5h-59q-25 0 -18 20l12 33q5 16 20 16h260q13 0 17 -11t-2 -25l-330 -744l12 -4q81 103 186 178.5t185 75.5q74 0 109.5 -42t35.5 -114q0 -102 -65 -241t-203 -277q-95 -93 -197.5 -145.5 t-236.5 -52.5q-62 0 -99.5 38.5t-37.5 96.5zM219 137q0 -55 23 -71.5t65 -16.5q60 0 140.5 59.5t150 147.5t118 200.5t48.5 207.5q0 44 -20 66t-50 22q-57 0 -156 -82t-178 -193q-57 -80 -99 -186t-42 -154z" />
<glyph unicode="c" horiz-adv-x="618" d="M88 168q0 140 65.5 299t176 272t223.5 113q63 0 90 -37.5t27 -77.5q0 -35 -27 -60.5t-57 -25.5q-42 0 -54 45q-5 20 -22.5 37t-40.5 17q-38 0 -77 -36.5t-73 -105.5q-38 -82 -63 -192.5t-25 -165.5q0 -101 23 -135.5t59 -34.5q52 0 102.5 37t78.5 73q10 14 18 9l23 -21 q12 -8 2 -22q-13 -19 -41 -46t-67.5 -57.5t-90 -51.5t-96.5 -21q-62 0 -108 46.5t-46 141.5z" />
<glyph unicode="d" horiz-adv-x="964" d="M76 115q0 124 79 286.5t203 284.5q174 166 322 166q71 0 129 -68l158 449q12 32 -0.5 56t-51.5 24h-63q-11 0 -14.5 4.5t-1.5 9.5l12 43q3 12 24 12h252q20 0 26 -12q3 -5 3 -11q0 -7 -4 -13q-29 -67 -214.5 -568.5t-209.5 -584.5q-14 -44 -14 -68q0 -27 22 -27t75 44 t69 63q13 10 22 -2l21 -21q10 -7 0 -20q-27 -34 -128.5 -108t-170.5 -74q-56 0 -56 47q0 63 90 297l-16 4q-83 -132 -208.5 -240t-223.5 -108q-55 0 -93 36t-38 99zM225 150q0 -30 18 -48t42 -18q59 0 155 89.5t170 191.5q52 71 92.5 151.5t40.5 134.5q0 135 -108 135 q-68 0 -144.5 -73t-133.5 -174.5t-94.5 -209.5t-37.5 -179z" />
<glyph unicode="e" horiz-adv-x="714" d="M90 180q0 127 73.5 275t188.5 260q56 56 131.5 96.5t143.5 40.5q56 0 86 -33.5t30 -75.5q0 -75 -52 -148.5t-138 -117.5q-145 -72 -297 -84q-27 -67 -27 -188q0 -62 35.5 -95.5t71.5 -33.5q70 0 133.5 43.5t99.5 101.5q8 13 19 2l22 -18q15 -9 2 -19q-23 -32 -52.5 -63.5 t-72 -66t-96.5 -55.5t-110 -21q-99 0 -145 49t-46 151zM272 453h9q21 1 54 7q40 8 88 28t90 47t70.5 66.5t28.5 82.5q0 33 -16.5 55.5t-48.5 22.5q-46 0 -95.5 -37.5t-86 -89.5t-61.5 -102t-32 -80z" />
<glyph unicode="f" horiz-adv-x="571" d="M-424 -487q0 36 24.5 62t63.5 26q40 0 65 -30t31 -63q3 -15 13 -24.5t22 -9.5q76 0 157.5 137t162.5 414l207 696h-183q-16 0 -10 20l8 35q6 21 25 21h178q54 155 109.5 269.5t130.5 197.5q49 56 130 97.5t173 41.5q82 0 133 -39.5t51 -81.5q0 -45 -24.5 -69.5 t-57.5 -24.5q-46 0 -65.5 21.5t-24.5 60.5q-2 20 -22.5 39.5t-61.5 19.5q-43 0 -79.5 -17t-68.5 -62.5t-52 -75.5t-47 -107.5t-35.5 -104t-34.5 -115.5q-4 -11 -5.5 -17.5t-4.5 -15.5t-5 -17h199q18 0 12 -25l-10 -37q-2 -14 -23 -14h-194q-14 -44 -61 -203.5t-95.5 -311 t-93.5 -267.5q-50 -127 -99.5 -221t-109 -170.5t-130 -116t-150.5 -39.5q-61 0 -104.5 35.5t-43.5 85.5z" />
<glyph unicode="g" horiz-adv-x="884" d="M-106 -340q0 42 27.5 83.5t57.5 68.5t89 60t83 44t78 34q8 4 11 5q-78 57 -78 119q0 30 36.5 61.5t137.5 89.5q-54 14 -107 76t-53 160q0 47 15.5 100t47 104.5t74 93t102 67.5t124.5 26q67 0 110.5 -30.5t63.5 -65.5q24 24 74 49.5t100 25.5q45 0 65.5 -26.5t20.5 -52.5 q0 -23 -16 -43.5t-50 -20.5q-40 0 -67 31q-14 14 -39 14q-14 0 -34 -9t-26 -19q6 -15 11.5 -53t5.5 -62q0 -33 -7.5 -72t-28 -88t-52 -90t-85 -74t-120.5 -45q-54 -9 -62 -14q-35 -14 -70.5 -44t-35.5 -54q0 -31 35 -56q15 -11 51 -34.5t98 -63.5t117 -76q85 -56 118.5 -108 t33.5 -113q0 -16 -6 -41t-33 -66.5t-70.5 -75t-129 -58.5t-198.5 -25q-106 0 -202.5 36t-156.5 98.5t-60 133.5zM35 -326q0 -67 52 -118.5t123.5 -76t143.5 -24.5q112 0 184 41t72 123q0 26 -10.5 51t-21.5 40.5t-36 36.5t-34 27.5t-35 24.5q-115 76 -180 117 q-258 -104 -258 -242zM307 408q0 -68 25 -104t71 -36q53 0 97.5 40.5t71 102.5t41 128.5t14.5 124.5q0 68 -24.5 102.5t-67.5 34.5q-58 0 -112.5 -66.5t-85 -157.5t-30.5 -169z" />
<glyph unicode="h" horiz-adv-x="956" d="M49 6q0 1 -0.5 2t0.5 2l469 1161q27 66 27 101q0 18 -19 29.5t-49 11.5h-63q-10 0 -16 5t-3 13l11 35q6 16 22 16h277q24 0 24 -24q0 -15 -18 -62l-322 -753l10 -8q36 51 65.5 89.5t72.5 84t82.5 74.5t88.5 49t97 20q68 0 104.5 -49t36.5 -123q0 -215 -141 -475 q-65 -123 -145 -197t-162 -74q-43 0 -74 27t-31 62q0 37 21.5 68.5t52.5 31.5q29 0 49 -19t23 -43q5 -41 34 -41q31 0 74.5 73.5t77.5 164.5q35 91 58.5 195t23.5 176q0 23 -2 40t-7.5 35.5t-19 28.5t-33.5 10q-38 0 -90.5 -32.5t-103.5 -83.5t-86.5 -91t-63.5 -75 q-74 -92 -135 -238l-86 -209q-5 -14 -28 -14h-89q-6 0 -9.5 2t-4.5 4z" />
<glyph unicode="i" horiz-adv-x="587" d="M133 600q6 10 40.5 46.5t86.5 85.5q52 50 114 86q59 35 102 34h5q20 0 34.5 -13t14.5 -38q0 -45 -69 -228l-119 -311q-37 -97 -37 -135q0 -29 23 -35q28 5 90.5 64.5t73.5 79.5q7 10 22 -5l16 -14q11 -14 5 -24q-7 -10 -24.5 -29t-54 -52.5t-76 -61.5t-92 -49t-100.5 -21 q-34 3 -34 51q0 33 24.5 107.5t95.5 262.5l60 160q37 102 37 121q0 27 -29 27q-10 0 -27 -11.5t-37 -30.5t-37.5 -36.5t-37 -38.5t-25.5 -27q-12 -12 -22 -2l-17 19q-8 6 -8 12q0 3 2 6zM412 1225q0 42 30 72t76 30q51 0 80 -29.5t29 -68.5q0 -33 -27 -68t-82 -35 q-31 0 -54 12t-33 29.5t-14.5 32t-4.5 25.5z" />
<glyph unicode="j" horiz-adv-x="555" d="M-354 -354q0 37 24.5 65.5t61.5 28.5q39 0 61.5 -26.5t26.5 -55.5q9 -59 51 -59q99 0 197 216q41 90 131 351q7 20 12 35l137 397q19 52 19 80q0 31 -23 31t-74 -40t-82 -71q-8 -8 -16 0l-20 23q-8 8 -2 16q17 19 52 50t86.5 70.5t111 67t106.5 27.5q22 0 32.5 -12.5 t10.5 -26.5q0 -62 -98 -326l-158 -417q-7 -22 -12.5 -37t-31 -76.5t-50 -108t-66.5 -110.5t-84.5 -106t-100 -72.5t-116.5 -30.5q-95 0 -140.5 38t-45.5 79zM453 1219q0 45 31 79.5t85 34.5q51 0 77 -32.5t26 -67.5q0 -45 -33.5 -76t-75.5 -31q-48 0 -79 28t-31 65z" />
<glyph unicode="k" horiz-adv-x="888" d="M41 23l483 1200q10 21 10 37t-10 28q-18 24 -73 25h-56q-17 0 -10 20l12 33q3 5 4.5 7t4.5 4.5t6.5 3.5t9.5 1h272q13 0 17.5 -12.5t-0.5 -21.5l-295 -711l10 -4q60 79 158 149t190 70q41 0 74 -27.5t33 -93.5q0 -46 -31 -96t-76 -91t-99 -78t-98 -60t-75 -35v-9 l133 -215q51 -84 102 -84q43 0 97 54q10 14 18 2l20 -23q7 -7 -2 -18q-11 -14 -30.5 -32t-61.5 -42t-80 -24q-75 0 -112 24t-74 96l-113 215q-10 19 -35 24q-11 2 -26 2q-18 0 -41 -3l-127 -324q-5 -14 -31 -14h-88q-13 0 -13 10q0 5 3 13zM315 387q17 -2 34 -2q79 0 163 41 q104 50 170 125.5t66 138.5q0 25 -17 43.5t-41 18.5q-36 0 -81 -22t-84.5 -55t-65 -57.5t-41.5 -42.5q-43 -49 -56 -75z" />
<glyph unicode="l" horiz-adv-x="520" d="M72 39q0 38 75 221l359 924q20 49 20 80q0 49 -51 49h-59q-20 0 -13 18l13 37q5 14 20 14h254q22 0 22 -17q0 -6 -3 -13l-426 -1084l-7 -17.5t-8.5 -21.5t-8.5 -23t-8 -24t-6 -22t-3 -20.5t0.5 -16t4.5 -11t11 -3.5q22 0 74.5 39.5t77.5 66.5q9 9 18 0l23 -25 q9 -9 -2 -20q-8 -13 -59.5 -56t-132.5 -88.5t-140 -45.5q-22 0 -33.5 13t-11.5 46z" />
<glyph unicode="m" horiz-adv-x="1497" d="M117 20l155 371q11 27 31.5 76t32.5 78.5t26 64t21 56t8 32.5q0 33 -20 33q-19 0 -86.5 -60t-85.5 -85q-10 -13 -25 2l-18 18q-10 10 -2 19q25 29 56 60t79 72.5t101.5 68t98.5 26.5q22 0 36 -16t14 -41q0 -22 -31.5 -101.5t-70 -168.5t-44.5 -105l10 -2q43 67 92 131 t116 138t139 119.5t133 45.5q46 0 68 -27t22 -61q0 -80 -117 -354l10 -2q45 68 77 114t86.5 114.5t100 110.5t101.5 73.5t106 31.5q44 0 71.5 -30.5t27.5 -67.5q0 -43 -20 -101.5t-79 -200.5q-17 -41 -26 -63q-10 -25 -26.5 -65t-24.5 -60.5t-17.5 -46t-13.5 -41t-4 -26.5 q0 -27 22 -27q24 0 82 59t80 88q9 16 25 0l16 -16q6 -6 6 -14q0 -4 -2 -9q-3 -7 -40 -45.5t-88.5 -85t-115.5 -83.5t-110 -37q-16 0 -26.5 13.5t-10.5 35.5q0 33 29.5 113.5t97.5 246.5q8 19 12 29l21 51t19.5 48t16 40.5t15 39t11 32t9 31.5t4.5 25t2 24q0 39 -43 39 q-49 0 -170.5 -130.5t-224.5 -279.5q-2 -3 -20 -28.5t-35 -55t-29 -61.5l-69 -181q-5 -12 -29 -12h-82q-13 0 -17.5 3.5t-0.5 12.5l139 340q6 14 19 46.5t19.5 48t17.5 44t17 44.5t15 39.5t13.5 38.5t9 32t6.5 29.5t2 21.5q0 41 -41 41q-49 0 -167 -119t-214 -253 q-72 -100 -103 -174l-73 -183q-8 -12 -33 -12h-78q-14 0 -14 11q0 4 2 9z" />
<glyph unicode="n" horiz-adv-x="1062" d="M125 18l145 379q107 277 107 310q0 34 -31 34q-26 0 -79.5 -46.5t-92.5 -90.5q-9 -9 -20 2l-19 19q-11 11 -4 20q14 17 32.5 36.5t54.5 52t72 57t83 43t88 18.5q32 0 48.5 -18.5t16.5 -42.5q0 -28 -21.5 -91t-50.5 -134.5t-32 -80.5l8 -4q21 33 54.5 76.5t84 96.5t103 96 t113 72.5t112.5 29.5q46 0 74 -22.5t28 -61.5q0 -57 -23.5 -128t-77.5 -203q-3 -7 -4.5 -11t-4 -9.5t-4.5 -10.5q-9 -22 -23 -56t-22 -54t-19 -47t-17 -44t-12.5 -34.5t-9 -29t-2.5 -18.5q0 -10 7 -18.5t18 -8.5q21 0 70.5 38t76.5 67q13 10 23 -4l14 -17q11 -11 2 -22 q-33 -43 -135.5 -110.5t-191.5 -67.5q-50 0 -50 40q0 17 19.5 69.5t57 146.5t61.5 161q7 18 37 95t47.5 128.5t17.5 71.5q0 47 -51 47q-59 0 -181.5 -111t-191.5 -222q-69 -110 -123 -256l-51 -138q-6 -12 -29 -12h-80q-17 0 -21 4q-2 2 -2 6q0 3 1 8z" />
<glyph unicode="o" horiz-adv-x="813" d="M106 244q0 97 35.5 204t95.5 197t149 148.5t187 58.5q101 0 160.5 -67t59.5 -173q0 -69 -20.5 -152t-62 -167.5t-97 -154.5t-133.5 -114t-163 -44q-87 0 -149 74.5t-62 189.5zM193 182q0 -48 27.5 -76t66.5 -28q61 0 125.5 45.5t116 115t94 147t65.5 147t23 110.5v6 q0 45 -26 76q-28 33 -77 33q-67 0 -145 -62t-152 -182q-118 -187 -118 -332z" />
<glyph unicode="p" horiz-adv-x="944" d="M-236 -602l13 41q4 16 14 16h47q58 0 90 36.5t66 129.5l401 1104q-67 -20 -140 -77t-114 -107q-9 -11 -18 -2l-23 20q-10 11 -2 19q143 171 326 239l65 191q7 20 27 28l127 45q4 2 14 2q7 0 7 -8q0 -9 -5 -16l-94 -213q24 4 41 4q14 2 41 2q93 0 159 -41t95 -101t29 -130 q0 -243 -244 -426q-72 -53 -189 -97t-237 -57l-145 -406q-18 -55 -18 -86q0 -16 5 -25q13 -28 78 -28h58q7 0 11.5 -5.5t2.5 -10.5l-14 -41q-8 -12 -25 -12q-7 0 -34 1.5t-75 3t-106 1.5q-62 0 -111 -1.5t-75.5 -3t-32.5 -1.5q-18 0 -15 12zM285 61q94 15 182.5 55.5 t160 99.5t115 142t43.5 174q0 111 -55 173.5t-129 62.5q-23 0 -65 -6z" />
<glyph unicode="q" horiz-adv-x="929" d="M104 215q0 26 8 72t30 123t75.5 166t130.5 161q123 115 262 115q42 0 80.5 -13.5t56.5 -26t44 -34.5q14 -10 28 0l105 68q18 12 34 12q14 0 14 -14q0 -9 -5 -23l-469 -1261q-14 -37 -14 -60q0 -45 48 -45h58q17 0 14 -16l-12 -37q-6 -16 -23 -16q-2 0 -68 3t-132 3 q-52 0 -99.5 -1.5t-76 -3t-35.5 -1.5q-10 0 -14.5 4t-2.5 12l9 37q5 16 18 16h51q58 0 89.5 21.5t56.5 85.5l204 526h-8q-117 -108 -256 -108q-201 0 -201 235zM229 162q0 -59 26 -94t71 -35q63 0 123 39.5t105 102t83.5 136t63 143.5t38 123.5t13.5 77.5q0 52 -31.5 85.5 t-79.5 33.5q-80 0 -164 -84q-102 -102 -175 -259.5t-73 -268.5z" />
<glyph unicode="r" horiz-adv-x="729" d="M100 633q-3 3 -3 7t3 9q19 28 47.5 59t68.5 65.5t90.5 56.5t99.5 22q29 0 43 -20.5t14 -51.5q2 -37 -74 -291l10 -4q32 67 84.5 146.5t124.5 150t125 70.5q44 0 70 -25t26 -67q0 -39 -24.5 -66.5t-54.5 -27.5q-32 0 -52 20q-25 25 -53 25q-62 0 -252 -312 q-42 -66 -80 -178l-67 -207q-3 -10 -8 -12t-19 -2h-82q-11 0 -16 5.5t-2 12.5l114 332q101 314 101 359q0 13 -10.5 21.5t-24.5 8.5q-27 0 -79 -45t-83 -82q-6 -10 -16 0z" />
<glyph unicode="s" horiz-adv-x="602" d="M25 94q0 24 19.5 46t49.5 22q61 0 84 -66q10 -31 24.5 -44t49.5 -13q46 0 80.5 36t34.5 89q0 39 -15 80.5t-40.5 90.5t-32.5 66q-3 6 -15.5 32t-21 47t-16.5 55q-7 30 -7 60v7q0 93 76.5 171.5t181.5 78.5q56 0 101 -25t46 -79q0 -27 -20.5 -46.5t-44.5 -19.5 q-50 0 -70 49q-2 4 -5.5 15t-6 16.5t-8 12.5t-13.5 10t-20 3q-34 0 -67 -38.5t-33 -90.5q0 -34 15 -73t36 -75.5t23 -41.5q1 -3 12 -22.5t20.5 -39.5t20.5 -48t17.5 -60t6.5 -63q0 -116 -79.5 -186t-190.5 -70q-88 0 -140 31.5t-52 82.5z" />
<glyph unicode="t" horiz-adv-x="643" d="M86 29q0 37 23 96l258 596h-144q-17 0 -12 16l16 45q6 15 23 15h147l107 237q11 23 33 31q46 12 92 35q24 12 30 12q23 0 3 -41l-136 -274h209q11 0 11 -10q0 -5 -3 -13l-18 -43q-3 -10 -18 -10h-209l-199 -461q-47 -107 -47 -131q0 -35 27 -35q38 0 111 54t93 77 q8 11 19 0l22 -24q8 -8 2 -19q-13 -16 -49 -46t-88 -66.5t-117 -63t-120 -26.5q-66 0 -66 49z" />
<glyph unicode="u" horiz-adv-x="991" d="M123 63q1 19 7.5 45t22 65.5t29.5 72.5t41 95.5t45 104.5q13 30 30.5 71t28.5 66t21.5 51.5t15.5 44t5 28.5q0 13 -9.5 20.5t-23.5 7.5q-25 0 -82 -45.5t-78 -71.5q-9 -9 -18 0l-19 19q-10 6 2 18q9 11 38 39t74.5 65.5t102 65t101.5 27.5q28 0 43.5 -23t15.5 -51 q0 -66 -133 -354q-109 -240 -109 -297q0 -17 9.5 -26t25.5 -9q38 0 96.5 42t116 103.5t102 116t70.5 92.5q62 91 94 175l72 196q5 14 29 14h84q19 0 19 -12q0 -3 -1 -6l-157 -426q-86 -233 -86 -266q0 -13 2.5 -16.5t13.5 -8.5q21 0 83.5 52t76.5 75q8 13 18 0l21 -20 q8 -8 0 -19q-3 -5 -23.5 -24.5t-58 -50.5t-78.5 -59.5t-89.5 -49t-88.5 -20.5q-39 0 -39 47q0 11 24 76t65 168t42 106l-12 6q-41 -59 -89 -117.5t-118 -128.5t-149 -113.5t-150 -43.5q-31 0 -53 23.5t-23 59.5z" />
<glyph unicode="v" horiz-adv-x="1073" d="M104 545q0 54 26 110t54 88q22 24 35 35.5t41 29.5t67 26t91 8q92 0 150 2.5t80 5t26 2.5q22 0 30.5 -9.5t-4.5 -29.5q-23 -29 -57 -79.5t-78.5 -128t-75 -166.5t-30.5 -160q0 -97 42 -144t103 -47q84 0 168 77.5t135 190t51 215.5q0 69 -16 107q-4 10 -11 24.5 t-10.5 22.5t-6.5 18t-3 19q0 42 24.5 66t68.5 24q39 0 59 -33t20 -76q0 -83 -36 -216.5t-99 -241.5q-74 -128 -190 -216.5t-236 -88.5q-84 0 -143.5 53.5t-59.5 156.5q0 128 89 290.5t200 291.5l-14 6q-29 -25 -91 -40t-100 -15h-106q-49 0 -80 -30.5t-33 -76.5 q1 -17 9.5 -30t15 -17t20.5 -12q45 -26 45 -61q0 -28 -19 -48t-56 -20q-36 0 -65.5 28.5t-29.5 88.5z" />
<glyph unicode="w" horiz-adv-x="1509" d="M111 575q0 84 90 185q23 26 67 48.5t88 22.5h150l188 13q22 2 28 -10t-11 -31q-37 -41 -90 -128.5t-102.5 -211t-49.5 -211.5q0 -70 34.5 -110t88.5 -40q69 0 132 37.5t107 106.5q47 74 82 262q6 34 16 123t19 129q20 65 92 65q26 0 39 -14t13 -35q0 -16 -13 -55 t-45 -125t-49 -135q-2 -5 -7.5 -21.5t-7 -22t-6.5 -19.5t-6.5 -20t-5 -18t-5 -19t-4 -17t-3.5 -17.5t-1.5 -16t-0.5 -16.5q0 -68 53.5 -118t126.5 -50q52 0 102.5 29t92 81.5t67 135.5t25.5 183q0 28 -10 69.5t-21 54.5l-9 9q-9 8 -12.5 12t-12 13.5t-13 17t-10 18t-8 21 t-2.5 20.5q0 36 26 59t64 23q102 0 102 -211q0 -119 -36 -250t-103 -223q-30 -39 -51 -62.5t-60.5 -57.5t-87 -51t-102.5 -17q-85 0 -142.5 62.5t-64.5 125.5q-18 -23 -48 -51t-74 -61t-100.5 -54.5t-111.5 -21.5q-73 0 -129.5 55t-56.5 155q0 112 91 276q92 166 179 269 l-14 15q-22 -11 -70 -23t-80 -12h-162q-30 0 -51.5 -19.5t-21.5 -48.5q-1 -17 6.5 -30.5t12.5 -17t20 -13.5l6 -4q6 -3 8 -5t7.5 -6.5t8.5 -9t6.5 -10.5t5 -13.5t1.5 -15.5q0 -29 -20 -48t-58 -19q-33 0 -64.5 30.5t-31.5 89.5z" />
<glyph unicode="x" horiz-adv-x="964" d="M57 51q0 35 15 106.5t30 110.5q4 11 17 8l31 -8q11 -3 8 -16q-12 -36 -16.5 -63.5t-2.5 -43t8 -25.5t12.5 -13t14.5 -3q54 0 293 306l-88 258q-12 37 -37 37q-50 0 -129 -154q-6 -13 -20 -6l-29 14q-7 2 -4 16q4 13 27 54.5t57 93t77 90.5t78 39q34 0 54 -22.5t41 -90.5 l69 -235q28 36 79 103t81 104.5t53 60.5q80 80 142 80q27 0 43 -18.5t16 -45.5q0 -47 -16 -117t-39 -124q-7 -14 -21 -8l-24 8q-18 6 -15 16q26 77 26 117q0 43 -30 43q-14 0 -39 -19.5t-65 -65t-66 -77.5t-79 -97q-14 -17 -21 -26l96 -274q9 -26 23.5 -40.5t29.5 -14.5 q32 0 77.5 56t55.5 83q3 8 19 2l24 -12q14 -7 7 -21q-132 -237 -250 -237q-68 0 -95 88l-86 276q-148 -197 -206 -260q-95 -104 -150 -104q-76 0 -76 71z" />
<glyph unicode="y" horiz-adv-x="837" d="M-188 -512q0 36 25.5 59t56.5 25h13.5t13 -2.5t10 -3.5t10.5 -6t9 -6t10 -7.5t9 -7.5q28 -24 51 -24q40 0 97 43q78 58 137 134.5t88 141.5q17 41 17 93q0 11 -1 22q0 2 -8.5 114t-17 221t-20 223.5t-19.5 151.5q-12 58 -35 58q-25 0 -64 -61t-55 -105q-5 -10 -18 -6 l-29 12q-8 4 -2 18q58 121 104 181q74 96 142 96q47 0 68.5 -48t33.5 -183q32 -372 39 -607l8 2q47 75 118 220.5t91 214.5q0 1 6.5 22t9 31.5t7 32.5t6.5 44.5t2 47.5q0 49 -10 76q-23 52 -23 73q0 30 19.5 52t64.5 22q39 0 60.5 -30t21.5 -72q0 -62 -24.5 -148 t-48.5 -142.5t-64 -144.5q-78 -171 -219 -394t-264 -343q-39 -40 -79.5 -75.5t-109 -73t-123.5 -37.5q-56 0 -85 28.5t-29 67.5z" />
<glyph unicode="z" horiz-adv-x="976" d="M76 14q0 55 54 106.5t110 82.5l428 426l-9 8q-8 -1 -17 -1q-78 0 -154 51q-2 2 -7 5l-6 4q-3 2 -38.5 32t-66 46.5t-57.5 16.5q-30 0 -45.5 -12t-15.5 -25q0 -21 29 -37q26 -19 26 -60q0 -29 -18.5 -50t-48.5 -21q-35 0 -62.5 26.5t-27.5 73.5q0 25 11 52t33.5 53.5 t63 43.5t92.5 17q42 0 83.5 -11t65 -21t91.5 -42q101 -47 153 -47q53 0 76 74q11 35 39 64.5t66 29.5q19 0 29 -15.5t10 -33.5q0 -33 -26.5 -69t-52 -56.5t-48.5 -34.5l-478 -473l7 -10q44 0 91 -20.5t122 -69.5q12 -8 34 -22.5t31 -21t25.5 -16.5t25.5 -14t22 -9.5t23.5 -7 t22.5 -1.5q31 0 52.5 18.5t21.5 40.5q0 30 -13 57q-22 40 -22 66q0 33 20.5 53.5t46.5 20.5q40 0 62 -27.5t22 -73.5q0 -35 -15.5 -72.5t-45 -71.5t-79 -55.5t-110.5 -21.5q-93 0 -258 78q-7 3 -38.5 21t-62 31t-54.5 13q-36 0 -52.5 -16t-29.5 -57q-8 -25 -31.5 -42.5 t-56.5 -17.5q-19 0 -31 12.5t-12 32.5z" />
<glyph unicode="{" horiz-adv-x="663" d="M160 -84q0 46 13 96.5t25.5 80t39.5 87.5q4 8 15.5 34.5t16 36.5t13.5 32t12.5 34.5t8.5 30.5t7 32.5t2 29.5q0 65 -30 104q-21 30 -68 37q-27 4 -27 33q0 28 27 28q34 0 74 15q114 47 123 151q5 56 6 165.5t10 182.5q9 72 49 135.5t98 106.5t123.5 70.5t130.5 36.5 q41 6 95 6q34 0 34 -29q0 -37 -24 -37q-20 0 -66 -4q-121 -16 -202.5 -87t-100.5 -198q-7 -48 -14 -145t-14 -143q-10 -69 -35 -109t-70 -78q-17 -14 -45.5 -31.5t-41.5 -29t-13 -23.5q0 -10 26.5 -32t34.5 -35q31 -44 31 -101q0 -35 -11 -80t-19.5 -68t-31.5 -83 q-2 -6 -12 -30.5t-12.5 -31.5t-10.5 -28t-10.5 -31t-7.5 -29.5t-7 -33.5t-3.5 -32t-1.5 -36q0 -96 54 -162t132 -84q36 -8 72 -8q14 0 14 -35q0 -30 -14 -30q-41 0 -92 8q-32 4 -68.5 16t-79.5 36.5t-76.5 58t-56 86t-22.5 114.5z" />
<glyph unicode="|" horiz-adv-x="512" d="M293 -512v2054q0 19 12 19h82q14 0 14 -25v-2048q0 -20 -10 -20h-86q-12 0 -12 20z" />
<glyph unicode="}" horiz-adv-x="663" d="M-127 -375q0 37 25 37q19 0 65 4q121 16 202.5 87t100.5 198q7 48 14.5 145.5t14.5 143.5q10 69 34.5 108.5t69.5 77.5q17 14 46 31.5t42 29t13 23.5q0 10 -27 32.5t-35 35.5q-30 43 -30 100q0 35 10.5 79t19.5 70t31 82q3 8 13.5 34.5t14 36t12 32.5t11.5 36t7.5 33.5 t6 40t1.5 39.5q0 96 -54 162t-133 84q-36 8 -72 8q-14 0 -14 35q0 31 14 31q42 0 93 -8q32 -4 68.5 -16t79.5 -37t76.5 -58.5t56 -86t22.5 -114.5q0 -46 -13 -96.5t-25.5 -80t-39.5 -87.5q-5 -11 -18 -40.5t-18.5 -42t-15 -36.5t-13.5 -39t-7.5 -34.5t-3.5 -36.5 q0 -65 31 -105q21 -30 67 -37q27 -4 27 -32q0 -29 -27 -29q-35 0 -73 -14q-54 -22 -86.5 -61.5t-36.5 -90.5q-5 -56 -6.5 -165.5t-10.5 -182.5q-12 -95 -77.5 -173t-150.5 -120.5t-173 -54.5q-41 -6 -94 -6q-35 0 -35 28z" />
<glyph unicode="~" d="M147 350q0 130 60 208.5t143 78.5q86 0 164 -49l86 -58q6 -4 28 -18.5t34 -21.5t31.5 -14t35.5 -7q42 0 71 40.5t29 123.5h109q0 -130 -60 -208.5t-143 -78.5q-43 0 -80 16.5t-90 51.5l-80 55q-70 45 -135 45q-34 0 -64 -40.5t-30 -123.5h-109z" />
<glyph unicode="&#xa1;" horiz-adv-x="552" d="M-72 -518q0 32 31 106l81 208q82 208 159.5 403.5t81.5 203.5q6 11 10 14t14 3q5 0 8.5 -4.5t5 -14t-3.5 -24.5q-14 -40 -60 -250.5t-89 -415t-45 -211.5q-12 -54 -39 -81t-64 -27q-42 0 -66 27.5t-24 62.5zM291 741q0 45 30.5 78t75.5 33q43 0 71 -34t28 -68 q0 -49 -30.5 -82t-80.5 -33q-30 0 -62 27t-32 79z" />
<glyph unicode="&#xa2;" d="M229 457q0 76 34.5 168t92.5 178t143.5 158.5t178.5 107.5l57 238q4 15 19 12l47 -10q14 -3 8 -21l-49 -196q34 6 71 6q49 0 88 -23t39 -65q0 -37 -26 -57.5t-58 -20.5q-26 0 -47 24q-31 31 -92 33l-166 -670q94 9 193 76q17 10 31 -4l8 -14q17 -21 -8 -37 q-3 -2 -32 -21.5t-53.5 -34t-69.5 -31t-91 -22.5l-62 -245q-4 -18 -18 -15l-43 13q-8 3 -8.5 10t2.5 16l53 215q-111 2 -176.5 59t-65.5 173zM375 483q0 -70 32.5 -111.5t88.5 -49.5l161 661q-80 -20 -145 -104q-57 -78 -97 -192.5t-40 -203.5z" />
<glyph unicode="&#xa3;" d="M-14 33q0 50 61 119t123 98q17 19 48.5 86t41.5 102h-147q-9 0 -14.5 4.5t-4.5 10.5l8 49q3 12 21 12h162q64 195 166 457q59 153 170 251.5t253 98.5q99 0 160.5 -47.5t61.5 -91.5q0 -33 -24.5 -54.5t-55.5 -23.5q-74 0 -111 76q-1 2 -4.5 13.5t-8.5 19.5t-14.5 18.5 t-26.5 16t-40 5.5q-60 0 -110.5 -73.5t-108.5 -249.5q-33 -100 -97.5 -242t-84.5 -174h297q21 0 18 -12l-10 -49q-3 -15 -25 -15h-319q-17 -31 -55 -89t-62 -85l2 -4q135 15 220 -17t177 -134q61 -68 152 -68q32 0 57.5 20t34.5 41q11 25 5.5 32t-36.5 7q-45 0 -73.5 20.5 t-28.5 45.5q0 28 22 55t70 27q59 0 102 -37t43 -94q0 -26 -14 -56t-42.5 -61t-84.5 -51.5t-129 -20.5q-159 0 -278 140q-90 107 -230 100q-103 -209 -194 -209q-19 0 -31 10t-12 23z" />
<glyph unicode="&#xa4;" d="M111 229q-9 12 4 25l188 184q-70 86 -70 199q0 65 23 128t61 101l-200 191q-9 9 2 20l39 41q4 6 10 6t10 -4l205 -192q77 69 221 69q51 0 106 -17.5t87 -45.5l198 184q9 12 19 2l39 -41q11 -11 0 -22l-193 -183q35 -33 58.5 -93.5t25.5 -118.5q-6 -138 -82 -232l191 -178 q12 -12 4 -23l-43 -49q-10 -10 -19 0l-202 185q-42 -31 -100.5 -48.5t-114.5 -17.5q-60 0 -117.5 20t-95.5 54l-187 -187q-13 -13 -22 -4zM350 649q0 -110 61 -188t177 -78q102 0 169.5 73t67.5 193q0 117 -65.5 190.5t-171.5 73.5q-80 0 -135.5 -40.5t-79 -98.5t-23.5 -125 z" />
<glyph unicode="&#xa5;" d="M125 1239l8 41q1 10 4.5 13t14.5 3q2 0 60.5 -3t121.5 -3q64 0 116.5 1.5t82 3t36.5 1.5q11 0 15.5 -3.5t3.5 -12.5l-4 -41q-3 -12 -19 -12h-49q-91 0 -65 -94l147 -502q4 -19 15.5 -20.5t17.5 10.5q9 15 89 132.5t152.5 229t81.5 137.5q19 56 3.5 80.5t-72.5 24.5h-39 q-15 3 -15 18l5 37q1 10 5.5 13t16.5 3q6 0 75 -3t128 -3q62 0 123.5 3t64.5 3q12 0 16.5 -4t2.5 -12l-4 -37q-3 -16 -17 -16h-37q-47 0 -77.5 -22t-63.5 -72q-11 -16 -100 -140.5t-184.5 -257.5t-100.5 -139h274q9 0 13.5 -3t3.5 -9l-8 -41q-3 -13 -27 -13h-299l-31 -129 h326q15 0 12 -14l-8 -41q-2 -10 -29 -10h-321l-33 -162q-14 -68 3.5 -89.5t62.5 -21.5h61q17 0 14 -16l-6 -37q-3 -16 -20 -16q-3 0 -70.5 3t-138.5 3q-66 0 -118.5 -1.5t-79.5 -3t-32 -1.5q-19 0 -16 16l6 37q3 16 19 16h45q64 0 90 26.5t39 78.5l35 168h-291q-12 0 -10 10 l6 41q0 14 18 14h293l27 129h-297q-10 0 -14 3t-3 12l4 39q2 12 21 12h268l-176 557q-23 74 -115 74h-45q-15 0 -12 12z" />
<glyph unicode="&#xa6;" horiz-adv-x="512" d="M293 -338v676q0 20 18 20h78q12 0 12 -20v-676q0 -20 -18 -20h-78q-12 0 -12 20zM293 686v678q0 18 12 18h82q14 0 14 -24v-672q0 -20 -18 -20h-78q-12 0 -12 20z" />
<glyph unicode="&#xa7;" d="M8 -195q0 39 22 62.5t58 23.5q57 0 90 -51q36 -51 96 -51q34 0 74.5 16t80.5 45.5t66.5 81t26.5 113.5q0 42 -10 80t-23.5 67t-44 68.5t-55 67t-72.5 78.5q-118 125 -118 268q0 99 83.5 212t217.5 169q32 144 141 243q115 105 295 105q77 0 122.5 -28.5t45.5 -63.5 q0 -42 -23.5 -65t-62.5 -23q-38 0 -55 14t-37 51q-26 47 -84 47q-75 0 -142 -73.5t-67 -165.5q0 -79 37 -141t153 -177q133 -127 133 -280q0 -120 -81.5 -237t-223.5 -187q-25 -97 -63.5 -160t-116.5 -119q-116 -82 -295 -82q-70 0 -119 28t-49 64zM322 737q0 -93 73 -180 q18 -21 58.5 -66t61 -69t51.5 -64.5t47 -70.5t28.5 -68.5t13.5 -75.5q82 55 124 126t42 141q0 68 -23 123.5t-83 125.5q-15 17 -48 51t-57 61t-51 63.5t-42 78t-17 84.5q-86 -44 -132 -112t-46 -148z" />
<glyph unicode="&#xa8;" horiz-adv-x="583" d="M324 1214q0 28 22 54t72 26q35 0 59.5 -23t24.5 -63q0 -37 -24 -59.5t-60 -22.5t-65 20t-29 68zM602 1214q0 28 22 54t72 26q35 0 59.5 -23t24.5 -63q0 -37 -24 -59.5t-60 -22.5t-65 20t-29 68z" />
<glyph unicode="&#xa9;" horiz-adv-x="1597" d="M176 686q0 200 95 365t258 258.5t358 93.5q153 0 284.5 -52.5t225 -146t147 -227.5t53.5 -291q0 -150 -51 -281.5t-141.5 -227.5t-224.5 -152t-293 -56q-160 0 -294.5 56t-225 153t-141 228t-50.5 280zM279 686q0 -136 39.5 -247.5t102 -184t144 -122.5t162.5 -71.5 t160 -21.5q127 0 232 40.5t173.5 106.5t115.5 152t67 173.5t20 174.5q0 131 -39.5 242t-103.5 184t-145 124.5t-162 74t-158 22.5q-167 0 -305.5 -81.5t-220.5 -230.5t-82 -335zM461 692q0 178 125 309q50 50 130.5 83.5t174.5 33.5q104 0 225 -63q19 -9 25 0l8 32q2 7 29 7 q17 0 20 -19l29 -221q3 -12 -4 -14l-23 -6q-11 -4 -16 4q-38 83 -88 133q-91 88 -209 88q-71 0 -128 -31.5t-90.5 -82t-51 -108t-17.5 -116.5q5 -175 109 -279q99 -104 225 -104q97 0 173.5 44t125.5 110q3 3 16 -7l15 -10q7 -7 -2 -20q-143 -197 -361 -197q-197 0 -309 109 q-131 128 -131 325z" />
<glyph unicode="&#xaa;" horiz-adv-x="663" d="M113 643q0 68 41 150t103 150.5t142.5 114.5t153.5 46q83 0 102 -55l19 30q8 13 24 13h66q6 0 7.5 -5.5t-1.5 -11.5q-10 -20 -53 -126t-55 -134q-17 -39 -42.5 -113t-25.5 -81q0 -19 14 -19q15 0 49.5 29.5t51.5 48.5q5 8 14 2l20 -20q3 -3 3 -8.5t-3 -8.5 q-20 -30 -95.5 -80.5t-133.5 -50.5q-20 0 -32.5 8.5t-12.5 20.5q0 34 59 182l-8 4q-40 -66 -132.5 -140.5t-166.5 -74.5q-108 0 -108 129zM236 680q0 -34 11.5 -57t37.5 -23q54 0 150 96.5t126 163.5q39 83 39 123q0 32 -14.5 46.5t-50.5 14.5q-67 0 -139.5 -70.5 t-116 -155.5t-43.5 -138z" />
<glyph unicode="&#xab;" horiz-adv-x="737" d="M115 434q0 5 10 15l317 296q9 9 13 9t10 -6l22 -23q9 -9 9 -14q0 -4 -13 -17l-215 -250l156 -251l10 -17q0 -6 -8 -14l-25 -23q-4 -4 -8 -4q-9 0 -14 8l-256 279q-8 8 -8 12zM381 434q0 5 10 15l318 296q9 9 12 9q4 0 10 -6l23 -23q8 -8 8 -14q0 -5 -12 -17l-215 -250 l155 -251l10 -17q0 -6 -8 -14l-24 -23q-4 -4 -9 -4q-9 0 -14 8l-256 279q-8 8 -8 12z" />
<glyph unicode="&#xac;" d="M147 598v111h795v-459h-119v348h-676z" />
<glyph unicode="&#xad;" horiz-adv-x="856" d="M129 459v76q0 20 16 20h662q18 0 18 -16v-70q0 -25 -18 -25h-662q-16 0 -16 15z" />
<glyph unicode="&#xae;" horiz-adv-x="1105" d="M229 956q0 191 132 319t331 128q207 0 335 -124.5t128 -322.5q0 -193 -125 -319.5t-338 -126.5q-214 0 -338.5 126.5t-124.5 319.5zM313 963q0 -102 36.5 -181t94.5 -122.5t121.5 -65t126.5 -21.5q99 0 175 35t119 92t64 122t21 134q0 82 -25 149t-64 109.5t-90 71.5 t-101 41t-99 12q-162 0 -270.5 -102t-108.5 -274zM465 713v22q0 4 4 4h18q21 0 30 7.5t9 33.5v187l2 71q0 95 -2 115q0 35 -41 35h-14q-4 0 -4 6v25q0 6 4 6q3 0 46.5 -2t51.5 -2q6 0 65 2t66 2q102 0 152 -43q39 -34 39 -86q0 -64 -42 -101.5t-93 -44.5v-4q11 -3 30 -22 q5 -6 34.5 -49t31.5 -46q5 -8 31 -39.5t35 -37.5q20 -13 57 -13q8 0 8 -10v-18q0 -4 -6 -4q-1 0 -24.5 1t-37.5 1q-11 0 -37.5 -1t-41.5 -1q-6 3 -17 16t-16 22q-27 34 -55 84q-27 54 -43 70q-30 35 -68 35q-17 0 -21 -2v-35q0 -117 2 -129q0 -29 25 -29h33q4 0 4 -6v-20 q0 -6 -4 -6t-46.5 1t-60.5 1t-57.5 -1t-40.5 -1q-6 0 -6 6zM616 969q8 -2 41 -2q42 0 71.5 13.5t42.5 34t18.5 37.5t5.5 31q0 50 -41 76q-45 29 -97 29q-17 0 -41 -4v-215z" />
<glyph unicode="&#xaf;" horiz-adv-x="522" d="M223 1057v61q0 12 21 12h368q21 0 21 -14v-59q0 -15 -19 -15h-374q-17 0 -17 15z" />
<glyph unicode="&#xb0;" horiz-adv-x="512" d="M233 1217q0 74 59.5 130t147.5 56q96 0 152.5 -53t56.5 -133q0 -76 -59.5 -133.5t-149.5 -57.5q-95 0 -151 53t-56 138zM324 1221q0 -57 34.5 -94t81.5 -37q50 0 84.5 36.5t34.5 94.5q0 48 -34.5 82t-84.5 34t-83 -34t-33 -82z" />
<glyph unicode="&#xb1;" d="M147 23v110h795v-110h-795zM147 594v111h338v282h121v-282h336v-111h-336v-293h-121v293h-338z" />
<glyph unicode="&#xb2;" horiz-adv-x="665" d="M104 809q0 13 17 27q24 20 87.5 68.5t107 83t102.5 88t95 97t62.5 96t26.5 97.5q0 51 -28 92t-85 41q-29 0 -54.5 -12t-47.5 -38t-30 -37.5t-25 -39.5q-12 -20 -23 -16l-22 12q-10 7 -6 18q10 27 29.5 57t51.5 64t80 56t103 22q92 0 141 -50.5t49 -135.5q0 -44 -19 -91.5 t-44 -85t-72 -83t-80 -74t-92 -70t-83.5 -57.5t-78.5 -51l-4 -2v-2h230q47 0 76.5 22t56.5 64q9 12 20 8l17 -10q4 -1 4.5 -6.5t-2.5 -8.5q-20 -29 -50.5 -94t-33.5 -76q-5 -12 -19 -12q-11 0 -20 14q-7 9 -78 9h-334q-25 0 -25 16z" />
<glyph unicode="&#xb3;" horiz-adv-x="665" d="M150 915q0 21 14.5 38.5t38.5 17.5q33 0 44 -24t7 -54q-3 -16 25.5 -37.5t62.5 -21.5q88 0 151.5 66t63.5 159q0 49 -25.5 86.5t-68.5 54.5q-21 9 -21 23q0 15 21 20q23 5 50.5 18.5t56 34.5t47 53.5t18.5 69.5q0 32 -22.5 59t-75.5 27q-70 0 -134 -88q-18 -27 -30 -18 l-21 16q-5 7 2 21q14 23 32 44.5t47 47.5t70.5 41.5t88.5 15.5q82 0 124 -38t42 -81q0 -124 -178 -217q108 -57 108 -176q0 -81 -52.5 -150t-133 -107t-164.5 -38q-87 0 -137.5 41.5t-50.5 95.5z" />
<glyph unicode="&#xb4;" horiz-adv-x="460" d="M199 977q-4 4 8 16l258 211q36 31 72 31q16 0 29.5 -10t19.5 -26t5.5 -33.5t-14 -35.5t-38.5 -30l-310 -146q-12 -6 -16 2z" />
<glyph unicode="&#xb6;" d="M165 753q0 67 23 146q23 77 74.5 143.5t124 115t155 87t177.5 66t180.5 44.5t175.5 29q158 19 185 19q17 0 14 -14l-8 -35q-5 -14 -21 -17q-58 -5 -112 -14l-416 -1593q-3 -17 -19 -17h-49q-9 0 -10.5 5t2.5 20l410 1577q-66 -10 -121 -25l-400 -1548q-5 -18 -8 -23.5 t-12 -5.5h-55q-11 0 -2 33l176 674q-53 0 -104.5 6.5t-105.5 22.5t-98.5 40t-80.5 62.5t-55.5 86.5t-19.5 115z" />
<glyph unicode="&#xb7;" horiz-adv-x="512" d="M238 705q0 37 28 71.5t78 34.5q32 0 56.5 -12.5t37 -31.5t18 -35t5.5 -27q0 -42 -33 -76.5t-82 -34.5q-47 0 -77.5 31.5t-30.5 79.5z" />
<glyph unicode="&#xb8;" horiz-adv-x="440" d="M-170 -393q0 33 37 33q57 0 104 29.5t47 66.5q0 25 -20.5 49t-56.5 37l127 178h75l-96 -137q84 -41 84 -119q0 -38 -32 -72.5t-76.5 -55.5t-86.5 -33.5t-67 -12.5q-39 0 -39 37z" />
<glyph unicode="&#xb9;" horiz-adv-x="665" d="M143 797l7 32q4 11 14 11h65q25 0 40 3t31.5 16t29.5 38q8 19 45 131l86 270q37 110 37 119q0 17 -17 17q-15 0 -84 -27l-65 -27q-8 -4 -15 9l-12 24q-3 8 8 14l291 144q32 14 45 14q7 0 13 -4.5t6 -9.5q0 -17 -6 -33q-56 -142 -111 -311l-57 -183q-39 -125 -41 -141 q-10 -37 -1 -50t40 -13h55q14 0 10 -11l-6 -32q-4 -11 -14 -11q-3 0 -90.5 3.5t-104.5 3.5q-18 0 -104 -3.5t-88 -3.5q-4 0 -6.5 4t-0.5 7z" />
<glyph unicode="&#xba;" horiz-adv-x="663" d="M162 700q0 49 13.5 103t43 108t70.5 97t101 69.5t130 26.5q81 0 133 -49.5t52 -120.5q0 -44 -12 -97t-40.5 -111t-69 -104.5t-103.5 -77t-138 -30.5q-33 0 -62.5 9t-57 28.5t-44 58t-16.5 90.5zM270 659q0 -35 21 -58t61 -23q45 0 107.5 66.5t106.5 156.5t42 151 q2 40 -20 62t-68 22q-60 0 -119.5 -62.5t-95 -150.5t-35.5 -164z" />
<glyph unicode="&#xbb;" horiz-adv-x="737" d="M61 178q0 4 13 17l215 249l-156 252l-10 17q0 6 8 14l25 23q4 4 8 4q8 0 14 -9l256 -278q8 -8 8 -12q0 -5 -10 -15l-317 -297q-8 -8 -13 -8q-4 0 -10 6l-22 23q-9 9 -9 14zM328 178q0 5 12 17l215 249l-156 252l-10 17q0 6 8 14l25 23q4 4 8 4q8 0 14 -9l256 -278 q9 -9 9 -12q0 -4 -11 -15l-317 -297q-8 -8 -12 -8q-5 0 -11 6l-22 23q-8 8 -8 14z" />
<glyph unicode="&#xbc;" horiz-adv-x="1433" d="M82 525.5q-2 3.5 0 6.5l6 33q3 10 14 10h66q37 0 59 10.5t41 47.5q8 19 45 131l86 270q37 110 37 119q0 16 -16 16q-17 0 -84 -26l-66 -27q-8 -4 -14 8l-12 25q-3 8 8 14l291 144q32 14 45 14q7 0 12.5 -4.5t5.5 -9.5q0 -17 -6 -33q-56 -142 -111 -311l-57 -183 q-37 -110 -41 -141q-10 -37 -1 -50.5t40 -13.5h55q7 0 10 -2.5t1 -7.5l-7 -33q-3 -10 -14 -10q-3 0 -90 3t-104 3q-18 0 -104.5 -3t-88.5 -3q-4 0 -6 3.5zM313 12q0 10 9 25l835 1276q5 8 12 8t15 -4l45 -29q8 -3 8 -10q0 -5 -6 -14l-840 -1280q-9 -15 -16 -15q-9 0 -17 6 l-39 27q-6 3 -6 10zM768 244q0 13 29 39l567 493q17 17 45 17q17 0 25 -14.5t2 -28.5l-181 -457h129q5 0 7 -5.5t-2 -13.5l-19 -43q-9 -18 -20 -18h-121l-76 -188q-7 -17 -13.5 -21t-17.5 -4h-86q-15 0 -2 29l78 184h-313q-31 0 -31 31zM913 293h224l118 282q9 22 3.5 26.5 t-25.5 -13.5l-307 -264q-34 -31 -13 -31z" />
<glyph unicode="&#xbd;" horiz-adv-x="1433" d="M82 525.5q-2 3.5 0 6.5l6 33q3 10 14 10h66q37 0 59 10.5t41 47.5q8 19 45 131l86 270q37 110 37 119q0 16 -16 16q-17 0 -84 -26l-66 -27q-8 -4 -14 8l-12 25q-3 8 8 14l291 144q32 14 45 14q7 0 12.5 -4.5t5.5 -9.5q0 -17 -6 -33q-56 -142 -111 -311l-57 -183 q-37 -110 -41 -141q-10 -37 -1 -50.5t40 -13.5h55q7 0 10 -2.5t1 -7.5l-7 -33q-3 -10 -14 -10q-3 0 -90 3t-104 3q-18 0 -104.5 -3t-88.5 -3q-4 0 -6 3.5zM313 12q0 10 9 25l835 1276q5 8 12 8t15 -4l45 -29q8 -3 8 -10q0 -5 -6 -14l-840 -1280q-9 -15 -16 -15q-9 0 -17 6 l-39 27q-6 3 -6 10zM811 16q0 14 16 27q25 20 88 68.5t107 83t102.5 88t95 97t63 96t26.5 97.5q0 51 -28 92.5t-85 41.5q-29 0 -55 -12.5t-47.5 -37.5t-30.5 -38t-25 -39q-13 -20 -22 -17l-23 12q-10 7 -6 19q10 27 29.5 57t51.5 64t80 56t103 22q92 0 141.5 -51t49.5 -136 q0 -44 -19 -91.5t-44 -85t-72 -83t-80 -74t-92 -70t-83.5 -57.5t-78.5 -51l-4 -2v-2h229q47 0 76.5 22t56.5 64q9 12 21 8l16 -10q4 -1 4.5 -6t-2.5 -8q-20 -29 -50.5 -94t-33.5 -76q-5 -13 -18 -13q-11 0 -21 15q-6 8 -78 8h-333q-25 0 -25 16z" />
<glyph unicode="&#xbe;" horiz-adv-x="1433" d="M88 651q0 21 14.5 38.5t38.5 17.5q33 0 44.5 -24t7.5 -54q-3 -17 25.5 -38.5t62.5 -21.5q88 0 151.5 66.5t63.5 159.5q0 49 -26 86t-69 55q-13 6 -16.5 10t-3.5 12q0 17 20 21q23 5 50.5 18.5t56 34.5t47 53.5t18.5 69.5q0 32 -22.5 59t-75.5 27q-69 0 -133 -88 q-18 -27 -31 -18l-20 16q-5 7 2 20q14 23 31.5 45t47 48t70.5 41.5t88 15.5q82 0 124 -38t42 -81q0 -124 -178 -217q109 -57 109 -176q0 -81 -53 -150t-133.5 -107t-164.5 -38q-87 0 -137.5 41.5t-50.5 95.5zM334 12q0 12 8 25l836 1276q5 8 12 8q6 0 14 -4l45 -29 q8 -3 8 -10q0 -5 -6 -14l-839 -1280q-9 -15 -17 -15t-16 6l-39 27q-6 3 -6 10zM778 244q0 13 29 39l567 493q17 17 45 17q17 0 25 -14.5t2 -28.5l-180 -457h129q5 0 6 -5.5t-2 -13.5l-19 -43q-9 -18 -20 -18h-121l-76 -188q-7 -17 -13 -21t-17 -4h-86q-6 0 -7.5 8t4.5 21 l78 184h-313q-31 0 -31 31zM924 293h223l119 282q9 22 3 26.5t-26 -13.5l-307 -264q-34 -31 -12 -31z" />
<glyph unicode="&#xbf;" horiz-adv-x="878" d="M41 -340q0 72 26 135.5t55 103t91.5 84.5t93.5 62.5t102 53.5q9 5 13 7q58 30 84 43.5t63.5 37t53 40t27.5 39.5t12 49q0 55 -41 85t-103 30q-51 0 -97.5 -25.5t-66.5 -50.5q-9 -9 -18 4l-14 17q-9 9 -5 16q36 41 95.5 79t124.5 38q83 0 141.5 -55t58.5 -162 q0 -42 -18 -82.5t-42 -69.5t-65 -61t-68.5 -49.5t-72.5 -44t-59 -35.5q-125 -78 -168 -116q-94 -85 -94 -202q0 -58 53 -113t151 -55t169 54t71 133q0 44 -21 68t-41 24q-24 0 -32 -18q2 -7 2 -31q0 -30 -26.5 -62t-76.5 -32q-36 0 -55.5 22.5t-19.5 46.5q0 63 51 103.5 t112 40.5q41 0 77 -13.5t63.5 -50.5t27.5 -94q0 -44 -21 -89.5t-59 -84.5t-99 -63.5t-134 -24.5t-130 21t-88 51.5t-51 69.5t-26 69t-6 57zM510 745q0 40 27 73.5t75 33.5q45 0 75 -31.5t30 -75.5q0 -32 -29.5 -66t-71.5 -34q-40 0 -73 27t-33 73z" />
<glyph unicode="&#xc0;" horiz-adv-x="1267" d="M-154 8l11 45q3 17 14 17h31q123 0 248 149l948 1133q8 11 18.5 15t38.5 5q64 4 96 14q65 17 68 17q26 0 20 -21l-301 -1136q-20 -88 -20 -119q0 -24 22.5 -40.5t53.5 -16.5h55q19 0 16 -21l-6 -37q-3 -18 -24 -18q-7 0 -40.5 1.5t-89 3t-116.5 1.5q-85 0 -161 -3t-79 -3 q-23 0 -20 20l8 39q4 17 16 17h39q34 0 55 5t44 21t40.5 51t32.5 91l103 378h-365l-287 -360q-84 -107 -84 -137q0 -23 19 -36t53 -13h74q19 0 14 -21l-8 -39q-3 -16 -21 -16q-4 0 -39 1.5t-96.5 3t-132.5 1.5q-59 0 -111 -1.5t-82 -3t-36 -1.5q-9 0 -14.5 3.5t-4.5 10.5z M655 688h334l158 541q6 21 -13.5 25t-31.5 -11zM913.5 1711q-3.5 35 19.5 61t52 26q33 0 78 -45l240 -227q11 -7 4 -17l-15 -20q-5 -5 -14 0l-320 166q-41 21 -44.5 56z" />
<glyph unicode="&#xc1;" horiz-adv-x="1267" d="M-154 8l11 45q3 17 14 17h31q123 0 248 149l948 1133q8 11 18.5 15t38.5 5q64 4 96 14q65 17 68 17q26 0 20 -21l-301 -1136q-20 -88 -20 -119q0 -24 22.5 -40.5t53.5 -16.5h55q19 0 16 -21l-6 -37q-3 -18 -24 -18q-7 0 -40.5 1.5t-89 3t-116.5 1.5q-85 0 -161 -3t-79 -3 q-23 0 -20 20l8 39q4 17 16 17h39q34 0 55 5t44 21t40.5 51t32.5 91l103 378h-365l-287 -360q-84 -107 -84 -137q0 -23 19 -36t53 -13h74q19 0 14 -21l-8 -39q-3 -16 -21 -16q-4 0 -39 1.5t-96.5 3t-132.5 1.5q-59 0 -111 -1.5t-82 -3t-36 -1.5q-9 0 -14.5 3.5t-4.5 10.5z M655 688h334l158 541q6 21 -13.5 25t-31.5 -11zM1157 1513q-5 10 6 21l293 227q36 25 70 25q33 0 51.5 -30.5t10 -67t-45.5 -52.5l-356 -145q-13 -6 -17 2z" />
<glyph unicode="&#xc2;" horiz-adv-x="1267" d="M-154 8l11 45q3 17 14 17h31q123 0 248 149l948 1133q8 11 18.5 15t38.5 5q64 4 96 14q65 17 68 17q26 0 20 -21l-301 -1136q-20 -88 -20 -119q0 -24 22.5 -40.5t53.5 -16.5h55q19 0 16 -21l-6 -37q-3 -18 -24 -18q-7 0 -40.5 1.5t-89 3t-116.5 1.5q-85 0 -161 -3t-79 -3 q-23 0 -20 20l8 39q4 17 16 17h39q34 0 55 5t44 21t40.5 51t32.5 91l103 378h-365l-287 -360q-84 -107 -84 -137q0 -23 19 -36t53 -13h74q19 0 14 -21l-8 -39q-3 -16 -21 -16q-4 0 -39 1.5t-96.5 3t-132.5 1.5q-59 0 -111 -1.5t-82 -3t-36 -1.5q-9 0 -14.5 3.5t-4.5 10.5z M655 688h334l158 541q6 21 -13.5 25t-31.5 -11zM981 1522q-4 4 4 12l285 246q16 12 26 -4l146 -246q7 -10 -4 -17l-21 -18q-8 -6 -22 4l-142 123l-243 -127q-10 -3 -15 4z" />
<glyph unicode="&#xc3;" horiz-adv-x="1267" d="M-154 8l11 45q3 17 14 17h31q123 0 248 149l948 1133q8 11 18.5 15t38.5 5q64 4 96 14q65 17 68 17q26 0 20 -21l-301 -1136q-20 -88 -20 -119q0 -24 22.5 -40.5t53.5 -16.5h55q19 0 16 -21l-6 -37q-3 -18 -24 -18q-7 0 -40.5 1.5t-89 3t-116.5 1.5q-85 0 -161 -3t-79 -3 q-23 0 -20 20l8 39q4 17 16 17h39q34 0 55 5t44 21t40.5 51t32.5 91l103 378h-365l-287 -360q-84 -107 -84 -137q0 -23 19 -36t53 -13h74q19 0 14 -21l-8 -39q-3 -16 -21 -16q-4 0 -39 1.5t-96.5 3t-132.5 1.5q-59 0 -111 -1.5t-82 -3t-36 -1.5q-9 0 -14.5 3.5t-4.5 10.5z M655 688h334l158 541q6 21 -13.5 25t-31.5 -11zM961 1546q-5 5 0 21q26 65 75.5 111t93.5 46q17 0 32.5 -1t32.5 -4t27 -5t31.5 -7t30.5 -7q43 -8 115 -8q68 0 104 65q7 15 17 8l30 -16q10 -5 -6 -35q-33 -59 -76 -97t-92 -38q-60 0 -135 16q-69 17 -133 17q-25 0 -55.5 -23 t-48.5 -53q-8 -12 -17 -6z" />
<glyph unicode="&#xc4;" horiz-adv-x="1267" d="M-154 8l11 45q3 17 14 17h31q123 0 248 149l948 1133q8 11 18.5 15t38.5 5q64 4 96 14q65 17 68 17q26 0 20 -21l-301 -1136q-20 -88 -20 -119q0 -24 22.5 -40.5t53.5 -16.5h55q19 0 16 -21l-6 -37q-3 -18 -24 -18q-7 0 -40.5 1.5t-89 3t-116.5 1.5q-85 0 -161 -3t-79 -3 q-23 0 -20 20l8 39q4 17 16 17h39q34 0 55 5t44 21t40.5 51t32.5 91l103 378h-365l-287 -360q-84 -107 -84 -137q0 -23 19 -36t53 -13h74q19 0 14 -21l-8 -39q-3 -16 -21 -16q-4 0 -39 1.5t-96.5 3t-132.5 1.5q-59 0 -111 -1.5t-82 -3t-36 -1.5q-9 0 -14.5 3.5t-4.5 10.5z M655 688h334l158 541q6 21 -13.5 25t-31.5 -11zM952 1628q0 30 23.5 58t79.5 28q39 0 65.5 -24.5t26.5 -67.5q0 -40 -26.5 -65t-65.5 -25q-40 0 -71.5 21.5t-31.5 74.5zM1317 1628q0 31 23 58.5t79 27.5q39 0 65.5 -24.5t26.5 -67.5q0 -40 -26.5 -65t-65.5 -25q-40 0 -71 21 t-31 75z" />
<glyph unicode="&#xc5;" horiz-adv-x="1267" d="M-154 8l11 45q3 17 14 17h31q123 0 248 149l948 1133q13 18 43 18q60 0 110 10q21 3 40.5 8t27.5 5q26 0 18 -31l-299 -1116q-20 -88 -20 -119q0 -24 22.5 -40.5t53.5 -16.5h55q19 0 16 -21l-6 -37q-3 -18 -24 -18q-7 0 -40.5 1.5t-89 3t-116.5 1.5q-85 0 -161 -3t-79 -3 q-23 0 -20 20l8 39q4 17 16 17h39q34 0 55 5t44 21t40.5 51t32.5 91l103 378h-365l-287 -360q-84 -107 -84 -137q0 -23 19 -36t53 -13h74q19 0 14 -21l-8 -39q-3 -16 -21 -16q-4 0 -39 1.5t-96.5 3t-132.5 1.5q-59 0 -111 -1.5t-82 -3t-36 -1.5q-9 0 -14.5 3.5t-4.5 10.5z M655 688h334l158 541q6 21 -13.5 25t-31.5 -11zM1034 1632q0 81 66 126.5t153 45.5t146 -41.5t59 -122.5q0 -66 -64.5 -107.5t-154.5 -41.5q-86 0 -145.5 39t-59.5 102zM1143 1647q0 -52 30.5 -78.5t73.5 -26.5q40 0 71.5 27t31.5 80q0 54 -34.5 79t-72.5 25t-69 -29 t-31 -77z" />
<glyph unicode="&#xc6;" horiz-adv-x="1878" d="M-272 14l8 39q3 17 16 17h37q128 0 264 149l942 1047q12 10 9.5 23.5t-21.5 13.5h-133q-9 0 -12 5t0 11l18 49q5 10 23 10q5 0 38 -1t58 -1q86 -4 139 -4h205q211 0 371 4q48 0 93 1t48 1q23 0 30 -7t13 -32l65 -280q2 -12 -12 -19l-22 -8q-12 -5 -21 6l-192 248 q-14 17 -35 17h-350l-195 -598h215q44 0 66.5 1.5t53 10t49 26t38.5 50t37 81.5q3 14 14 11l31 -6q15 -4 12 -17l-110 -407q-3 -16 -15 -13l-33 4q-7 1 -8.5 4.5t0.5 12.5q4 50 -4 83t-23 51.5t-48.5 28t-65 11.5t-88.5 2h-139l-183 -569h510q58 0 88.5 16.5t75.5 69.5 l164 206q12 16 25 5l20 -13q12 -9 6 -28l-104 -297q-7 -22 -16 -28.5t-29 -6.5q-8 0 -40.5 0.5t-95 1.5t-116.5 2q-65 0 -215 1t-223 1h-168q-54 0 -116.5 -1t-72.5 -1q-15 -1 -29 -2l-21 -1.5t-11 -0.5q-24 0 -21 22l6 37q3 17 17 17h76q60 0 94.5 28.5t52.5 85.5l145 455 h-376l-326 -381q-27 -31 -37 -43t-27 -34.5t-23.5 -36.5t-6.5 -25q0 -23 19.5 -36t53.5 -13h68q15 0 12 -21l-6 -39q-3 -16 -22 -16q-4 0 -39 1.5t-97 3t-133 1.5q-59 0 -111 -1.5t-82 -3t-36 -1.5q-19 0 -16 20zM596 705h336l168 524q7 22 -3 25.5t-24 -11.5z" />
<glyph unicode="&#xc7;" horiz-adv-x="1335" d="M164 457q0 177 79 367.5t218 342.5q101 110 231.5 173t261.5 63q76 0 138 -19.5t133 -68.5q5 -4 27 -21.5t39.5 -27t35.5 -9.5q37 0 53 64q6 18 19 12l26 -6q19 -3 13 -20l-109 -424q-6 -18 -22 -13l-29 4q-15 3 -12 21q11 61 8.5 122t-26.5 117.5t-60 99.5t-93 69 t-126 26q-121 0 -212 -60t-182 -190q-106 -155 -154 -327.5t-48 -315.5q0 -84 21.5 -152t54.5 -110t75.5 -70t83 -39.5t78.5 -11.5q360 0 510 363q6 13 10 16t11 0l34 -10q14 -5 11 -19l-146 -438q-5 -13 -18 -10l-37 10q-11 4 -8 12q8 28 8 46q0 12 -10 22t-23 10 q-25 0 -90 -28q-37 -19 -125.5 -38.5t-157.5 -19.5q-35 0 -69 6l-68 -104q100 -38 100 -127q0 -75 -93.5 -137t-188.5 -62q-39 0 -39 31q0 14 6.5 23.5t18.5 9.5q20 1 45 6.5t55.5 18t51 38t20.5 58.5q0 27 -30 50.5t-69 35.5l121 174q-158 39 -255 163t-97 304z" />
<glyph unicode="&#xc8;" horiz-adv-x="1370" d="M-6 10l6 43q3 10 6 13.5t10 3.5h76q61 0 95.5 28.5t52.5 85.5l311 973q25 78 -12 112t-101 34h-65q-19 0 -13 22l11 39q5 14 24 14q2 0 27.5 -1t50.5 -1q86 -4 205 -4h131q188 0 356 4q50 0 102 1t56 1q23 0 30 -7t13 -32l66 -280q1 -7 -1.5 -10.5t-11.5 -8.5l-22 -8 q-12 -5 -21 6l-192 248q-11 17 -33 17h-373l-176 -539h197q36 0 56 1t46.5 6t43 16t35 29.5t33.5 48.5t29 71q3 13 15 10l30 -6q15 -4 13 -16l-111 -408q-2 -15 -14 -12l-33 4q-7 1 -8.5 4t0.5 12q5 62 -5 98.5t-45.5 52.5t-70.5 19.5t-108 3.5h-123l-199 -628h530 q97 0 164 86l164 206q12 16 25 5l20 -13q12 -9 6 -28l-104 -297q-7 -22 -16 -28.5t-29 -6.5q-7 0 -36 0.5t-85.5 1.5t-106.5 2q-58 0 -199 1t-214 1h-238q-54 0 -116.5 -1t-75.5 -1q-16 -1 -30 -2t-21.5 -1.5t-10.5 -0.5q-21 0 -16 16zM698.5 1711q-3.5 35 19.5 61t52 26 q33 0 78 -45l239 -227q11 -8 5 -17l-15 -20q-5 -5 -14 0l-320 166q-41 21 -44.5 56z" />
<glyph unicode="&#xc9;" horiz-adv-x="1370" d="M-6 10l6 43q3 10 6 13.5t10 3.5h76q61 0 95.5 28.5t52.5 85.5l311 973q25 78 -12 112t-101 34h-65q-19 0 -13 22l11 39q5 14 24 14q2 0 27.5 -1t50.5 -1q86 -4 205 -4h131q188 0 356 4q50 0 102 1t56 1q23 0 30 -7t13 -32l66 -280q1 -7 -1.5 -10.5t-11.5 -8.5l-22 -8 q-12 -5 -21 6l-192 248q-11 17 -33 17h-373l-176 -539h197q36 0 56 1t46.5 6t43 16t35 29.5t33.5 48.5t29 71q3 13 15 10l30 -6q15 -4 13 -16l-111 -408q-2 -15 -14 -12l-33 4q-7 1 -8.5 4t0.5 12q5 62 -5 98.5t-45.5 52.5t-70.5 19.5t-108 3.5h-123l-199 -628h530 q97 0 164 86l164 206q12 16 25 5l20 -13q12 -9 6 -28l-104 -297q-7 -22 -16 -28.5t-29 -6.5q-7 0 -36 0.5t-85.5 1.5t-106.5 2q-58 0 -199 1t-214 1h-238q-54 0 -116.5 -1t-75.5 -1q-16 -1 -30 -2t-21.5 -1.5t-10.5 -0.5q-21 0 -16 16zM922 1513q-5 10 6 21l293 227 q36 25 69 25t52 -30.5t10.5 -67t-45.5 -52.5l-357 -145q-12 -6 -16 2z" />
<glyph unicode="&#xca;" horiz-adv-x="1370" d="M-6 10l6 43q3 10 6 13.5t10 3.5h76q61 0 95.5 28.5t52.5 85.5l311 973q25 78 -12 112t-101 34h-65q-19 0 -13 22l11 39q5 14 24 14q2 0 27.5 -1t50.5 -1q86 -4 205 -4h131q188 0 356 4q50 0 102 1t56 1q23 0 30 -7t13 -32l66 -280q1 -7 -1.5 -10.5t-11.5 -8.5l-22 -8 q-12 -5 -21 6l-192 248q-11 17 -33 17h-373l-176 -539h197q36 0 56 1t46.5 6t43 16t35 29.5t33.5 48.5t29 71q3 13 15 10l30 -6q15 -4 13 -16l-111 -408q-2 -15 -14 -12l-33 4q-7 1 -8.5 4t0.5 12q5 62 -5 98.5t-45.5 52.5t-70.5 19.5t-108 3.5h-123l-199 -628h530 q97 0 164 86l164 206q12 16 25 5l20 -13q12 -9 6 -28l-104 -297q-7 -22 -16 -28.5t-29 -6.5q-7 0 -36 0.5t-85.5 1.5t-106.5 2q-58 0 -199 1t-214 1h-238q-54 0 -116.5 -1t-75.5 -1q-16 -1 -30 -2t-21.5 -1.5t-10.5 -0.5q-21 0 -16 16zM725 1522q-4 4 4 12l285 246 q16 12 26 -4l146 -246q7 -10 -4 -17l-21 -18q-8 -6 -22 4l-142 123l-243 -127q-10 -3 -15 4z" />
<glyph unicode="&#xcb;" horiz-adv-x="1370" d="M-6 10l6 43q3 10 6 13.5t10 3.5h76q61 0 95.5 28.5t52.5 85.5l311 973q25 78 -12 112t-101 34h-65q-19 0 -13 22l11 39q5 14 24 14q2 0 27.5 -1t50.5 -1q86 -4 205 -4h131q188 0 356 4q50 0 102 1t56 1q23 0 30 -7t13 -32l66 -280q1 -7 -1.5 -10.5t-11.5 -8.5l-22 -8 q-12 -5 -21 6l-192 248q-11 17 -33 17h-373l-176 -539h197q36 0 56 1t46.5 6t43 16t35 29.5t33.5 48.5t29 71q3 13 15 10l30 -6q15 -4 13 -16l-111 -408q-2 -15 -14 -12l-33 4q-7 1 -8.5 4t0.5 12q5 62 -5 98.5t-45.5 52.5t-70.5 19.5t-108 3.5h-123l-199 -628h530 q97 0 164 86l164 206q12 16 25 5l20 -13q12 -9 6 -28l-104 -297q-7 -22 -16 -28.5t-29 -6.5q-7 0 -36 0.5t-85.5 1.5t-106.5 2q-58 0 -199 1t-214 1h-238q-54 0 -116.5 -1t-75.5 -1q-16 -1 -30 -2t-21.5 -1.5t-10.5 -0.5q-21 0 -16 16zM696 1628q0 30 23.5 58t79.5 28 q39 0 65.5 -24.5t26.5 -67.5q0 -40 -26.5 -65t-65.5 -25q-40 0 -71.5 21.5t-31.5 74.5zM1061 1628q0 31 23 58.5t79 27.5q39 0 65.5 -24.5t26.5 -67.5q0 -40 -26.5 -65t-65.5 -25q-40 0 -71 21t-31 75z" />
<glyph unicode="&#xcc;" horiz-adv-x="735" d="M-16 10l8 39q3 13 6 17t12 4h88q45 0 72.5 7t45.5 28t27 44t23 72l256 946q19 75 1 105.5t-74 30.5h-95q-12 0 -16 3.5t-2 12.5l10 47q3 12 27 12q7 0 47 -1.5t103 -3t126 -1.5q74 0 138 1.5t101.5 3t45.5 1.5q14 0 19.5 -5.5t2.5 -14.5l-10 -39q-3 -16 -22 -16h-39 q-95 0 -130 -26.5t-61 -119.5l-256 -948q-20 -74 5 -106.5t104 -32.5h71q16 0 13 -21l-6 -39q-2 -10 -6.5 -13t-18.5 -3q-5 0 -43.5 1.5t-107 3t-146.5 1.5q-73 0 -143 -1.5t-112 -3t-48 -1.5q-19 0 -16 16zM381.5 1711q-3.5 35 19.5 61t52 26q32 0 77 -45l240 -227 q11 -7 4 -17l-14 -20q-5 -5 -15 0l-319 166q-41 21 -44.5 56z" />
<glyph unicode="&#xcd;" horiz-adv-x="735" d="M-16 10l8 39q3 13 6 17t12 4h88q45 0 72.5 7t45.5 28t27 44t23 72l256 946q19 75 1 105.5t-74 30.5h-95q-12 0 -16 3.5t-2 12.5l10 47q3 12 27 12q7 0 47 -1.5t103 -3t126 -1.5q74 0 138 1.5t101.5 3t45.5 1.5q14 0 19.5 -5.5t2.5 -14.5l-10 -39q-3 -16 -22 -16h-39 q-95 0 -130 -26.5t-61 -119.5l-256 -948q-20 -74 5 -106.5t104 -32.5h71q16 0 13 -21l-6 -39q-2 -10 -6.5 -13t-18.5 -3q-5 0 -43.5 1.5t-107 3t-146.5 1.5q-73 0 -143 -1.5t-112 -3t-48 -1.5q-19 0 -16 16zM645 1513q-5 10 6 21l293 227q36 25 70 25q33 0 51.5 -30.5 t10 -67t-45.5 -52.5l-356 -145q-13 -6 -17 2z" />
<glyph unicode="&#xce;" horiz-adv-x="735" d="M-16 10l8 39q3 13 6 17t12 4h88q45 0 72.5 7t45.5 28t27 44t23 72l256 946q19 75 1 105.5t-74 30.5h-95q-12 0 -16 3.5t-2 12.5l10 47q3 12 27 12q7 0 47 -1.5t103 -3t126 -1.5q74 0 138 1.5t101.5 3t45.5 1.5q14 0 19.5 -5.5t2.5 -14.5l-10 -39q-3 -16 -22 -16h-39 q-95 0 -130 -26.5t-61 -119.5l-256 -948q-20 -74 5 -106.5t104 -32.5h71q16 0 13 -21l-6 -39q-2 -10 -6.5 -13t-18.5 -3q-5 0 -43.5 1.5t-107 3t-146.5 1.5q-73 0 -143 -1.5t-112 -3t-48 -1.5q-19 0 -16 16zM449 1522q-4 4 4 12l284 246q6 5 14.5 4t12.5 -8l145 -246 q7 -10 -4 -17l-20 -18q-9 -7 -23 4l-141 123l-244 -127q-9 -3 -14 4z" />
<glyph unicode="&#xcf;" horiz-adv-x="735" d="M-16 10l8 39q3 13 6 17t12 4h88q45 0 72.5 7t45.5 28t27 44t23 72l256 946q19 75 1 105.5t-74 30.5h-95q-12 0 -16 3.5t-2 12.5l10 47q3 12 27 12q7 0 47 -1.5t103 -3t126 -1.5q74 0 138 1.5t101.5 3t45.5 1.5q14 0 19.5 -5.5t2.5 -14.5l-10 -39q-3 -16 -22 -16h-39 q-95 0 -130 -26.5t-61 -119.5l-256 -948q-20 -74 5 -106.5t104 -32.5h71q16 0 13 -21l-6 -39q-2 -10 -6.5 -13t-18.5 -3q-5 0 -43.5 1.5t-107 3t-146.5 1.5q-73 0 -143 -1.5t-112 -3t-48 -1.5q-19 0 -16 16zM420 1628q0 31 23 58.5t79 27.5q39 0 65.5 -24.5t26.5 -67.5 q0 -40 -26.5 -65t-65.5 -25q-40 0 -71 21t-31 75zM784 1628q0 30 23.5 58t79.5 28q39 0 65.5 -24.5t26.5 -67.5q0 -40 -26.5 -65t-65.5 -25q-40 0 -71.5 21.5t-31.5 74.5z" />
<glyph unicode="&#xd0;" horiz-adv-x="1591" d="M8 10l12 45q4 15 21 15h61q64 0 106.5 34t65.5 127l107 441h-221q-14 0 -20 4t-3 14l17 45q3 13 26 13h221l109 446q14 56 -15 79t-89 23h-93q-15 0 -19 4t-1 13l12 45q3 9 8.5 11.5t24.5 2.5q50 0 170 6q35 1 116.5 3.5t104.5 2.5q110 0 200.5 -7.5t189.5 -27.5t183 -61 t146 -102q89 -90 121.5 -178t32.5 -193q0 -114 -28 -217t-68.5 -173.5t-95.5 -131.5t-99 -94.5t-88 -59.5q-73 -41 -157.5 -70.5t-149 -43.5t-145.5 -21.5t-119.5 -8.5t-98.5 -1q-27 0 -148.5 3t-150.5 3q-68 0 -121 -1.5t-79 -3t-29 -1.5q-10 0 -14.5 4t-2.5 12zM430 131 q0 -61 145 -61q386 0 586 170q101 84 175.5 242.5t74.5 326.5q0 97 -36 188.5t-95 151.5q-89 92 -233 133q-103 27 -224 27q-94 0 -114 -6l-134 -555h293q31 0 21 -23l-15 -37q-3 -9 -10 -12.5t-26 -3.5h-283l-111 -455q-14 -65 -14 -86z" />
<glyph unicode="&#xd1;" horiz-adv-x="1527" d="M-31 16l6 37q3 17 19 17h55q73 0 114 46.5t79 164.5l282 901q18 56 -4.5 88.5t-113.5 32.5h-78q-23 0 -17 24l8 31q3 12 7.5 16t15.5 4q5 0 44 -1.5t119.5 -3t188.5 -1.5q11 0 18.5 -6t10.5 -11.5t7.5 -18.5t6.5 -17l441 -983q10 -22 16 -22q10 0 35 69l268 801 q20 58 2.5 88.5t-67.5 30.5h-72q-14 0 -19 5t-4 17l6 37q3 16 21 16q7 0 36 -1.5t81 -3t116 -1.5q63 0 117.5 3t59.5 3q24 0 18 -26l-6 -33q-2 -16 -19 -16h-51q-41 0 -64 -21.5t-48 -91.5l-398 -1137q-17 -50 -41.5 -51.5t-42.5 39.5l-487 1087q-9 20 -20 20t-17 -22 l-262 -866q-30 -92 -13.5 -141t83.5 -49h79q10 0 15.5 -6t3.5 -15l-6 -39q-3 -10 -7.5 -13t-17.5 -3q-5 0 -39 1.5t-93.5 3t-125.5 1.5q-62 0 -114.5 -1.5t-81 -3t-33.5 -1.5q-20 0 -17 22zM836 1546q-5 5 0 21q26 65 76 111t94 46q21 0 43.5 -2.5t32 -4.5t41 -9t36.5 -8 q43 -8 115 -8q68 0 104 65q7 15 17 8l30 -16q10 -5 -6 -35q-33 -59 -76 -97t-92 -38q-60 0 -135 16q-69 17 -133 17q-25 0 -55.5 -23t-48.5 -53q-8 -12 -17 -6z" />
<glyph unicode="&#xd2;" horiz-adv-x="1452" d="M209 590q0 154 59.5 303.5t156.5 261t229.5 180t271.5 68.5q234 0 386 -171t152 -444q0 -115 -30.5 -231t-92.5 -222t-147.5 -187.5t-204 -130t-252.5 -48.5q-222 0 -356 140q-172 175 -172 481zM365 457q0 -104 29 -185.5t77 -128.5t103.5 -70.5t115.5 -23.5 q162 0 306 131t226.5 332.5t82.5 409.5q0 172 -88 281.5t-252 109.5q-88 0 -158 -37.5t-143 -110.5q-132 -132 -215.5 -337.5t-83.5 -370.5zM678.5 1711q-3.5 35 19.5 61t52 26q32 0 77 -45l240 -227q11 -7 4 -17l-14 -20q-5 -5 -15 0l-319 166q-41 21 -44.5 56z" />
<glyph unicode="&#xd3;" horiz-adv-x="1452" d="M209 590q0 154 59.5 303.5t156.5 261t229.5 180t271.5 68.5q234 0 386 -171t152 -444q0 -115 -30.5 -231t-92.5 -222t-147.5 -187.5t-204 -130t-252.5 -48.5q-222 0 -356 140q-172 175 -172 481zM365 457q0 -104 29 -185.5t77 -128.5t103.5 -70.5t115.5 -23.5 q162 0 306 131t226.5 332.5t82.5 409.5q0 172 -88 281.5t-252 109.5q-88 0 -158 -37.5t-143 -110.5q-132 -132 -215.5 -337.5t-83.5 -370.5zM942 1513q-5 10 6 21l293 227q36 25 70 25q33 0 51.5 -30.5t10 -67t-45.5 -52.5l-356 -145q-13 -6 -17 2z" />
<glyph unicode="&#xd4;" horiz-adv-x="1452" d="M209 590q0 154 59.5 303.5t156.5 261t229.5 180t271.5 68.5q234 0 386 -171t152 -444q0 -115 -30.5 -231t-92.5 -222t-147.5 -187.5t-204 -130t-252.5 -48.5q-222 0 -356 140q-172 175 -172 481zM365 457q0 -104 29 -185.5t77 -128.5t103.5 -70.5t115.5 -23.5 q162 0 306 131t226.5 332.5t82.5 409.5q0 172 -88 281.5t-252 109.5q-88 0 -158 -37.5t-143 -110.5q-132 -132 -215.5 -337.5t-83.5 -370.5zM705 1522q-4 4 4 12l284 246q6 5 14.5 4t12.5 -8l145 -246q7 -10 -4 -17l-20 -18q-9 -7 -23 4l-141 123l-244 -127q-9 -3 -14 4z " />
<glyph unicode="&#xd5;" horiz-adv-x="1452" d="M209 590q0 154 59.5 303.5t156.5 261t229.5 180t271.5 68.5q234 0 386 -171t152 -444q0 -115 -30.5 -231t-92.5 -222t-147.5 -187.5t-204 -130t-252.5 -48.5q-222 0 -356 140q-172 175 -172 481zM365 457q0 -104 29 -185.5t77 -128.5t103.5 -70.5t115.5 -23.5 q162 0 306 131t226.5 332.5t82.5 409.5q0 172 -88 281.5t-252 109.5q-88 0 -158 -37.5t-143 -110.5q-132 -132 -215.5 -337.5t-83.5 -370.5zM705 1546q-5 5 0 21q26 65 75.5 111t93.5 46q17 0 32.5 -1t32.5 -4t27 -5t31.5 -7t30.5 -7q43 -8 115 -8q68 0 104 65q7 15 17 8 l30 -16q10 -5 -6 -35q-33 -59 -76 -97t-92 -38q-60 0 -135 16q-69 17 -133 17q-25 0 -55.5 -23t-48.5 -53q-8 -12 -17 -6z" />
<glyph unicode="&#xd6;" horiz-adv-x="1452" d="M209 590q0 154 59.5 303.5t156.5 261t229.5 180t271.5 68.5q234 0 386 -171t152 -444q0 -115 -30.5 -231t-92.5 -222t-147.5 -187.5t-204 -130t-252.5 -48.5q-222 0 -356 140q-172 175 -172 481zM365 457q0 -104 29 -185.5t77 -128.5t103.5 -70.5t115.5 -23.5 q162 0 306 131t226.5 332.5t82.5 409.5q0 172 -88 281.5t-252 109.5q-88 0 -158 -37.5t-143 -110.5q-132 -132 -215.5 -337.5t-83.5 -370.5zM696 1628q0 30 23.5 58t79.5 28q39 0 65.5 -24.5t26.5 -67.5q0 -40 -26.5 -65t-65.5 -25q-40 0 -71.5 21.5t-31.5 74.5zM1061 1628 q0 31 23 58.5t79 27.5q39 0 65.5 -24.5t26.5 -67.5q0 -40 -26.5 -65t-65.5 -25q-40 0 -71 21t-31 75z" />
<glyph unicode="&#xd7;" d="M168 176l293 289l-291 287l82 84l293 -295l293 295l77 -76l-294 -291l297 -293l-84 -86l-297 299l-297 -299z" />
<glyph unicode="&#xd8;" horiz-adv-x="1452" d="M209 590q0 154 59.5 303.5t156.5 261t229.5 180t271.5 68.5q187 0 321 -109l80 99q8 13 21 6l47 -35q13 -8 -9 -33l-77 -96q155 -168 155 -447q0 -115 -30.5 -231t-92.5 -222t-147.5 -187.5t-204 -130t-252.5 -48.5q-217 0 -350 133l-96 -118q-13 -17 -23 -7l-43 39 q-8 8 -2 19l109 133q-123 159 -123 422zM365 457q0 -120 36 -203l791 973q-83 86 -227 86q-88 0 -158 -37.5t-143 -110.5q-132 -132 -215.5 -337.5t-83.5 -370.5zM446 176q45 -63 110.5 -95t133.5 -32q162 0 306 131t226.5 332.5t82.5 409.5q0 143 -60 235z" />
<glyph unicode="&#xd9;" horiz-adv-x="1497" d="M260 344q0 102 43 256l174 576q22 69 8 98t-65 29h-74q-17 0 -14 16l10 43q2 9 7 12.5t20 3.5q7 0 38 -1.5t85.5 -3t119.5 -1.5q73 0 132 1.5t89.5 3t34.5 1.5q22 0 19 -20l-8 -39q-3 -16 -21 -16h-65q-30 0 -49.5 -5.5t-43 -33t-38.5 -78.5l-168 -547q-1 -5 -10.5 -37 t-16.5 -59t-15 -63.5t-13 -70t-5 -59.5q0 -73 27.5 -128.5t65.5 -85t86.5 -47.5t82.5 -23t62 -5q67 0 141.5 29t124.5 74q72 64 125 160.5t104 263.5l181 590q40 125 -76 125h-78q-13 0 -16.5 4t-1.5 12l6 39q3 11 8 15.5t18 4.5q7 0 39.5 -1.5t89 -3t121.5 -1.5 q52 0 94 1.5t64.5 3t28.5 1.5q13 0 16.5 -4.5t1.5 -15.5l-6 -39q-3 -16 -23 -16h-43q-46 0 -72 -24t-46 -71l-201 -637q-92 -297 -240 -449.5t-381 -152.5q-140 0 -245.5 40t-168.5 126t-63 209zM762.5 1711q-3.5 35 19.5 61t52 26q32 0 77 -45l240 -227q11 -7 4 -17 l-14 -20q-5 -5 -15 0l-319 166q-41 21 -44.5 56z" />
<glyph unicode="&#xda;" horiz-adv-x="1497" d="M260 344q0 102 43 256l174 576q22 69 8 98t-65 29h-74q-17 0 -14 16l10 43q2 9 7 12.5t20 3.5q7 0 38 -1.5t85.5 -3t119.5 -1.5q73 0 132 1.5t89.5 3t34.5 1.5q22 0 19 -20l-8 -39q-3 -16 -21 -16h-65q-30 0 -49.5 -5.5t-43 -33t-38.5 -78.5l-168 -547q-1 -5 -10.5 -37 t-16.5 -59t-15 -63.5t-13 -70t-5 -59.5q0 -73 27.5 -128.5t65.5 -85t86.5 -47.5t82.5 -23t62 -5q67 0 141.5 29t124.5 74q72 64 125 160.5t104 263.5l181 590q40 125 -76 125h-78q-13 0 -16.5 4t-1.5 12l6 39q3 11 8 15.5t18 4.5q7 0 39.5 -1.5t89 -3t121.5 -1.5 q52 0 94 1.5t64.5 3t28.5 1.5q13 0 16.5 -4.5t1.5 -15.5l-6 -39q-3 -16 -23 -16h-43q-46 0 -72 -24t-46 -71l-201 -637q-92 -297 -240 -449.5t-381 -152.5q-140 0 -245.5 40t-168.5 126t-63 209zM1067 1513q-5 10 6 21l293 227q36 25 70 25q33 0 51.5 -30.5t10 -67 t-45.5 -52.5l-356 -145q-13 -6 -17 2z" />
<glyph unicode="&#xdb;" horiz-adv-x="1497" d="M260 344q0 102 43 256l174 576q22 69 8 98t-65 29h-74q-17 0 -14 16l10 43q2 9 7 12.5t20 3.5q7 0 38 -1.5t85.5 -3t119.5 -1.5q73 0 132 1.5t89.5 3t34.5 1.5q22 0 19 -20l-8 -39q-3 -16 -21 -16h-65q-30 0 -49.5 -5.5t-43 -33t-38.5 -78.5l-168 -547q-1 -5 -10.5 -37 t-16.5 -59t-15 -63.5t-13 -70t-5 -59.5q0 -73 27.5 -128.5t65.5 -85t86.5 -47.5t82.5 -23t62 -5q67 0 141.5 29t124.5 74q72 64 125 160.5t104 263.5l181 590q40 125 -76 125h-78q-13 0 -16.5 4t-1.5 12l6 39q3 11 8 15.5t18 4.5q7 0 39.5 -1.5t89 -3t121.5 -1.5 q52 0 94 1.5t64.5 3t28.5 1.5q13 0 16.5 -4.5t1.5 -15.5l-6 -39q-3 -16 -23 -16h-43q-46 0 -72 -24t-46 -71l-201 -637q-92 -297 -240 -449.5t-381 -152.5q-140 0 -245.5 40t-168.5 126t-63 209zM911 1522q-4 4 4 12l285 246q6 5 14.5 4t12.5 -8l145 -246q7 -10 -4 -17 l-20 -18q-9 -7 -23 4l-141 123l-244 -127q-9 -3 -14 4z" />
<glyph unicode="&#xdc;" horiz-adv-x="1497" d="M260 344q0 102 43 256l174 576q22 69 8 98t-65 29h-74q-17 0 -14 16l10 43q2 9 7 12.5t20 3.5q7 0 38 -1.5t85.5 -3t119.5 -1.5q73 0 132 1.5t89.5 3t34.5 1.5q22 0 19 -20l-8 -39q-3 -16 -21 -16h-65q-30 0 -49.5 -5.5t-43 -33t-38.5 -78.5l-168 -547q-1 -5 -10.5 -37 t-16.5 -59t-15 -63.5t-13 -70t-5 -59.5q0 -73 27.5 -128.5t65.5 -85t86.5 -47.5t82.5 -23t62 -5q67 0 141.5 29t124.5 74q72 64 125 160.5t104 263.5l181 590q40 125 -76 125h-78q-13 0 -16.5 4t-1.5 12l6 39q3 11 8 15.5t18 4.5q7 0 39.5 -1.5t89 -3t121.5 -1.5 q52 0 94 1.5t64.5 3t28.5 1.5q13 0 16.5 -4.5t1.5 -15.5l-6 -39q-3 -16 -23 -16h-43q-46 0 -72 -24t-46 -71l-201 -637q-92 -297 -240 -449.5t-381 -152.5q-140 0 -245.5 40t-168.5 126t-63 209zM883 1628q0 31 23 58.5t79 27.5q39 0 65.5 -24.5t26.5 -67.5q0 -40 -26.5 -65 t-65.5 -25q-40 0 -71 21t-31 75zM1247 1628q0 30 23.5 58t79.5 28q39 0 65.5 -24.5t26.5 -67.5q0 -40 -26.5 -65t-65.5 -25q-40 0 -71.5 21.5t-31.5 74.5z" />
<glyph unicode="&#xdd;" horiz-adv-x="1105" d="M94 1319l8 43q1 10 5.5 13t15.5 3l67 -3q67 -3 148 -3q69 0 125.5 1.5t87.5 3t39 1.5q21 0 18 -16l-4 -43q-3 -16 -18 -16h-54q-37 0 -55 -15t-17.5 -37t7.5 -47l190 -569q10 -35 31 -8q61 83 211.5 303.5t165.5 261.5q21 58 3 84.5t-79 26.5h-41q-17 0 -14 20l4 39 q1 10 6 13t19 3q4 0 79.5 -3t145.5 -3q67 0 132.5 3t68.5 3q13 0 17.5 -4t2.5 -12l-6 -39q-3 -20 -17 -20h-38q-50 0 -83.5 -23t-76.5 -78q-49 -63 -432 -604q-29 -40 -39.5 -57t-23.5 -49t-23 -76l-52 -232q-7 -31 -7 -52t5 -33t18 -18.5t27 -8.5t37 -2h62q17 0 14 -17 l-6 -43q-3 -16 -23 -16l-78 3q-78 3 -169 3q-75 0 -133 -1.5t-88 -3t-35 -1.5q-10 0 -14 3.5t-3 12.5l8 43q0 17 19 17h59q66 0 93.5 27t39.5 81l68 303q4 20 0 57t-10 54l-221 633q-27 78 -125 78h-47q-18 0 -15 16zM791 1513q-5 10 6 21l293 227q36 25 69 25t52 -30.5 t10.5 -67t-45.5 -52.5l-357 -145q-12 -6 -16 2z" />
<glyph unicode="&#xde;" horiz-adv-x="1257" d="M41 14l4 35q3 21 23 21h43q75 0 107.5 41t53.5 122l244 926q8 29 10.5 51t-1.5 45t-22.5 35.5t-51.5 12.5h-95q-16 0 -12 20l12 41q4 14 23 14q8 0 41 -1.5t91 -3t128 -1.5q83 0 162 3t80 3q20 0 25 -4t3 -16l-6 -35q-2 -11 -6.5 -15.5t-15.5 -4.5h-62q-92 0 -129 -127 l-18 -62q16 -2 67 -2q158 0 247 -19t159 -77q69 -58 96 -117.5t27 -161.5q0 -64 -21 -125t-68 -117.5t-114 -98.5t-167 -67.5t-220 -25.5q-141 0 -215 14l-25 -98q-34 -149 70 -149h78q20 0 16 -21l-6 -39q-3 -10 -7.5 -13t-17.5 -3q-7 0 -41.5 1.5t-96.5 3t-134 1.5 q-61 0 -114.5 -1.5t-85 -3t-38.5 -1.5q-23 0 -20 20zM479 387q58 -18 180 -18q110 0 195.5 35.5t134.5 93t73.5 123t24.5 133.5q0 70 -23.5 124t-58.5 85t-83.5 51t-92.5 26.5t-90 6.5q-61 0 -84 -5z" />
<glyph unicode="&#xdf;" horiz-adv-x="937" d="M-461 -487q0 36 24.5 62t61.5 26q32 0 56.5 -26t29.5 -54q10 -47 47 -47q66 0 131.5 92.5t118.5 249.5q55 166 146.5 495t146.5 486q55 160 111.5 274.5t134.5 194.5q53 55 131 96t168 41q88 0 146.5 -46.5t58.5 -119.5q0 -94 -47.5 -173t-139.5 -165q-4 -4 -29.5 -27.5 t-39 -39t-33 -41.5t-28.5 -55t-9 -60q0 -41 14.5 -83.5t36.5 -82t23 -41.5q1 -3 12 -22.5t21 -39.5t21 -48t17.5 -60t6.5 -63q0 -115 -80 -185.5t-191 -70.5q-88 0 -140 31.5t-52 82.5q0 24 19.5 46t49.5 22q61 0 84 -66q10 -31 24.5 -44t49.5 -13q46 0 80.5 36t34.5 89 q0 39 -15 80.5t-40.5 90.5t-32.5 66q-3 7 -15.5 32t-21.5 46.5t-17 56t-8 68.5t11 68.5t24 59t38 56t38.5 45.5t42 41.5t31.5 30.5q62 62 88 129t26 154q0 60 -36 100.5t-95 40.5q-28 0 -54 -8.5t-46.5 -20.5t-40.5 -36.5t-35 -46t-31.5 -58.5t-27.5 -65t-26.5 -76t-25 -80 t-26.5 -88t-27 -90q-14 -45 -67.5 -227t-100 -330t-90.5 -266q-96 -261 -220 -403t-286 -142q-49 0 -90 36.5t-41 84.5z" />
<glyph unicode="&#xe0;" horiz-adv-x="931" d="M70 111q0 109 57 241.5t141.5 241.5t190.5 183.5t196 74.5q104 0 146 -70l39 56q10 14 20 14h72q6 0 7.5 -6t-1.5 -12q-26 -56 -85 -212t-69 -188q-98 -286 -98 -307q0 -25 23 -25q16 0 71 51.5t72 73.5q11 11 16 4l19 -20q9 -9 4 -16q-10 -17 -44 -51t-79.5 -71.5 t-99.5 -65t-95 -27.5q-43 0 -43 34q0 37 99 312l-11 4q-48 -72 -119 -149t-161.5 -139t-157.5 -62q-41 0 -75.5 34t-34.5 97zM219 160q0 -72 55 -72q47 0 139 87.5t166 182.5t95 138q49 100 49 170q0 50 -22 85t-74 35q-67 0 -142.5 -70.5t-132.5 -169.5t-95 -206t-38 -180z M441.5 1193q-1.5 30 17 51.5t45.5 21.5q17 0 30.5 -8t18.5 -14t22 -27l173 -228q8 -8 0 -16l-15 -17q-7 -11 -18 0l-246 187q-26 20 -27.5 50z" />
<glyph unicode="&#xe1;" horiz-adv-x="931" d="M70 111q0 109 57 241.5t141.5 241.5t190.5 183.5t196 74.5q104 0 146 -70l39 56q10 14 20 14h72q6 0 7.5 -6t-1.5 -12q-26 -56 -85 -212t-69 -188q-98 -286 -98 -307q0 -25 23 -25q16 0 71 51.5t72 73.5q11 11 16 4l19 -20q9 -9 4 -16q-10 -17 -44 -51t-79.5 -71.5 t-99.5 -65t-95 -27.5q-43 0 -43 34q0 37 99 312l-11 4q-48 -72 -119 -149t-161.5 -139t-157.5 -62q-41 0 -75.5 34t-34.5 97zM219 160q0 -72 55 -72q47 0 139 87.5t166 182.5t95 138q49 100 49 170q0 50 -22 85t-74 35q-67 0 -142.5 -70.5t-132.5 -169.5t-95 -206t-38 -180z M639 977q-4 4 8 16l258 211q36 31 72 31q16 0 29.5 -10t19.5 -26t5.5 -33.5t-14 -35.5t-38.5 -30l-309 -146q-13 -6 -17 2z" />
<glyph unicode="&#xe2;" horiz-adv-x="931" d="M70 111q0 109 57 241.5t141.5 241.5t190.5 183.5t196 74.5q104 0 146 -70l39 56q10 14 20 14h72q6 0 7.5 -6t-1.5 -12q-26 -56 -85 -212t-69 -188q-98 -286 -98 -307q0 -25 23 -25q16 0 71 51.5t72 73.5q11 11 16 4l19 -20q9 -9 4 -16q-10 -17 -44 -51t-79.5 -71.5 t-99.5 -65t-95 -27.5q-43 0 -43 34q0 37 99 312l-11 4q-48 -72 -119 -149t-161.5 -139t-157.5 -62q-41 0 -75.5 34t-34.5 97zM219 160q0 -72 55 -72q47 0 139 87.5t166 182.5t95 138q49 100 49 170q0 50 -22 85t-74 35q-67 0 -142.5 -70.5t-132.5 -169.5t-95 -206t-38 -180z M489 989q-4 4 7 15l256 262q14 10 20 -9l92 -266q7 -10 -2 -16l-16 -8q-10 -7 -17 0l-108 135l-205 -133q-10 -5 -14 2z" />
<glyph unicode="&#xe3;" horiz-adv-x="931" d="M70 111q0 109 57 241.5t141.5 241.5t190.5 183.5t196 74.5q104 0 146 -70l39 56q10 14 20 14h72q6 0 7.5 -6t-1.5 -12q-26 -56 -85 -212t-69 -188q-98 -286 -98 -307q0 -25 23 -25q16 0 71 51.5t72 73.5q11 11 16 4l19 -20q9 -9 4 -16q-10 -17 -44 -51t-79.5 -71.5 t-99.5 -65t-95 -27.5q-43 0 -43 34q0 37 99 312l-11 4q-48 -72 -119 -149t-161.5 -139t-157.5 -62q-41 0 -75.5 34t-34.5 97zM219 160q0 -72 55 -72q47 0 139 87.5t166 182.5t95 138q49 100 49 170q0 50 -22 85t-74 35q-67 0 -142.5 -70.5t-132.5 -169.5t-95 -206t-38 -180z M444 993q-6 6 2 21q25 60 72.5 103.5t97.5 43.5q38 0 103 -20q50 -13 94 -13q29 0 53.5 20t38.5 46q7 14 17 8l30 -16q10 -5 -8 -35q-28 -50 -72 -86.5t-84 -36.5q-34 0 -116 21q-43 12 -80 12q-26 0 -57.5 -24t-49.5 -54q-7 -11 -14 -6z" />
<glyph unicode="&#xe4;" horiz-adv-x="931" d="M70 111q0 109 57 241.5t141.5 241.5t190.5 183.5t196 74.5q104 0 146 -70l39 56q10 14 20 14h72q6 0 7.5 -6t-1.5 -12q-26 -56 -85 -212t-69 -188q-98 -286 -98 -307q0 -25 23 -25q16 0 71 51.5t72 73.5q11 11 16 4l19 -20q9 -9 4 -16q-10 -17 -44 -51t-79.5 -71.5 t-99.5 -65t-95 -27.5q-43 0 -43 34q0 37 99 312l-11 4q-48 -72 -119 -149t-161.5 -139t-157.5 -62q-41 0 -75.5 34t-34.5 97zM219 160q0 -72 55 -72q47 0 139 87.5t166 182.5t95 138q49 100 49 170q0 50 -22 85t-74 35q-67 0 -142.5 -70.5t-132.5 -169.5t-95 -206t-38 -180z M492 1214q0 28 22 54t72 26q35 0 59.5 -23t24.5 -63q0 -37 -24 -59.5t-60 -22.5t-65 20t-29 68zM770 1214q0 28 22 54t72 26q35 0 59.5 -23t24.5 -63q0 -37 -24 -59.5t-60 -22.5t-65 20t-29 68z" />
<glyph unicode="&#xe5;" horiz-adv-x="931" d="M70 111q0 109 57 241.5t141.5 241.5t190.5 183.5t196 74.5q104 0 146 -70l39 56q10 14 20 14h72q6 0 7.5 -6t-1.5 -12q-26 -56 -85 -212t-69 -188q-98 -286 -98 -307q0 -25 23 -25q16 0 71 51.5t72 73.5q11 11 16 4l19 -20q9 -9 4 -16q-10 -17 -44 -51t-79.5 -71.5 t-99.5 -65t-95 -27.5q-43 0 -43 34q0 37 99 312l-11 4q-48 -72 -119 -149t-161.5 -139t-157.5 -62q-41 0 -75.5 34t-34.5 97zM219 160q0 -72 55 -72q47 0 139 87.5t166 182.5t95 138q49 100 49 170q0 50 -22 85t-74 35q-67 0 -142.5 -70.5t-132.5 -169.5t-95 -206t-38 -180z M508 1124q0 74 62 118t147 44q84 0 136 -39t52 -114q0 -67 -57 -108.5t-146 -41.5q-85 0 -139.5 38.5t-54.5 102.5zM606 1130q0 -47 31.5 -73.5t73.5 -26.5q38 0 67 28t29 77q0 53 -31.5 77.5t-68.5 24.5q-40 0 -70.5 -27.5t-30.5 -79.5z" />
<glyph unicode="&#xe6;" horiz-adv-x="1105" d="M33 82q0 69 39.5 154t106 169.5t159.5 166t194.5 143t216.5 99.5t220 38q85 0 125.5 -35.5t40.5 -91.5q0 -125 -183 -262q-103 -77 -331 -219q-2 -76 27 -122t79 -46q70 0 132.5 43t98.5 102q7 11 19 2l22 -18q10 -8 2 -19q-23 -32 -52.5 -63.5t-72 -66t-96.5 -55.5 t-110 -21q-181 0 -191 174q-212 -174 -352 -174q-42 0 -68 31.5t-26 70.5zM182 152q0 -33 15 -50.5t39 -17.5q69 0 241 131q19 96 49.5 176.5t69.5 141t62.5 90.5t58.5 69q20 22 17 31.5t-25 9.5q-44 0 -132 -61.5t-175 -148t-153 -191t-67 -180.5zM627 307q168 105 248 177 q124 112 124 200q0 34 -18 56t-49 22q-92 0 -185 -135.5t-120 -319.5z" />
<glyph unicode="&#xe7;" horiz-adv-x="618" d="M-23 -393q0 33 37 33q57 0 104.5 29.5t47.5 66.5q0 25 -21 49t-57 37l117 164q-49 10 -83 56t-34 126q0 140 65.5 299t176 272t223.5 113q63 0 90 -37.5t27 -77.5q0 -35 -27 -60.5t-57 -25.5q-42 0 -54 45q-5 20 -22.5 37t-40.5 17q-38 0 -77 -36.5t-73 -105.5 q-38 -82 -63 -192.5t-25 -165.5q0 -101 23 -135.5t59 -34.5q52 0 102.5 37t78.5 73q10 14 18 9l23 -21q12 -8 2 -22q-30 -43 -104.5 -101t-151.5 -71l-86 -121q84 -41 84 -119q0 -50 -54.5 -92.5t-113.5 -62t-95 -19.5q-39 0 -39 37z" />
<glyph unicode="&#xe8;" horiz-adv-x="714" d="M90 180q0 127 73.5 275t188.5 260q56 56 131.5 96.5t143.5 40.5q56 0 86 -33.5t30 -75.5q0 -75 -52 -148.5t-138 -117.5q-145 -72 -297 -84q-27 -67 -27 -188q0 -62 35.5 -95.5t71.5 -33.5q70 0 133.5 43.5t99.5 101.5q8 13 19 2l22 -18q15 -9 2 -19q-23 -32 -52.5 -63.5 t-72 -66t-96.5 -55.5t-110 -21q-99 0 -145 49t-46 151zM272 453q23 -2 63 6.5t88 28.5t90 47t70.5 66.5t28.5 82.5q0 33 -16.5 55.5t-48.5 22.5q-46 0 -95.5 -37.5t-86 -89.5t-61.5 -102t-32 -80zM373.5 1193q-1.5 30 17 51.5t45.5 21.5q17 0 30.5 -7.5t19.5 -14.5t22 -27 l172 -228q8 -8 0 -16l-14 -17q-8 -11 -19 0l-246 187q-26 20 -27.5 50z" />
<glyph unicode="&#xe9;" horiz-adv-x="714" d="M90 180q0 127 73.5 275t188.5 260q56 56 131.5 96.5t143.5 40.5q56 0 86 -33.5t30 -75.5q0 -75 -52 -148.5t-138 -117.5q-145 -72 -297 -84q-27 -67 -27 -188q0 -62 35.5 -95.5t71.5 -33.5q70 0 133.5 43.5t99.5 101.5q8 13 19 2l22 -18q15 -9 2 -19q-23 -32 -52.5 -63.5 t-72 -66t-96.5 -55.5t-110 -21q-99 0 -145 49t-46 151zM272 453q23 -2 63 6.5t88 28.5t90 47t70.5 66.5t28.5 82.5q0 33 -16.5 55.5t-48.5 22.5q-46 0 -95.5 -37.5t-86 -89.5t-61.5 -102t-32 -80zM530 977q-4 3 9 16l258 211q36 31 71 31q16 0 29.5 -10t19.5 -26t5.5 -33.5 t-14 -35.5t-38.5 -30l-309 -146q-12 -6 -16 2z" />
<glyph unicode="&#xea;" horiz-adv-x="714" d="M90 180q0 127 73.5 275t188.5 260q56 56 131.5 96.5t143.5 40.5q56 0 86 -33.5t30 -75.5q0 -75 -52 -148.5t-138 -117.5q-145 -72 -297 -84q-27 -67 -27 -188q0 -62 35.5 -95.5t71.5 -33.5q70 0 133.5 43.5t99.5 101.5q8 13 19 2l22 -18q15 -9 2 -19q-23 -32 -52.5 -63.5 t-72 -66t-96.5 -55.5t-110 -21q-99 0 -145 49t-46 151zM272 453q23 -2 63 6.5t88 28.5t90 47t70.5 66.5t28.5 82.5q0 33 -16.5 55.5t-48.5 22.5q-46 0 -95.5 -37.5t-86 -89.5t-61.5 -102t-32 -80zM422 989q-4 5 6 15l256 262q14 11 21 -9l92 -266q7 -10 -2 -16l-17 -8 q-10 -6 -16 0l-109 135l-204 -133q-10 -5 -15 2z" />
<glyph unicode="&#xeb;" horiz-adv-x="714" d="M90 180q0 127 73.5 275t188.5 260q56 56 131.5 96.5t143.5 40.5q56 0 86 -33.5t30 -75.5q0 -75 -52 -148.5t-138 -117.5q-145 -72 -297 -84q-27 -67 -27 -188q0 -62 35.5 -95.5t71.5 -33.5q70 0 133.5 43.5t99.5 101.5q8 13 19 2l22 -18q15 -9 2 -19q-23 -32 -52.5 -63.5 t-72 -66t-96.5 -55.5t-110 -21q-99 0 -145 49t-46 151zM272 453q23 -2 63 6.5t88 28.5t90 47t70.5 66.5t28.5 82.5q0 33 -16.5 55.5t-48.5 22.5q-46 0 -95.5 -37.5t-86 -89.5t-61.5 -102t-32 -80zM424 1214q0 28 22 54t72 26q35 0 59.5 -23t24.5 -63q0 -37 -24 -59.5 t-60 -22.5t-65 20t-29 68zM702 1214q0 28 22.5 54t72.5 26q35 0 59.5 -23t24.5 -63q0 -37 -24 -59.5t-60 -22.5t-65.5 20t-29.5 68z" />
<glyph unicode="&#xec;" horiz-adv-x="587" d="M133 600q6 10 40.5 46.5t86.5 85.5t114 85.5t107 34.5q20 0 34.5 -13t14.5 -38q0 -45 -69 -228l-119 -311q-37 -104 -37 -135q0 -29 23 -35q28 5 90.5 64.5t73.5 79.5q7 10 22 -5l16 -14q11 -14 5 -24q-7 -10 -24.5 -29t-54 -52.5t-76 -61.5t-92 -49t-100.5 -21 q-34 3 -34 51q0 30 21.5 95.5t79.5 223.5q4 11 6.5 17t6 16t6.5 18l60 160q37 102 37 121q0 27 -29 27q-10 0 -27 -11.5t-37 -30.5t-37.5 -36.5t-37 -38.5t-25.5 -27q-12 -12 -22 -2l-17 19q-12 9 -6 18zM228.5 1193q-1.5 30 17 51.5t45.5 21.5q17 0 30.5 -8t18.5 -14 t22 -27l173 -228q8 -8 0 -16l-15 -17q-7 -11 -18 0l-246 187q-26 20 -27.5 50z" />
<glyph unicode="&#xed;" horiz-adv-x="587" d="M133 600q6 10 40.5 46.5t86.5 85.5t114 85.5t107 34.5q20 0 34.5 -13t14.5 -38q0 -45 -69 -228l-119 -311q-37 -104 -37 -135q0 -29 23 -35q28 5 90.5 64.5t73.5 79.5q7 10 22 -5l16 -14q11 -14 5 -24q-7 -10 -24.5 -29t-54 -52.5t-76 -61.5t-92 -49t-100.5 -21 q-34 3 -34 51q0 30 21.5 95.5t79.5 223.5q4 11 6.5 17t6 16t6.5 18l60 160q37 102 37 121q0 27 -29 27q-10 0 -27 -11.5t-37 -30.5t-37.5 -36.5t-37 -38.5t-25.5 -27q-12 -12 -22 -2l-17 19q-12 9 -6 18zM426 977q-4 4 8 16l258 211q36 31 72 31q16 0 29.5 -10t19.5 -26 t5.5 -33.5t-14 -35.5t-38.5 -30l-309 -146q-13 -6 -17 2z" />
<glyph unicode="&#xee;" horiz-adv-x="587" d="M133 600q6 10 40.5 46.5t86.5 85.5t114 85.5t107 34.5q20 0 34.5 -13t14.5 -38q0 -45 -69 -228l-119 -311q-37 -104 -37 -135q0 -29 23 -35q28 5 90.5 64.5t73.5 79.5q7 10 22 -5l16 -14q11 -14 5 -24q-7 -10 -24.5 -29t-54 -52.5t-76 -61.5t-92 -49t-100.5 -21 q-34 3 -34 51q0 30 21.5 95.5t79.5 223.5q4 11 6.5 17t6 16t6.5 18l60 160q37 102 37 121q0 27 -29 27q-10 0 -27 -11.5t-37 -30.5t-37.5 -36.5t-37 -38.5t-25.5 -27q-12 -12 -22 -2l-17 19q-12 9 -6 18zM297 989q-5 5 6 15l256 262q14 11 21 -9l92 -266q7 -10 -2 -16 l-17 -8q-10 -6 -16 0l-109 135l-204 -133q-10 -5 -15 2z" />
<glyph unicode="&#xef;" horiz-adv-x="587" d="M133 600q6 10 40.5 46.5t86.5 85.5t114 85.5t107 34.5q20 0 34.5 -13t14.5 -38q0 -45 -69 -228l-119 -311q-37 -97 -37 -135q0 -29 23 -35q28 5 90.5 64.5t73.5 79.5q7 10 22 -5l16 -14q11 -14 5 -24q-7 -10 -24.5 -29t-54 -52.5t-76 -61.5t-92 -49t-100.5 -21 q-34 3 -34 51q0 33 24.5 107.5t95.5 262.5l60 160q37 102 37 121q0 27 -29 27q-10 0 -27 -11.5t-37 -30.5t-37.5 -36.5t-37 -38.5t-25.5 -27q-12 -12 -22 -2l-17 19q-12 9 -6 18zM299 1214q0 28 22 54t72 26q35 0 59.5 -23t24.5 -63q0 -37 -24 -59.5t-60 -22.5t-65 20 t-29 68zM578 1214q0 28 22 54t72 26q35 0 59.5 -23t24.5 -63q0 -37 -24 -59.5t-60 -22.5t-65 20t-29 68z" />
<glyph unicode="&#xf0;" horiz-adv-x="847" d="M115 254q0 73 18 153t55.5 159.5t88.5 143t125.5 103t158.5 39.5q74 0 117 -37q-10 150 -64 299l-219 -74q-14 -6 -18 9l-12 45q-3 11 10 14l219 72q-55 112 -111 168q-13 11 -4 20l35 31q7 5 18 -2q27 -17 79.5 -77t76.5 -108l152 52q14 6 18 -7l14 -38q3 -6 0.5 -11.5 t-8.5 -7.5l-145 -49q98 -196 98 -455q0 -83 -19.5 -178.5t-59.5 -191t-95 -172.5t-133 -125.5t-166 -48.5q-25 0 -48.5 3.5t-58.5 20t-60 44t-43.5 81t-18.5 125.5zM229 166q0 -39 26 -80.5t75 -44.5q65 1 131.5 74t113 173.5t76 205t29.5 172.5q0 60 -30 91t-77 31 q-61 0 -139 -83t-143 -254q-62 -166 -62 -285z" />
<glyph unicode="&#xf1;" horiz-adv-x="1062" d="M125 18l145 379q107 277 107 310q0 34 -31 34q-26 0 -79.5 -46.5t-92.5 -90.5q-9 -9 -20 2l-19 19q-11 11 -4 20q14 17 32.5 36.5t54.5 52t72 57t83 43t88 18.5q32 0 48.5 -18.5t16.5 -42.5q0 -28 -21.5 -91t-50.5 -134.5t-32 -80.5l8 -4q21 33 54.5 76.5t84 96.5t103 96 t113 72.5t112.5 29.5q46 0 74 -22.5t28 -61.5q0 -57 -23.5 -128t-77.5 -203q-3 -7 -4.5 -11t-4 -9.5t-4.5 -10.5q-9 -22 -23 -56t-22 -54t-19 -47t-17 -44t-12.5 -34.5t-9 -29t-2.5 -18.5q0 -10 7 -18.5t18 -8.5q21 0 70.5 38t76.5 67q13 10 23 -4l14 -17q11 -11 2 -22 q-33 -43 -135.5 -110.5t-191.5 -67.5q-50 0 -50 40q0 17 19.5 69.5t57 146.5t61.5 161q7 18 37 95t47.5 128.5t17.5 71.5q0 47 -51 47q-59 0 -181.5 -111t-191.5 -222q-69 -110 -123 -256l-51 -138q-6 -12 -29 -12h-80q-17 0 -21 3.5t-1 14.5zM530 993q-6 6 2 21 q25 60 72.5 103.5t97.5 43.5q38 0 103 -20q50 -13 94 -13q29 0 53.5 20t38.5 46q7 14 17 8l30 -16q10 -5 -8 -35q-28 -50 -72 -86.5t-84 -36.5q-34 0 -116 21q-43 12 -80 12q-26 0 -57.5 -24t-49.5 -54q-7 -11 -14 -6z" />
<glyph unicode="&#xf2;" horiz-adv-x="813" d="M106 244q0 97 35.5 204t95.5 197t149 148.5t187 58.5q101 0 160.5 -67t59.5 -173q0 -69 -20.5 -152t-62 -167.5t-97 -154.5t-133.5 -114t-163 -44q-87 0 -149 74.5t-62 189.5zM193 182q0 -48 27.5 -76t66.5 -28q61 0 125.5 45.5t116 115t94 147t65.5 147t23 110.5 q2 49 -26 82t-77 33q-67 0 -145 -62t-152 -182q-118 -187 -118 -332zM361.5 1193q-1.5 30 17 51.5t45.5 21.5q17 0 30.5 -7.5t19.5 -14.5t22 -27l172 -228q8 -8 0 -16l-15 -17q-7 -11 -18 0l-246 187q-26 20 -27.5 50z" />
<glyph unicode="&#xf3;" horiz-adv-x="813" d="M106 244q0 97 35.5 204t95.5 197t149 148.5t187 58.5q101 0 160.5 -67t59.5 -173q0 -69 -20.5 -152t-62 -167.5t-97 -154.5t-133.5 -114t-163 -44q-87 0 -149 74.5t-62 189.5zM193 182q0 -48 27.5 -76t66.5 -28q61 0 125.5 45.5t116 115t94 147t65.5 147t23 110.5 q2 49 -26 82t-77 33q-67 0 -145 -62t-152 -182q-118 -187 -118 -332zM539 977q-4 4 8 16l258 211q36 31 72 31q16 0 29.5 -10t19.5 -26t5.5 -33.5t-14 -35.5t-38.5 -30l-310 -146q-12 -6 -16 2z" />
<glyph unicode="&#xf4;" horiz-adv-x="813" d="M106 244q0 97 35.5 204t95.5 197t149 148.5t187 58.5q101 0 160.5 -67t59.5 -173q0 -69 -20.5 -152t-62 -167.5t-97 -154.5t-133.5 -114t-163 -44q-87 0 -149 74.5t-62 189.5zM193 182q0 -48 27.5 -76t66.5 -28q61 0 125.5 45.5t116 115t94 147t65.5 147t23 110.5 q2 49 -26 82t-77 33q-67 0 -145 -62t-152 -182q-118 -187 -118 -332zM410 989q-4 5 6 15l256 262q14 10 20 -9l92 -266q7 -10 -2 -16l-16 -8q-10 -6 -16 0l-109 135l-205 -133q-10 -5 -14 2z" />
<glyph unicode="&#xf5;" horiz-adv-x="813" d="M106 244q0 97 35.5 204t95.5 197t149 148.5t187 58.5q101 0 160.5 -67t59.5 -173q0 -69 -20.5 -152t-62 -167.5t-97 -154.5t-133.5 -114t-163 -44q-87 0 -149 74.5t-62 189.5zM193 182q0 -48 27.5 -76t66.5 -28q61 0 125.5 45.5t116 115t94 147t65.5 147t23 110.5 q2 49 -26 82t-77 33q-67 0 -145 -62t-152 -182q-118 -187 -118 -332zM344 993q-6 6 2 21q25 60 72.5 103.5t97.5 43.5q37 0 102 -20q50 -13 95 -13q29 0 53.5 20t38.5 46q7 14 16 8l31 -16q10 -5 -8 -35q-28 -50 -72 -86.5t-84 -36.5q-35 0 -117 21q-44 12 -79 12 q-26 0 -57.5 -24t-49.5 -54q-7 -11 -14 -6z" />
<glyph unicode="&#xf6;" horiz-adv-x="813" d="M106 244q0 97 35.5 204t95.5 197t149 148.5t187 58.5q101 0 160.5 -67t59.5 -173q0 -69 -20.5 -152t-62 -167.5t-97 -154.5t-133.5 -114t-163 -44q-87 0 -149 74.5t-62 189.5zM193 182q0 -48 27.5 -76t66.5 -28q61 0 125.5 45.5t116 115t93.5 147t65 147t24 110.5 q0 50 -27 82.5t-76 32.5q-67 0 -145 -62t-152 -182q-118 -187 -118 -332zM432 1214q0 28 22 54t72 26q35 0 59.5 -23t24.5 -63q0 -37 -24 -59.5t-60 -22.5t-65 20t-29 68zM711 1214q0 28 22 54t72 26q35 0 59.5 -23t24.5 -63q0 -37 -24 -59.5t-60 -22.5t-65 20t-29 68z" />
<glyph unicode="&#xf7;" d="M147 436v111h795v-111h-795zM432 170q0 45 33 77t82 32q47 0 79.5 -32t32.5 -77q0 -44 -32.5 -74t-79.5 -30q-49 0 -82 30t-33 74zM432 811q0 46 33 76.5t82 30.5q47 0 79.5 -30.5t32.5 -76.5q0 -44 -32.5 -75t-79.5 -31q-49 0 -82 30.5t-33 75.5z" />
<glyph unicode="&#xf8;" horiz-adv-x="813" d="M37 2q-4 8 4 16l92 93q-27 83 -27 133q0 99 36 206t96.5 196.5t150.5 147.5t189 58q104 0 161 -74l74 86q11 11 18 4l41 -32q10 -7 0 -17l-96 -106q17 -71 17 -101q0 -69 -20 -152t-61 -167.5t-96 -154.5t-132 -114t-162 -44q-92 0 -150 71l-84 -88q-7 -7 -14 0zM193 172 l495 551q-23 35 -76 35q-67 0 -144.5 -59.5t-158.5 -186.5q-59 -93 -90 -191t-26 -149zM221 106q22 -28 70 -28q49 0 101 31t96.5 80.5t85.5 112t70 126t47 122.5t20 101l-4 4z" />
<glyph unicode="&#xf9;" horiz-adv-x="991" d="M123 63q1 19 7.5 45t22 65.5t29.5 72.5t41 95.5t45 104.5q13 30 30.5 71t28.5 66t21.5 51.5t15.5 44t5 28.5q0 13 -9.5 20.5t-23.5 7.5q-25 0 -82 -45.5t-78 -71.5q-9 -9 -18 0l-19 19q-10 6 2 18q9 11 38 39t74.5 65.5t102 65t101.5 27.5q28 0 43.5 -23t15.5 -51 q0 -66 -133 -354q-109 -240 -109 -297q0 -17 9.5 -26t25.5 -9q38 0 96.5 42t116 103.5t102 116t70.5 92.5q62 91 94 175l72 196q5 14 29 14h84q24 0 18 -18l-157 -426q-86 -233 -86 -266q0 -13 2.5 -16.5t13.5 -8.5q21 0 83.5 52t76.5 75q8 13 18 0l21 -20q8 -8 0 -19 q-3 -5 -23.5 -24.5t-58 -50.5t-78.5 -59.5t-89.5 -49t-88.5 -20.5q-39 0 -39 47q0 11 24 76t65 168t42 106l-12 6q-41 -59 -89 -117.5t-118 -128.5t-149 -113.5t-150 -43.5q-31 0 -53 23.5t-23 59.5zM451.5 1193q-1.5 30 17 51.5t45.5 21.5q17 0 30.5 -7.5t19.5 -14.5 t22 -27l172 -228q8 -8 0 -16l-15 -17q-7 -11 -18 0l-246 187q-26 20 -27.5 50z" />
<glyph unicode="&#xfa;" horiz-adv-x="991" d="M123 63q1 19 7.5 45t22 65.5t29.5 72.5t41 95.5t45 104.5q13 30 30.5 71t28.5 66t21.5 51.5t15.5 44t5 28.5q0 13 -9.5 20.5t-23.5 7.5q-25 0 -82 -45.5t-78 -71.5q-9 -9 -18 0l-19 19q-10 6 2 18q9 11 38 39t74.5 65.5t102 65t101.5 27.5q28 0 43.5 -23t15.5 -51 q0 -66 -133 -354q-109 -240 -109 -297q0 -17 9.5 -26t25.5 -9q38 0 96.5 42t116 103.5t102 116t70.5 92.5q62 91 94 175l72 196q5 14 29 14h84q24 0 18 -18l-157 -426q-86 -233 -86 -266q0 -13 2.5 -16.5t13.5 -8.5q21 0 83.5 52t76.5 75q8 13 18 0l21 -20q8 -8 0 -19 q-3 -5 -23.5 -24.5t-58 -50.5t-78.5 -59.5t-89.5 -49t-88.5 -20.5q-39 0 -39 47q0 11 24 76t65 168t42 106l-12 6q-41 -59 -89 -117.5t-118 -128.5t-149 -113.5t-150 -43.5q-31 0 -53 23.5t-23 59.5zM670 977q-4 4 8 16l258 211q36 31 72 31q16 0 29.5 -10t19.5 -26 t5.5 -33.5t-14 -35.5t-38.5 -30l-310 -146q-12 -6 -16 2z" />
<glyph unicode="&#xfb;" horiz-adv-x="991" d="M123 63q1 19 7.5 45t22 65.5t29.5 72.5t41 95.5t45 104.5q13 30 30.5 71t28.5 66t21.5 51.5t15.5 44t5 28.5q0 13 -9.5 20.5t-23.5 7.5q-25 0 -82 -45.5t-78 -71.5q-9 -9 -18 0l-19 19q-10 6 2 18q9 11 38 39t74.5 65.5t102 65t101.5 27.5q28 0 43.5 -23t15.5 -51 q0 -66 -133 -354q-109 -240 -109 -297q0 -17 9.5 -26t25.5 -9q38 0 96.5 42t116 103.5t102 116t70.5 92.5q62 91 94 175l72 196q5 14 29 14h84q24 0 18 -18l-157 -426q-86 -233 -86 -266q0 -13 2.5 -16.5t13.5 -8.5q21 0 83.5 52t76.5 75q8 13 18 0l21 -20q8 -8 0 -19 q-3 -5 -23.5 -24.5t-58 -50.5t-78.5 -59.5t-89.5 -49t-88.5 -20.5q-39 0 -39 47q0 11 24 76t65 168t42 106l-12 6q-41 -59 -89 -117.5t-118 -128.5t-149 -113.5t-150 -43.5q-31 0 -53 23.5t-23 59.5zM520 989q-4 5 6 15l256 262q14 11 21 -9l92 -266q7 -10 -2 -16l-16 -8 q-10 -7 -17 0l-108 135l-205 -133q-10 -5 -15 2z" />
<glyph unicode="&#xfc;" horiz-adv-x="991" d="M123 63q0 19 6.5 45t22 65t30 73.5t41 95t45.5 104.5q13 30 30.5 71t28.5 66t21.5 51.5t15.5 44t5 28.5q0 13 -9.5 20.5t-23.5 7.5q-25 0 -82 -45.5t-78 -71.5q-9 -9 -18 0l-19 19q-10 6 2 18q9 11 38 39t74.5 65.5t102 65t101.5 27.5q28 0 43.5 -23t15.5 -51 q0 -66 -133 -354q-109 -240 -109 -297q0 -17 9.5 -26t25.5 -9q38 0 96.5 42t116 103.5t102 116t70.5 92.5q62 91 94 175l72 196q5 14 29 14h84q24 0 18 -18l-157 -426q-86 -233 -86 -266q0 -13 2.5 -16.5t13.5 -8.5q21 0 83.5 52t76.5 75q8 13 18 0l21 -20q8 -8 0 -19 q-3 -5 -23.5 -24.5t-58 -50.5t-78.5 -59.5t-89.5 -49t-88.5 -20.5q-39 0 -39 47q0 11 24 76t65 168t42 106l-12 6q-41 -59 -89 -117.5t-118 -128.5t-149 -113.5t-150 -43.5q-31 0 -53.5 23.5t-22.5 59.5zM522 1214q0 28 22 54t72 26q35 0 59.5 -23t24.5 -63q0 -37 -24 -59.5 t-60 -22.5t-65 20t-29 68zM801 1214q0 28 22 54t72 26q35 0 59.5 -23t24.5 -63q0 -37 -24 -59.5t-60 -22.5t-65 20t-29 68z" />
<glyph unicode="&#xfd;" horiz-adv-x="837" d="M-188 -512q0 36 25.5 59t56.5 25h13.5t13 -2.5t10 -3.5t10.5 -6t9 -6t10 -7.5t9 -7.5q28 -24 51 -24q40 0 97 43q78 58 137 134.5t88 141.5q20 49 16 115q0 2 -8.5 114t-17 221t-20 223.5t-19.5 151.5q-12 58 -35 58q-25 0 -64 -61t-55 -105q-5 -10 -18 -6l-29 12 q-8 4 -2 18q58 121 104 181q74 96 142 96q47 0 68.5 -48t33.5 -183q32 -372 39 -607l8 2q47 75 118 220.5t91 214.5q0 1 6.5 22t9 31.5t7 32.5t6.5 44.5t2 47.5q0 49 -10 76q-23 52 -23 73q0 30 19.5 52t64.5 22q39 0 60.5 -30t21.5 -72q0 -62 -24.5 -148t-48.5 -142.5 t-64 -144.5q-78 -171 -219 -394t-264 -343q-39 -40 -79.5 -75.5t-109 -73t-123.5 -37.5q-56 0 -85 28.5t-29 67.5zM571 977q-3 3 9 16l258 211q36 31 71 31q16 0 29.5 -10t19.5 -26t5.5 -33.5t-14 -35.5t-38.5 -30l-309 -146q-12 -6 -16 2z" />
<glyph unicode="&#xfe;" horiz-adv-x="944" d="M-276 -602l10 37q6 20 18 20h47q58 0 90.5 36t69.5 130l438 1104q-66 -20 -141 -77t-117 -107q-9 -11 -18 -2l-21 20q-10 11 -2 19q146 170 334 239l205 510q7 20 29 29l116 45q4 2 15 2q6 0 6 -8q0 -5 -4 -17l-226 -532q24 4 48 4q20 2 53 2q116 0 184 -73.5t68 -184.5 q0 -105 -52 -207t-147 -184q-107 -91 -233 -143t-254 -60l-160 -406q-30 -80 -17 -109.5t78 -29.5h58q16 0 12 -16l-14 -41q-8 -12 -25 -12q-7 0 -34 1.5t-75 3t-106 1.5q-62 0 -111 -1.5t-75.5 -3t-32.5 -1.5q-9 0 -12.5 3t-1.5 9zM266 61q91 8 182 48t164.5 103.5 t119.5 154t46 190.5q0 105 -50.5 158t-123.5 53q-19 0 -61 -6z" />
<glyph unicode="&#xff;" horiz-adv-x="837" d="M-188 -512q0 36 25.5 59t56.5 25h13.5t13 -2.5t10 -3.5t10.5 -6t9 -6t10 -7.5t9 -7.5q28 -24 51 -24q40 0 97 43q78 58 137 134.5t88 141.5q20 49 16 115q0 2 -8.5 114t-17 221t-20 223.5t-19.5 151.5q-12 58 -35 58q-25 0 -64 -61t-55 -105q-5 -10 -18 -6l-29 12 q-8 4 -2 18q58 121 104 181q74 96 142 96q47 0 68.5 -48t33.5 -183q32 -372 39 -607l8 2q47 75 118 220.5t91 214.5q0 1 6.5 22t9 31.5t7 32.5t6.5 44.5t2 47.5q0 49 -10 76q-23 52 -23 73q0 30 19.5 52t64.5 22q39 0 60.5 -30t21.5 -72q0 -62 -24.5 -148t-48.5 -142.5 t-64 -144.5q-77 -168 -219 -391.5t-264 -345.5q-27 -26 -43.5 -41.5t-55 -46.5t-69 -49.5t-70.5 -33.5t-74 -15q-56 0 -85 28.5t-29 67.5zM383 1214q0 28 22 54t72 26q35 0 59.5 -23t24.5 -63q0 -37 -24 -59.5t-60 -22.5t-65 20t-29 68zM662 1214q0 28 22 54t72 26 q35 0 59.5 -23t24.5 -63q0 -37 -24 -59.5t-60 -22.5t-65 20t-29 68z" />
<glyph unicode="&#x152;" horiz-adv-x="2179" d="M188 524q0 109 26.5 211t72.5 182t93 139t101 109q111 102 267.5 170t338.5 68q64 0 218 -14q134 -17 184 -17h178q168 0 320 4q45 0 92.5 1t52.5 1q23 0 30 -7t13 -32l66 -280q1 -7 -1.5 -10.5t-11.5 -8.5l-22 -8q-12 -5 -21 6l-192 248q-11 17 -33 17h-352l-176 -539 h196q44 0 67 1.5t53 10.5t48.5 27t38.5 50.5t37 82.5q3 13 14 10l31 -6q14 -4 12 -16l-110 -408q-3 -15 -15 -12l-32 4q-7 1 -9 4t0 12q5 62 -5 98.5t-45.5 52.5t-70.5 19.5t-108 3.5h-123l-199 -628h510q59 0 90.5 16t73.5 70l164 206q12 16 25 5l20 -13q12 -9 6 -28 l-104 -297q-7 -22 -16 -28.5t-29 -6.5q-7 0 -33 0.5t-75.5 1.5t-94.5 2q-51 0 -182.5 1t-204.5 1h-313q-42 0 -170 -14q-121 -17 -172 -17q-91 0 -184 32.5t-154 90.5q-181 167 -181 432zM369 457q0 -104 27.5 -185t73 -128t99.5 -71t111 -24q352 0 428 242l278 889 q21 68 -54 105.5t-204 37.5q-140 0 -254 -55.5t-223 -155.5q-130 -123 -206 -306.5t-76 -348.5z" />
<glyph unicode="&#x153;" horiz-adv-x="1198" d="M106 254q0 78 22.5 162.5t65 161.5t98 138.5t126 98.5t143.5 37q86 0 144 -54t61 -153h4q64 88 160 147.5t180 59.5q56 0 86.5 -33.5t30.5 -75.5q0 -77 -52 -149t-139 -117q-146 -72 -299 -84q-26 -65 -26 -188q0 -62 35 -95.5t73 -33.5q70 0 134 43.5t100 101.5 q8 12 18 2l23 -18q15 -9 2 -19q-23 -32 -52.5 -63.5t-72 -66t-97 -55.5t-110.5 -21q-66 0 -114 39.5t-68 113.5q-44 -68 -122.5 -110.5t-135.5 -42.5q-16 0 -36.5 3.5t-55 19.5t-60.5 43.5t-46 81.5t-20 126zM193 188q0 -53 26 -81.5t68 -28.5q69 0 135 42t114 108t85 143.5 t56 151t19 128.5q0 48 -26.5 76.5t-67.5 28.5q-59 0 -136.5 -59.5t-154.5 -180.5q-118 -183 -118 -328zM754 453q23 -2 64 6.5t88.5 28.5t90 47t71 66.5t28.5 82.5q0 33 -17 55.5t-49 22.5q-46 0 -95.5 -37.5t-86 -89.5t-62 -102t-32.5 -80z" />
<glyph unicode="&#x178;" horiz-adv-x="1105" d="M94 1319l8 43q1 10 5.5 13t15.5 3l67 -3q67 -3 148 -3q69 0 125.5 1.5t87.5 3t39 1.5q21 0 18 -16l-4 -43q-3 -16 -18 -16h-54q-37 0 -55 -15t-17.5 -37t7.5 -47l190 -569q10 -35 31 -8q61 83 211.5 303.5t165.5 261.5q21 58 3 84.5t-79 26.5h-41q-17 0 -14 20l4 39 q1 10 6 13t19 3q4 0 79.5 -3t145.5 -3q67 0 132.5 3t68.5 3q13 0 17.5 -4t2.5 -12l-6 -39q-3 -20 -17 -20h-38q-50 0 -83.5 -23t-76.5 -78q-49 -63 -432 -604q-29 -40 -39.5 -57t-23.5 -49t-23 -76l-52 -232q-7 -31 -7 -52t5 -33t18 -18.5t27 -8.5t37 -2h62q17 0 14 -17 l-6 -43q-3 -16 -23 -16l-78 3q-78 3 -169 3q-75 0 -133 -1.5t-88 -3t-35 -1.5q-10 0 -14 3.5t-3 12.5l8 43q0 17 19 17h59q66 0 93.5 27t39.5 81l68 303q4 20 0 57t-10 54l-221 633q-27 78 -125 78h-47q-18 0 -15 16zM565 1628q0 30 23.5 58t79.5 28q39 0 65.5 -24.5 t26.5 -67.5q0 -40 -26.5 -65t-65.5 -25q-40 0 -71.5 21.5t-31.5 74.5zM930 1628q0 31 23 58.5t79 27.5q39 0 65.5 -24.5t26.5 -67.5q0 -40 -26.5 -65t-65.5 -25q-40 0 -71 21t-31 75z" />
<glyph unicode="&#x2c6;" horiz-adv-x="522" d="M223 989q-5 5 6 15l256 262q14 11 21 -9l92 -266q7 -10 -2 -16l-16 -8q-10 -7 -17 0l-108 135l-205 -133q-10 -5 -14 2z" />
<glyph unicode="&#x2dc;" horiz-adv-x="583" d="M209 993q-6 6 2 21q25 60 72.5 103.5t97.5 43.5q37 0 102 -20q50 -13 95 -13q29 0 53.5 20t38.5 46q7 14 16 8l31 -16q10 -5 -8 -35q-28 -50 -72 -86.5t-84 -36.5q-35 0 -117 21q-43 12 -80 12q-25 0 -56.5 -24t-49.5 -54q-7 -11 -14 -6z" />
<glyph unicode="&#x2000;" horiz-adv-x="902" />
<glyph unicode="&#x2001;" horiz-adv-x="1804" />
<glyph unicode="&#x2002;" horiz-adv-x="902" />
<glyph unicode="&#x2003;" horiz-adv-x="1804" />
<glyph unicode="&#x2004;" horiz-adv-x="601" />
<glyph unicode="&#x2005;" horiz-adv-x="451" />
<glyph unicode="&#x2006;" horiz-adv-x="300" />
<glyph unicode="&#x2007;" horiz-adv-x="300" />
<glyph unicode="&#x2008;" horiz-adv-x="225" />
<glyph unicode="&#x2009;" horiz-adv-x="360" />
<glyph unicode="&#x200a;" horiz-adv-x="100" />
<glyph unicode="&#x2010;" horiz-adv-x="856" d="M129 459v76q0 20 16 20h662q18 0 18 -16v-70q0 -25 -18 -25h-662q-16 0 -16 15z" />
<glyph unicode="&#x2011;" horiz-adv-x="856" d="M129 459v76q0 20 16 20h662q18 0 18 -16v-70q0 -25 -18 -25h-662q-16 0 -16 15z" />
<glyph unicode="&#x2012;" horiz-adv-x="856" d="M129 459v76q0 20 16 20h662q18 0 18 -16v-70q0 -25 -18 -25h-662q-16 0 -16 15z" />
<glyph unicode="&#x2013;" d="M51 444v111h1024v-111h-1024z" />
<glyph unicode="&#x2014;" horiz-adv-x="2048" d="M51 444v111h2048v-111h-2048z" />
<glyph unicode="&#x2018;" horiz-adv-x="368" d="M295 1118q0 61 24 112.5t58.5 82t73.5 52t67 30t41 8.5h5h4.5t4 -1t4.5 -2.5t2.5 -5t2.5 -8.5q1 -9 -1.5 -14t-7 -7.5t-12.5 -4.5q-45 -12 -96 -57.5t-51 -102.5q0 -30 9 -48t34 -46q53 -42 53 -82q0 -35 -22.5 -60.5t-59.5 -25.5q-40 0 -72 32t-46.5 72t-14.5 76z" />
<glyph unicode="&#x2019;" horiz-adv-x="368" d="M209 954q-2 21 20 27q46 12 97 57.5t51 102.5q0 30 -9 48t-34 46q-53 42 -53 82q0 35 22 60.5t59 25.5q59 0 96.5 -60.5t37.5 -119.5q0 -61 -24.5 -112.5t-58.5 -82t-73.5 -52t-67.5 -30t-41 -8.5q-1 0 -5.5 -0.5t-5.5 0l-4 2t-4.5 5t-2.5 9.5z" />
<glyph unicode="&#x201a;" horiz-adv-x="368" d="M4 -203q-1 12 4 18t17 9q45 12 96 57.5t51 102.5q0 30 -9 48t-34 46q-53 42 -53 82q0 35 22.5 60.5t59.5 25.5q40 0 72 -32t46.5 -72t14.5 -76q0 -61 -24 -112.5t-58.5 -82t-73.5 -52t-67 -30t-41 -8.5q-1 0 -5.5 -0.5t-6 0t-4.5 2t-4.5 5t-2.5 9.5z" />
<glyph unicode="&#x201c;" horiz-adv-x="655" d="M295 1118q0 61 24 112.5t58.5 82t73.5 52t67 30t41 8.5h5h4.5t4 -1t4.5 -2.5t2.5 -5t2.5 -8.5q1 -9 -1.5 -14t-7 -7.5t-12.5 -4.5q-45 -12 -96 -57.5t-51 -102.5q0 -30 9 -48t34 -46q53 -42 53 -82q0 -35 -22.5 -60.5t-59.5 -25.5q-40 0 -72 32t-46.5 72t-14.5 76z M582 1118q0 61 24 112.5t58.5 82t73.5 52t67 30t41 8.5h4h4t3.5 -0.5t3.5 -1.5t2.5 -3t2.5 -5t2 -7q1 -12 -3.5 -17.5t-16.5 -8.5q-46 -12 -97 -57.5t-51 -102.5q0 -30 9 -48t34 -46q54 -43 54 -82q0 -35 -22.5 -60.5t-59.5 -25.5q-40 0 -72 32t-46.5 72t-14.5 76z" />
<glyph unicode="&#x201d;" horiz-adv-x="655" d="M209 954q-2 21 20 27q46 12 97 57.5t51 102.5q0 30 -9 48t-34 46q-53 42 -53 82q0 35 22 60.5t59 25.5q59 0 96.5 -60.5t37.5 -119.5q0 -61 -24.5 -112.5t-58.5 -82t-73.5 -52t-67.5 -30t-41 -8.5q-1 0 -5.5 -0.5t-5.5 0l-4 2t-4.5 5t-2.5 9.5zM496 954q-2 21 20 27 q46 12 97 57.5t51 102.5q0 30 -9 48t-34 46q-54 43 -54 82q0 35 22.5 60.5t59.5 25.5q40 0 72 -32t46.5 -72t14.5 -76q0 -61 -24 -112.5t-58.5 -82t-73.5 -52t-67 -30t-41 -8.5q-1 0 -5.5 -0.5t-5.5 0l-4 2t-4.5 5t-2.5 9.5z" />
<glyph unicode="&#x201e;" horiz-adv-x="655" d="M4 -203q-1 12 4 18t17 9q45 12 96 57.5t51 102.5q0 30 -9 48t-34 46q-53 42 -53 82q0 35 22.5 60.5t59.5 25.5q40 0 72 -32t46.5 -72t14.5 -76q0 -61 -24 -112.5t-58.5 -82t-73.5 -52t-67 -30t-41 -8.5q-1 0 -5.5 -0.5t-6 0t-4.5 2t-4.5 5t-2.5 9.5zM291 -203 q-2 21 20 27q46 12 97 57.5t51 102.5q0 30 -9 48t-34 46q-54 43 -54 82q0 35 22.5 60.5t59.5 25.5q59 0 96.5 -60.5t37.5 -119.5q0 -61 -24.5 -112.5t-58.5 -82t-73.5 -52t-67.5 -30t-41 -8.5q-1 0 -5.5 -0.5t-5.5 0l-4 2t-4.5 5t-2.5 9.5z" />
<glyph unicode="&#x2022;" horiz-adv-x="724" d="M221 649q0 98 67 165t161 67q102 0 162.5 -56.5t60.5 -156.5q0 -97 -69 -159.5t-167 -62.5q-85 0 -150 56t-65 147z" />
<glyph unicode="&#x2026;" horiz-adv-x="2048" d="M158 90q0 37 28 72t78 35q42 0 70.5 -22.5t37.5 -45t9 -39.5q0 -42 -33 -76t-82 -34q-47 0 -77.5 31.5t-30.5 78.5zM842 90q0 37 28 72t78 35q42 0 70.5 -22.5t37.5 -45t9 -39.5q0 -42 -33 -76t-82 -34q-47 0 -77.5 31.5t-30.5 78.5zM1526 90q0 37 28 72t78 35 q42 0 70.5 -22.5t37.5 -45t9 -39.5q0 -42 -33 -76t-82 -34q-47 0 -77.5 31.5t-30.5 78.5z" />
<glyph unicode="&#x202f;" horiz-adv-x="360" />
<glyph unicode="&#x2039;" horiz-adv-x="471" d="M104 434q0 4 11 15l317 296q9 9 12 9q5 0 11 -6l22 -23q8 -8 8 -14q0 -5 -12 -17l-215 -250l156 -251l10 -17q0 -6 -8 -14l-25 -23q-4 -4 -8 -4q-9 0 -14 8l-256 279q-9 9 -9 12z" />
<glyph unicode="&#x203a;" horiz-adv-x="471" d="M61 178q0 4 13 17l215 249l-156 252l-10 17q0 6 8 14l25 23q4 4 8 4q8 0 14 -9l256 -278q8 -8 8 -12q0 -5 -10 -15l-317 -297q-8 -8 -13 -8q-4 0 -10 6l-22 23q-9 9 -9 14z" />
<glyph unicode="&#x205f;" horiz-adv-x="451" />
<glyph unicode="&#x20ac;" d="M65.5 488.5q5.5 -7.5 24.5 -7.5h129q-6 -73 -1 -145t32 -138t66 -117t100 -81.5t135 -30.5q62 0 121.5 19.5t96.5 38.5t48 18q23 -3 14 -37q-3 -21 -4 -26q-5 -13 2 -17l33 -10q10 -3 15 10l104 326q5 12 2 15q-2 1 -8 3l-29 10q-6 2 -9 -0.5t-7 -15.5 q-96 -250 -342 -250q-32 0 -62.5 11.5t-60 39.5t-50.5 70t-31 110t-3 152q0 21 4 45h420q21 0 26 13l21 41q3 6 -1.5 9t-14.5 3h-443q17 94 37 168h483q22 0 27 12l18 41q3 6 -2 9t-14 3h-491q49 138 96 217q75 126 151.5 184t165.5 58q52 0 92 -20.5t62.5 -54t36.5 -75 t13.5 -83t-5.5 -78.5q-2 -17 3 -19q2 -1 5 -2l25 -4q9 -1 12 1t6 11l84 310q4 9 3 13t-11 7l-23 6q-12 3 -14 -12q-9 -32 -17 -43.5t-22 -11.5q-7 0 -27 21.5t-45 47t-75.5 47t-110.5 21.5q-217 0 -397 -236q-111 -145 -170 -305h-117q-18 0 -23.5 -1.5t-9.5 -10.5l-14 -31 q-3 -10 1.5 -16t23.5 -6h114q-22 -76 -37 -168h-114q-18 0 -23.5 -1.5t-9.5 -10.5l-14 -31q-6 -8 -0.5 -15.5z" />
<glyph unicode="&#x2122;" horiz-adv-x="1710" d="M190 1210q-7 0 0 7q58 133 78 174q8 18 15 18q6 0 10 -4l12 -10q27 -15 53 -17q189 -6 207 -6q45 0 228 6q31 2 57 13l22 14q2 1 5.5 2.5t5.5 1.5q6 0 6 -18q-2 -11 -10 -80t-9 -99q0 -8 -8 -12l-16 -2q-13 -2 -15 10q-17 75 -49 95q-31 16 -166 16l-88 -365 q-33 -129 -43 -192q-2 -21 3 -30t22 -9h51q11 0 8 -10l-10 -37q0 -10 -12 -10l-58 2q-58 2 -81 2q-25 0 -87.5 -2t-64.5 -2q-13 0 -10 10l8 37q2 10 12 10h56q31 0 38 25q22 74 46 180l92 391q-116 0 -160 -12q-48 -16 -113 -97q-3 -15 -16 -8zM778 678l8 33q4 12 11 12h24 q25 0 46 16.5t32 42.5q21 52 90 328l37 160q6 29 -5.5 41t-37.5 12h-29q-9 0 -6 12l8 35q3 12 13 12q1 0 52 -2t71 -2q44 0 102 4q18 2 25 -1t8 -19l76 -492l327 494q9 16 39 16q69 0 116 0.5t66 1.5h19q7 0 4 -10l-6 -35q-6 -14 -13 -14h-20q-27 0 -37.5 -9.5t-15.5 -29.5 q-17 -62 -64 -264q-9 -39 -27.5 -123t-27.5 -121q-5 -23 1 -38t22 -15h47q7 0 5 -7q-1 -2 -1 -3l-6 -35q-3 -10 -15 -10q-2 0 -58.5 1t-80.5 1q-23 0 -82.5 -1t-62.5 -1q-10 0 -7 10l7 33q3 12 14 12h39q37 0 53 35q11 22 21 64t21 103t15 81l74 303h-8l-404 -602 q-2 -2 -9 -10t-11.5 -11.5t-9.5 -3.5q-17 0 -17 18l-100 613h-10l-62 -275q-49 -192 -57 -243q-4 -40 7 -56t40 -16h27q7 0 4 -12l-8 -33q-3 -10 -13 -10q-2 0 -50.5 1t-72.5 1q-18 0 -73 -2t-56 -2q-2 1 -4.5 1.5t-2.5 1.5t-0.5 2.5t-0.5 6.5z" />
<glyph unicode="&#x25fc;" horiz-adv-x="849" d="M0 0v850h850v-850h-850z" />
</font>
</defs>
</svg>
